<mxfile host="app.diagrams.net" modified="2022-02-09T07:40:00.298Z" agent="5.0 (Macintosh; Intel Mac OS X 10_15_7) AppleWebKit/537.36 (KHTML, like Gecko) Chrome/97.0.4692.99 Safari/537.36" etag="FKPCbHmfG6BJfjCAc63E" version="16.5.3" type="github">
  <diagram id="8ZIT4Iplwb0kwhuKGE4q" name="Page-1">
    <mxGraphModel dx="1426" dy="769" grid="1" gridSize="10" guides="1" tooltips="1" connect="1" arrows="1" fold="1" page="1" pageScale="1" pageWidth="850" pageHeight="1100" math="0" shadow="0">
      <root>
        <mxCell id="0" />
        <mxCell id="1" parent="0" />
        <mxCell id="OTchDZz6keVQlQE7Lg18-1" value="eBpf 程序分类&lt;br&gt;30+" style="rounded=1;whiteSpace=wrap;html=1;" vertex="1" parent="1">
          <mxGeometry x="70" y="260" width="120" height="60" as="geometry" />
        </mxCell>
        <mxCell id="OTchDZz6keVQlQE7Lg18-2" value="跟踪类" style="whiteSpace=wrap;html=1;rounded=1;" vertex="1" parent="1">
          <mxGeometry x="330" y="120" width="119" height="60" as="geometry" />
        </mxCell>
        <mxCell id="OTchDZz6keVQlQE7Lg18-4" value="&lt;font style=&quot;font-size: 12px&quot;&gt;kprobe&lt;br&gt;&lt;span style=&quot;color: rgb(51 , 51 , 51) ; font-family: &amp;#34;pingfang sc&amp;#34; , &amp;#34;avenir&amp;#34; , &amp;#34;tahoma&amp;#34; , &amp;#34;arial&amp;#34; , &amp;#34;lantinghei sc&amp;#34; , &amp;#34;microsoft yahei&amp;#34; , &amp;#34;hiragino sans gb&amp;#34; , &amp;#34;microsoft sans serif&amp;#34; , &amp;#34;wenquanyi micro hei&amp;#34; , &amp;#34;helvetica&amp;#34; , sans-serif ; background-color: rgb(255 , 255 , 255)&quot;&gt;&amp;nbsp;/proc/kallsyms&lt;/span&gt;&lt;/font&gt;" style="whiteSpace=wrap;html=1;rounded=1;" vertex="1" parent="1">
          <mxGeometry x="570" y="30" width="120" height="60" as="geometry" />
        </mxCell>
        <mxCell id="OTchDZz6keVQlQE7Lg18-6" value="&lt;font style=&quot;font-size: 12px&quot;&gt;tracepoint&lt;br&gt;&lt;span style=&quot;color: rgb(51 , 51 , 51) ; font-family: &amp;#34;pingfang sc&amp;#34; , &amp;#34;avenir&amp;#34; , &amp;#34;tahoma&amp;#34; , &amp;#34;arial&amp;#34; , &amp;#34;lantinghei sc&amp;#34; , &amp;#34;microsoft yahei&amp;#34; , &amp;#34;hiragino sans gb&amp;#34; , &amp;#34;microsoft sans serif&amp;#34; , &amp;#34;wenquanyi micro hei&amp;#34; , &amp;#34;helvetica&amp;#34; , sans-serif ; background-color: rgb(255 , 255 , 255)&quot;&gt;/sys/kernel/debug&lt;/span&gt;&lt;/font&gt;" style="whiteSpace=wrap;html=1;rounded=1;" vertex="1" parent="1">
          <mxGeometry x="570" y="100" width="120" height="60" as="geometry" />
        </mxCell>
        <mxCell id="OTchDZz6keVQlQE7Lg18-7" value="pref" style="whiteSpace=wrap;html=1;rounded=1;" vertex="1" parent="1">
          <mxGeometry x="570" y="170" width="120" height="60" as="geometry" />
        </mxCell>
        <mxCell id="OTchDZz6keVQlQE7Lg18-8" value="..." style="whiteSpace=wrap;html=1;rounded=1;" vertex="1" parent="1">
          <mxGeometry x="570" y="240" width="120" height="60" as="geometry" />
        </mxCell>
        <mxCell id="OTchDZz6keVQlQE7Lg18-9" value="" style="endArrow=classic;html=1;rounded=0;exitX=1;exitY=0.5;exitDx=0;exitDy=0;entryX=0;entryY=0.5;entryDx=0;entryDy=0;" edge="1" parent="1" source="OTchDZz6keVQlQE7Lg18-1" target="OTchDZz6keVQlQE7Lg18-2">
          <mxGeometry width="50" height="50" relative="1" as="geometry">
            <mxPoint x="400" y="410" as="sourcePoint" />
            <mxPoint x="450" y="360" as="targetPoint" />
          </mxGeometry>
        </mxCell>
        <mxCell id="OTchDZz6keVQlQE7Lg18-10" value="" style="endArrow=classic;html=1;rounded=0;exitX=1;exitY=0.5;exitDx=0;exitDy=0;entryX=0;entryY=0.5;entryDx=0;entryDy=0;" edge="1" parent="1" source="OTchDZz6keVQlQE7Lg18-2" target="OTchDZz6keVQlQE7Lg18-4">
          <mxGeometry width="50" height="50" relative="1" as="geometry">
            <mxPoint x="380" y="330" as="sourcePoint" />
            <mxPoint x="430" y="280" as="targetPoint" />
          </mxGeometry>
        </mxCell>
        <mxCell id="OTchDZz6keVQlQE7Lg18-11" value="" style="endArrow=classic;html=1;rounded=0;exitX=1;exitY=0.5;exitDx=0;exitDy=0;entryX=0;entryY=0.5;entryDx=0;entryDy=0;" edge="1" parent="1" source="OTchDZz6keVQlQE7Lg18-2" target="OTchDZz6keVQlQE7Lg18-6">
          <mxGeometry width="50" height="50" relative="1" as="geometry">
            <mxPoint x="400" y="330" as="sourcePoint" />
            <mxPoint x="450" y="280" as="targetPoint" />
          </mxGeometry>
        </mxCell>
        <mxCell id="OTchDZz6keVQlQE7Lg18-12" value="" style="endArrow=classic;html=1;rounded=0;exitX=1;exitY=0.5;exitDx=0;exitDy=0;entryX=0;entryY=0.5;entryDx=0;entryDy=0;" edge="1" parent="1" source="OTchDZz6keVQlQE7Lg18-2" target="OTchDZz6keVQlQE7Lg18-7">
          <mxGeometry width="50" height="50" relative="1" as="geometry">
            <mxPoint x="400" y="330" as="sourcePoint" />
            <mxPoint x="450" y="280" as="targetPoint" />
          </mxGeometry>
        </mxCell>
        <mxCell id="OTchDZz6keVQlQE7Lg18-13" value="" style="endArrow=classic;html=1;rounded=0;exitX=1;exitY=0.5;exitDx=0;exitDy=0;entryX=-0.017;entryY=0.617;entryDx=0;entryDy=0;entryPerimeter=0;" edge="1" parent="1" source="OTchDZz6keVQlQE7Lg18-2" target="OTchDZz6keVQlQE7Lg18-8">
          <mxGeometry width="50" height="50" relative="1" as="geometry">
            <mxPoint x="400" y="330" as="sourcePoint" />
            <mxPoint x="450" y="280" as="targetPoint" />
          </mxGeometry>
        </mxCell>
        <mxCell id="OTchDZz6keVQlQE7Lg18-14" value="网络类" style="rounded=1;whiteSpace=wrap;html=1;" vertex="1" parent="1">
          <mxGeometry x="340" y="380" width="120" height="60" as="geometry" />
        </mxCell>
        <mxCell id="OTchDZz6keVQlQE7Lg18-15" value="" style="endArrow=classic;html=1;rounded=0;entryX=0;entryY=0.5;entryDx=0;entryDy=0;" edge="1" parent="1" target="OTchDZz6keVQlQE7Lg18-14">
          <mxGeometry width="50" height="50" relative="1" as="geometry">
            <mxPoint x="190" y="290" as="sourcePoint" />
            <mxPoint x="450" y="280" as="targetPoint" />
          </mxGeometry>
        </mxCell>
        <mxCell id="OTchDZz6keVQlQE7Lg18-16" value="xdp" style="whiteSpace=wrap;html=1;rounded=1;" vertex="1" parent="1">
          <mxGeometry x="570" y="320" width="120" height="60" as="geometry" />
        </mxCell>
        <mxCell id="OTchDZz6keVQlQE7Lg18-18" value="tc" style="whiteSpace=wrap;html=1;rounded=1;" vertex="1" parent="1">
          <mxGeometry x="570" y="390" width="120" height="60" as="geometry" />
        </mxCell>
        <mxCell id="OTchDZz6keVQlQE7Lg18-19" value="套接字" style="whiteSpace=wrap;html=1;rounded=1;" vertex="1" parent="1">
          <mxGeometry x="570" y="460" width="120" height="60" as="geometry" />
        </mxCell>
        <mxCell id="OTchDZz6keVQlQE7Lg18-20" value="cgroup" style="whiteSpace=wrap;html=1;rounded=1;" vertex="1" parent="1">
          <mxGeometry x="570" y="530" width="120" height="60" as="geometry" />
        </mxCell>
        <mxCell id="OTchDZz6keVQlQE7Lg18-21" value="" style="endArrow=classic;html=1;rounded=0;entryX=0;entryY=0.5;entryDx=0;entryDy=0;exitX=1;exitY=0.5;exitDx=0;exitDy=0;" edge="1" parent="1" source="OTchDZz6keVQlQE7Lg18-14" target="OTchDZz6keVQlQE7Lg18-16">
          <mxGeometry width="50" height="50" relative="1" as="geometry">
            <mxPoint x="400" y="450" as="sourcePoint" />
            <mxPoint x="450" y="400" as="targetPoint" />
          </mxGeometry>
        </mxCell>
        <mxCell id="OTchDZz6keVQlQE7Lg18-22" value="" style="endArrow=classic;html=1;rounded=0;exitX=1;exitY=0.5;exitDx=0;exitDy=0;entryX=0;entryY=0.5;entryDx=0;entryDy=0;" edge="1" parent="1" source="OTchDZz6keVQlQE7Lg18-14" target="OTchDZz6keVQlQE7Lg18-18">
          <mxGeometry width="50" height="50" relative="1" as="geometry">
            <mxPoint x="400" y="570" as="sourcePoint" />
            <mxPoint x="450" y="520" as="targetPoint" />
          </mxGeometry>
        </mxCell>
        <mxCell id="OTchDZz6keVQlQE7Lg18-23" value="" style="endArrow=classic;html=1;rounded=0;entryX=0;entryY=0.5;entryDx=0;entryDy=0;" edge="1" parent="1" target="OTchDZz6keVQlQE7Lg18-19">
          <mxGeometry width="50" height="50" relative="1" as="geometry">
            <mxPoint x="460" y="410" as="sourcePoint" />
            <mxPoint x="530" y="550" as="targetPoint" />
          </mxGeometry>
        </mxCell>
        <mxCell id="OTchDZz6keVQlQE7Lg18-24" value="" style="endArrow=classic;html=1;rounded=0;exitX=1;exitY=0.5;exitDx=0;exitDy=0;entryX=0;entryY=0.5;entryDx=0;entryDy=0;" edge="1" parent="1" source="OTchDZz6keVQlQE7Lg18-14" target="OTchDZz6keVQlQE7Lg18-20">
          <mxGeometry width="50" height="50" relative="1" as="geometry">
            <mxPoint x="400" y="450" as="sourcePoint" />
            <mxPoint x="450" y="400" as="targetPoint" />
          </mxGeometry>
        </mxCell>
        <mxCell id="OTchDZz6keVQlQE7Lg18-25" value="安全控制，bpf扩展" style="rounded=1;whiteSpace=wrap;html=1;" vertex="1" parent="1">
          <mxGeometry x="350" y="610" width="120" height="60" as="geometry" />
        </mxCell>
        <mxCell id="OTchDZz6keVQlQE7Lg18-26" value="" style="endArrow=classic;html=1;rounded=0;exitX=1;exitY=0.5;exitDx=0;exitDy=0;entryX=0;entryY=0.5;entryDx=0;entryDy=0;" edge="1" parent="1" source="OTchDZz6keVQlQE7Lg18-1" target="OTchDZz6keVQlQE7Lg18-25">
          <mxGeometry width="50" height="50" relative="1" as="geometry">
            <mxPoint x="210" y="580" as="sourcePoint" />
            <mxPoint x="260" y="530" as="targetPoint" />
          </mxGeometry>
        </mxCell>
        <mxCell id="OTchDZz6keVQlQE7Lg18-29" value="" style="shape=image;verticalLabelPosition=bottom;labelBackgroundColor=default;verticalAlign=top;aspect=fixed;imageAspect=0;image=data:image/png,iVBORw0KGgoAAAANSUhEUgAAAggAAAEpCAYAAAD25NptAAAAAXNSR0IArs4c6QAAIABJREFUeF7snQd4XMXVhr8tktzAYIxpP800mxIIvQQMhNBDT0gICT0YDKEa00PvvYUQegvNQOgdTA+919A7tsHYuEna3f955+5Zja52tbvSqhjm8hhJu/dOOXPmfN85c2ZuIpfL5RSuIIEggSCBIIEggSCBIAFPAolAEII+BAkECQQJBAkECQQJxCUQCELQiSCBIIEggSCBIIEggTYSCAQhKEWQQJBAkECQQJBAkEAgCEEHggSCBIIEggSCBIIEyksgRBDKyyjcESQQJBAkECQQJPCzk0AgCD+7IQ8dDhIIEggSCBIIEigvgUAQysso3BEkECQQJBAkECTws5NAWYLAIQkJE4udmJDgF/5lo29zqfYFVyigE/Itd1pDb6ijXBsr6X4t+lFJPeGeXiOBnJtL0cBH/2deJaMpxkzL60RJ1aiF3tVCGuV0t0w7rZ+lmlKu+EhYZTpSUSF+QfkHCrYvI6mMvauFLEMZFUugMDQVP9E7b+x0P5zZyOanQDKyJbnIfpiFqVj98yIqSxDaFyUtClfvkgAqUK0axHsQxrX7xtQbr1ZsPN8C99msMB6V6F1n+9ENdTiWkoimkD8excam+5Qk1BQkUF4C5q+bQ+Exjo6SjwoIQtuZESfpibK0vXzfwh1BAkEChkrmwXaW6AWJdk4Cvu3zx8b/3a/BCFCyc9WGp4MEOiGBnLJKEIEsmBH0mMgXn1UX/aqAIORpSd4rLRbB6w4zVrPIYTuC72wdnX2+Ep0oV0eLVpQurdx45TodgaikJ+Eek0Bpgm1Lee1P6nI6UW68zY50ZkSiOtpvSTm9qqSdna+jnLSKkzP/qUQhvFBMYiHUUI0elRuNynSimhp/uve21lGbjlmpkBLQDQSBCZrLZZVgXSOXUTRZ0l0u9eoVKa5aFZQQeyT+mopyylquBoRUroyygkTwjH3JV2iUr6HcHdGaeMuVyNdpn7hvy7zCI/5MvF9l3wCSj/K2X2frnsSaWVaU5fvRVlJdUUebWrLRuqGri8ldi8X5ksqZ/6LajpXCxvakXl7xyo5Z2RvK1lFulnoFGNbbR+UeLdu4cEMbCbQzXtiIcsMZJOob6iIcPS9ER85jNrUS2VUYQWgJmUEKnnn6MY3/9jMlE00RlOT6urrKgULB2MfQodhzrQCwAuPVhg5UW0dMtlGVMQAqI1FLDyl1G2Sqswofr6NNiQW22E5jyywF54rJuw099QhEsV7FjGm8yHK2Nhp/765E56XXhvB1SK/ywG0cqRyprKCOqJuEAOlxSkml1dTcrFQ6p0SScGEUQXBDW+Qqxh989Xc8o4zuZnK5iJAUuTNyBuIKgKPQUmjSGZ/2R5WeRFf0s6Xc/N/xORtvs7ut0jrs4RZ0p/hUUd2OysQO5RL0i3917mcyCV1uxi2Sckk3Nso1ey0Dxcppc4ttjLpY/v42XY+T9HYchEiu8XqKaUC5dvCM3eP/XkaZCl8n8jrVcn98DmbbGIbWbapkscZvYYt+tXxqVbTV4RYZGQYVH5/2Zk+L7vhSac+BKz4++AF5a45KtZlzbfG1dVsTirABibHAkFWKPOdsTplcgxYftryGLT3cFh4qHUBVTRCkZo05aKS22frXUvYHJZPNyuYtVCkD07Y1ccUsp7zlzFuRGiogCK0navV1xGuNe95t7Vvn6/AJQmTP2yBUWTBw7cLe5Sd/nGS0AZyi6N4yhsVoTyJrcBG5AX4rHfSXQy3z3tr1ItrQwvZNb5l5XuzrREwYTPyCMUGC8YfKDXGR/lBHLpknCLk6JZN9dPaZZ+lv+++tZF1WyLI1dLeeP5WY+bYzpAWknTq0srIJFyVsdfk6kAcf38Mr2u24apYxS231KNazYh1tU3Hbljh9y3cwDjiFIvOPORKRbtD99z2s1VZbXbPP0U8JNUY7S7IpJbL1UgqCECOwFZvcym5sAzCxblXrahTjE6W5a1vIrazVxexwaTXim7ivEueobbiXZ7eMDLRSzfz8LIy3I30FxtTRbuQJYssgtCUdrQeoEr+gFaGwP8zutZqU+ZzZNjrQujuRYxf9S+QyUi6jnOo14ftmffz5VO255wFKVBntr5wgFGbSTJ187AE6+KCdpOwEKTtNSZhKuzHjcgTAOlqeqZUe4VLPVmRV8sV2zNRGD5d7tlLdxIS1V1aZ/jjEKsW7+S5PTwsK6ZeX/91lzZerpy398T9JxWhKPPJRVlpmGdrcWA6BK5VzzCUvUU+8Nrd5yD7M4feX6YmTpVdK7Ha4viMIiUxENrINStUP0P777adTTjleibqM0m3MaIu+uRF1RrPlqsQ4Fe4v2fwWItRKu01FigJza71rG7HJw0HeyEdgEBXk7o01vO1Ix3W7dRTDFRTb8VEAGI8AtNKQAsvJtyOZUjZbp//cfpfWWmttDRk8uxKJmS46ksjVSdk6ZVNNMSUrTxYKUVKiE1WoaMut8aeKzwM/Gtu+TW4vqhTVVS5npKgFKBPpaLNcWSpq1ILAHZRXASoLJL49eVQ7Pq05h4/q7Q9ue+PjOx9+KQb7bSLUccKAHXH2hKnU7KJhWfXRV+MTemTc29pl9wMl1VWlfR0gCI065dj9dPCB2yuR+VYpNyHzOQilSEKukkBRuXaXm1a1AI7O1lEOLMr1kVmZJwh5LHdGM5uLMN/k6xao8/e1MayRsXJmyGGZWca8mTfN5nk/jO/KM9fe+pFTNkuYNQpb5W+ooBPhluokgLzzyUS5eqluNh144GidfsoxSqSa2drc+moT0YmiDy2XJTD4H8V0Mz5X0TF35cfZ/UCHbO6iC1klnd7Y+gBtzitqkqgDSyKeXrqlkShEj1770ZiCSU0klcvlQ9GuTVnJrVeg9z65MmYS62q8H+XyNVz7Wq5c1vKo8tqdTCqbqNctt9yhddceoSGDByihmc7YRgQhmY8gFBvhcvajOq2o+d1t7HMZm2ns06lFKSfPDJWnO7583e+RTXJLOOgIdIsxZyhMdR2Ty+tWMp934zxPbsAbTubVzvby2ThmpEQVmfkmA4+AFO9bGT2rhIVXO4Ct1gWLOBVFh8Bj7GCHy1mKiHIum1Uu1V9fTkjo4XH/00677ufN58oaVzFBKEzoXEYnHbOvRh+0teqy30mEP5nQ7UYQakEQKuvQLH+Xk2fem6Qz2aQSyZSUbVQ2kXXRGiUbJJwYlJTJlIk8fmfskmlxUy6RVSbbrHQuoWwmo0RdvfOC+D2ZSqi5iZ917neXdEpVTTkl032Uy03PG3qMdUrKML4onx9ZqAUhm+VHqzYdIJyPiMFF5Jzur5Gjj9WFJx2mVCLurVqV5RJJ2nrk7TbWraunWoytGWZnCBn7KFaSSDQ4wppDp1IYo5xygGo2q1Sqzv1MAKboX3OD061UnyZlm+uUykevstkmJRIpBxbZTE6p+jpXXjKXUi6dVHbmVKfbqRSGPzL+6LODoHIEoBX6VykDV1FSuVQf/XvsXVp/xDqad1CDIy2ZZEbJbL0SucbyRrZINKSsolT7TBzoylaQv6HaepxMSsgxkT80yoWw0GEAHZsU0cJEEkKVZwAc4NOcUyLNuFNo2n1HKDznfp+mRLKPcklijzOUaUorkWZCoE/c1ydPFhqVw0bmGpRIpZRLzYhIWztX22WKjuhFlc90ZnxKErISnSyMD3Kw/BgHFGpWSl99Jz386EfaebcDyycjxaroAEHI6sS/j9Iho7dVXWZiS7p1IAiVTtH27zP2Z44ckwEvSxllnKZnlKrr49aSYIjZ5hlK4r1lAfy0m4+JBAlWGTcZ3VpUc1NEGjJM26Ry9dOjUJPziIgQSJlME8Epx+yT9ZQTkQE8xkQmP/FbJUAGglCzAc+HuWtKEKpuHF4aBMGMbQTI0fotiXlTlUtAMuuUSLEeP1NKoCeQ0ZySKfQr6x7nX6Z5ppLJ/hGZSM9QLtPg8pUyjVKqHsJLfWmJROdkoyNGWfWNkgKbZ7q6k3iGLqJmy27d4KHnCcINY+/SeuuOaCEICSI5FRKEqmU/az4QRVUcmkUdgChmAHwcFSJDWJtk5Mnmkkql610wFDLhLBHOR2Kastm0UvUJNc9oVrKuTs3ZGUqnGhwpbJyRVJ8+aakJXYEsNCrrbGKfyDHNTFYi0f4uugpySGfNAWjT6l5CEE44em+NOWQ7pZsnRBnWfijqJyLqHutG3lMvHK/rCIPzvdSUySqX7h8BtyMDhJGalUpllM1mlEqmlW3Ck2PVOsrGTmSalSITHhaQTGtGY7NS9RnlcmnVpfo4j6+5uVHpdBTqJQCIkW5qanLeX31dSslsZAhaKEH5Ndcek9+sWHE+PFc5QejsiYTFhMTeyjy6O2JA9jPJTmllE+jKNGUa+yhR30fZ5slKpmYo21yvVMOcymQBeXyVpBobpyuVQt+yamqsV/2A2ZSZ+Z1SyQHKZadLidnU3DhF6bqkMk19nK4l0zOVaa5TIp2MdJWoSbZZOaJcLoJgIeRu0Ls4QZirwQFaJhCENkoT2ahod0cuAbBnlEqxlJRUzi0TNClFACaTUzbRTzOnzVBdXYMD9lxmutKptBozTUqlBqjZOTok6CaVRHeac2punqz6hgFRfkqG7yAajc4hymRTymaalE5PUzoT7aILVy8iCIeO+Z1STePz7C0KNYarBhLwwCJy4fJLwel+ev7FV3Tfw6/q5Zee0wYbb6xxj41zX27w6zW0885/1qcffaEfJk3SzKYZOve8S3XYYQco0zRNg+eaXUOGzKPX33hbA+ecW+Mee17r/+bXuvO2sdritxtpwYUW1BWXX6UXnn9FSfXTbIMT2n233TXvfEN05623aPs/bKl0rlkJwoi2ztXh1KEayOinVoSTaaVLDBWQA399tVJZwQAL0aro1wwhf9VLiXopO0UNfebVPn/bV2eddZIy2UlKpwbq+uvv0vwLz69frLC8/nHOhfr7MUfp08/e19xDBqlfn8Ha8U876rIr/6FLLr5eG2+yuW645lbtte/2as5M1vnnXqrjTjheMxu/19dfTNdLrzyva6/9l268/krVJTNKZNE5S9GqMgemIzJw881bYljXlhhyLQQhWttrX6p+BlulGfSV3mc1d7R/1T7Xzv3EB7IuGa5euVx/FxXI5rJ6/91PNG7cY9pllz8pl/xRqXQfnXbyRdpxp100/wIL6tBDDtJppx2nb77+WnPPM58OG3OSvvt+vH650kr67zP/VV19Qk2NGV18yRmabcDsuvDCi/XlF9/q0KOO0IC+KX33/bd68rEnNXzYUlpyqSFKNVW5hN3bx6caLG01Pr2BIGQzOuHv+2jMIfklBmdUKrVC4b6yEnAEIZ+Q49aT2AKXVmOjlEkP0OGHXaTTzj5B+++/j04+6Uz17d9P5517nP62z0gdc9SJ+uMOf9GP01nDTUdruLlGLTZ0AU2ZNFkPPDxOEydO1ofvTdJSw4cql5uiIUMGaNNNN1bfPrPprNMv0Yorrq0VVhuqO++4Q9v/blvdc+fN2v73mymZmKaU2zpjBrtsT8INlUogThDqBmiv0cfq/BMPVZotdoWEqArIQaV1trkv/4IoQsKs9ydS+mFao24ee4/uvvtBjRq1uyZ9n9RlV1yuv+z8Rw1f5v80Y1qd7rjzUa2/4Xq6+KKLNWzxZTT/vHNr+V8O04orL6fDx5yoBx96VIcfebDuvetxLfeLZfXUU8/oNxuuoD//ZUt98uE3euqpp/XxZ5+paVp/fTP+C80+W51G/nUHLT1sYdUlIAgWNbAsqC42Nix1pBp049i7oyWGEEEoqVFGED785BvdePP9+n7SFK23/q/17luf6IP3P9SGG66t1ddeWe++/7H++8y7Wn311XT11ddo6pSpWnXNpbXu2utr8SXn0YnHXKAttttWH7z3P3311RfaeNMN9eyTz2rLrUfok0++0VVX3KB33/tIa6y5htb/9Tp69tlHNWzJ4Rq2xGJabIkBqs/651J0eAL8BB4MBOEnMIhlupDPEI9yfZujbNQka3f9dcZZF+naGx7Vuuuvpo0320iffvK1Ms3NWmaZhbTG6ivoqMOO1777jdHzL72sgQPn1ssvv+TW7PYayZbUjCZNnqnzzr1YTTP7afLkr7XWmstrk81GaODAfrruupt129gHteBCwzR0yfnVr6Gvdtxhe9166zX685+2VFI+Qagia/inP2Kd72F8iaENQeje6Jx7+1siqcZsnabPTOmwI4/XOWefqo8++k5nn3OWDj54tG659Wptu/Wf9cwzryjdJ63Z5xioZ594XPvtt7eeefYRrbjyspptwEIa+deRuviS83XjDfeqX/9+Gv/N11px5UU0fPhCevftj7ToosOUruurXXc+UKutvKL23Xc3NdRNU0NyhurddkK/71V6ih0ZmUAQqpBaWtncDDWn+umJp9/TD5Onau11fqWXnn9bb7/xjpZeZhEl+yQ095Aheu6ZDzRo7jk1Y0aT7rztLp17/rG64d+3aNPfrqLL/3m7+s82UL/7wx900w3XaeutttVT4x7XZluurvff+1IPPfScnnzyGa219ppabtll9PHHb2mpxRfXMkstoaGL9VWdS6gNV5Sr09NJitmMTjxmH5ekmM5MUIIM0i4m9T+/oY9yARJqct5cNpdSc3aApkxNaOXVttFpZx2mR8c9rKk/ZpROpjRwYFYnHHekTjjmLO22xyhNb5qpKy6/Tum6tPbY48+aY/Y6zZw5Q2eccb72P+AwvfXW/7TsssM0beoE3XnHTdr3byN13733qbEpofo+c2ilVVbS9KnTNf6rr/Xuey9rxx1+q5RmKMW2MxIbuWaJNwzOIprTKwgCxsUSE7PKkgGd66OpMxI68shTdMZZxyiT7a9LL7tEI/c8QP+46Gxtvvk2uummsRqxwXq6+Yax2mab32rihC/Ut19CI9ZbTdnmvlp3xFY64qh99dXn0/TZF99os8030m1jr9Vxxx6mRx55SJOnTNESSwzX88+9qoGzza3/PvuITj/1cNUlpimdbMrzAyJq0ZbJcqc1dnrEA0GoXIQktaaaNTOb1tPPf6SJ33+vTTfbUM89+7qmTZmihReeS1+Nn6ChQ4fqySfe0ZLLLKr/3HqXVl1pLWWyEzTXoPm06pqL6ITj/qW5hyygddZZW0cfdaRmTGvUL5ZdVsefMErZbIM++N94nXvBBdppl5214P8tqOuuu1gr/WJ5LbHYUC0GQejKwFrl0ugFd/YGgpBr2cXgkhRtm2MvEM9Ppwl5gkCyFoddZEn6GaRzL7hS7/9vqjbdYoTmHDxATz/5igYNnFPLLb+QVl5xWR1+8PHaeput9f2U7zXuiee09NLD9enH72ijjX4lDuK8444Hlc3W65HHX9dqqw7XHAP6qbl5mv46clfNnPmj8wIn/zhD11x3rfbcfS+9/uprWmH5YZpzYEopTRfJ62wvivbsB9ZeM33rBQTBHbDiOsQgk5SXVDbZXz/OSOrA/Y/Qllutq0GDFlRdQ0rLDl9dV17xT220yea6+OJ/as2119KjD/9XgwbOocFzDdDnX76vw484WLff+oAeeGCczjr3dI056AR9NfFzLTN8qKb92Kjzzzlb773zlsY98bhef+MtHXHEkXrptRc0+YevtMqKw7TE0MFKu/3vtCntEYQuRoNAECpXaw6NSk5XLt1XTz/3gV589WWtusYv9dzTr+qP2/9e3377oaZMTmqBhRbQjdc/oCWXXkivvPKmPnzvcy37i/n1w8QZ2u+QP+jkE67S7nvuq6suv1RLLrWUvv1qvIYutoRm6z9Ja6y5ni668Bq98to72nTzjTVhwkTNmPGtfjFsGQ1fcnEttngfpd15GeHqoQhCZL3yO+2VUkbHHz1Khx68ndKZ7yJHsmgEwQ8HhgGsXH3Nk8vvjXeJQCk1K6nnX3hZN95+j84775964bnX9MJzr2jQnHNp+RWW0yILD9Exxx6m40442hnU668eq/XWXV//ueM6jRz1FzU1ZTRjWh+Ne+RFvfPBO/rkg4+05557aNGh86m+IaMPP/5Yr770vssyv+yym9ya87RpX2vddX+peQf3VZ2aovVg29ZUSI4p07OuiC4Vi7jPqvXkT75kF4ALzOTSytXNrn0POFZnnj5aDbmpLVGbypWo+jsLe8Eib52o1YTvftRpp5+jRRZeVutvvokOOWS0rrr6SjU3Neu2227VuiPW1yknn6Hll19Rr7/xmhZbfKh22PGPymWblK6T5ptvfu28804644yzdd+99+vLz7/T1ttupWuuuVzHHHuU7rr7Nr35xusaudfemjlzpl5+7lltstFvNHXyBM3Rny2FbHf0dM6FUMstM5SzNe0rCts6c4k+unnsXVp3/RGaa1Bfl6Bre+0Zp4qCZ6XOFap+ZNp/oivrKTOncokmZZL1euH5dzR27ENaaviKWmXVVXTe+Wfokn+do5deel59+sypgXPOozPOvFCLLba0Pv/8C02aNF5jxhygCeO/0rzzD9SZp5+tOeecVyv+cjVNmjRJSy01VIceepDuvf9O/Th9hu684y699vJb2vFPO+upx5/UKqv8Ut9++6mGDR+qoYvOr4bMj9VLtSvl5remlvV4h5YV6zCnsULu3VkqbCF28ba0vnDnIHyonXY/oOpofwXnIESHYViqELuVI4Lwu5YlhqJzloXMfDdsO0zVw+hLt9w6bJVZzq3aUumz1bSnWGfdftB2pRB5ci0HEvGeiyxJi8m0csk6HXnUSTrmuFN0ykmnaerk6Uqn69WnIaUtttxUX3/9mX690bq6+5679eTjz+qwww7XwNkblM1N1zvvvq8brr9Dyy6zqrbYbh01z0jpxn/foq+++lx7jtxDN918k6ZOZWtjg55//hWttvrKSuSmqm/fnEbtuavqOKzEARgAYq8QLXIifL57pc+zKTeOpeRWrfLMGvVEU4PDhjgMhjzwtDtJcd8DjtcZZ4xWAwfIlAXFamVT5P58RAipuR0M6CGJrnV91Twzo5tve1SD5hqkiRMn6InHx2m33XbXwIFz6oXnX9Jcg+bWY489rsWWWFzjx3+lb8d/rSOOOFz/vuE6ff/dD9pz5EgdOuYwzd5/AQ2Yra+mTPleBx1ykK668lKtsMIKevXVV1RXV6dM8zTVpXJaf8Sv9MvlhivtjpC099g7QXmn9xdHL7Zntr5a/116T3xUHrkXORlBWEdzzdUvTxDyixuJKHG47TVr6FvlmlK+P7lsH2U5ITOdktL1ymWTOv6EE7XtNttr3CNP6O233tLJp56oH6bO0KefsVz5gSZPnqIJE8erX586RxDGHLq/Ljj/Qh13/Kl66413dP5552mD36yvXyy/rG668Rrtf/Bovfnm27p97B0aPmxZrbzySnr7zdf0xJOP6pDRB2juwbOrLjG1Tbf8cS5sx6y88z5wVflUebm1LbCz3o0ZXY4cwE6zIynKE2OL8pff5fTQYx9p510P7gqCwIRg0kQsgMqPP3pvF0Goax4fTSoOrCh6+RnvnRGc0ZP2xqrlSNgqRzQ/4aupw4xV9TWVIwjRYTURQbCdZxxA0uxOFE1r6tQZ6tOnn+rrOCgkHZ1oxxvoMk3RfvREQpMm/6hEIqk5B87mDCrnGTQ1Nauurp9ylJ+erFxzWql0XzXNbHQHm6Q4wSxZp2z+8Bp3+FKm2XmDvBXM8dEC+HPyomWVV2krO3JqSTWn51lzZpF6HMUqnFLJsKeUcwThWJ1xxhg1ZGdUPak7opXRudxZl/PiDurOH46KHnHi5pTJGfUf0FfTpk11+9AbGhrcMdwzZ0AqE46o1qVTmtkIaU25cw4aG9n33sfpcmNjs/r3G6Rcrlk//jhJ9Q3RYV7JVMqRg8aZ7NZguxxEqVmpRLPShYO57IU7JV5R5Kti3MxUqQdRrkMf3XzLPVpv/bU1eK6+SuY4l8Edc+nemVE8itEB+zaL63Ui28fpSZbDrhKN7veZM7OqT82u5ua06pIppRsa1ZzJqDGT0YyZjerbr59SLF9lMGjklDRpRmOj+vflfJfo1NhMc6M7Zjuba3b6kUym9eO06erft5+zQeRTcZZCv7510cmw3rbAokjk9ONnMD7ZPhI7f/JHm9Pn5kRKX02UHnrsY+3CSYpVXlVFECJvJ6vooKRtlG4eH8k9dr55nop7wFtlq4rdXm6AOzLZ4vWUrcNOdOtEf8rUgYHyt3ZZtxxBc2F9DpLhxEPvlaDufHNOXOY7DpypV3PTdKXdakXCnTzGJOMmd8hIJno4gXfGoTbOK2JoOV2RHRNT3cmp7qSz/NscWl62XIxIVcKAOzBB2/oFFQh+FquncCRrvmuQhboB2vegY3XG6YepPtPoji1uuSrpXyXjERMl74Bw9UASCOtHOSZRilHaLX0A9BnAO3+0eja/5ASxdC9/hHw6xYlMQlNjo9tqC2nlGGZePRu9YS46itmZDpqaTLnHcol0ZErc8byc1kgOjnPrKxj32twSzbM+uuWWuzTi1+to8KA+SnL2gXujJvOGhoZdPJHBiOxhlpMTOUnTnZyYP9jKyYsTXrNKpDjYiNMV7VRYToiPHLqsmgu7eF0EzZ3azGFvvDQr60hoKo3uNEfPc2EH3SmbrhHR8dfhipYiseWQ2Dxp5lVvX05M6uHHPu6qCEK0P7pA0nMZnXDMKI0ZvZVSuYm8NiBqmDN08YlcYmK7uZY3dO6W2HKEMwhmCIuE/ys5T7zwmNWT/8C3r+7ADF+zvOMC88pX0F7XXn8txW+/GXfvvO5Wzbd6DFyLLFUU9rrnX1hiywz5Y3jzb16SshHQR5Ok5e149u6yqD+w8/wWMWe02XnAC59oX0bKwDT5HWUyhcofqesmOGu//J2f7O6cdQrmZ/6wJHdfkfFtY8xjgFb8/a2xomLlVvROZavHq69VMcWAtVw9ed1sZXwq6E85YhPvjzt3wNPFhv7aZ/+jdebpR6rBISdjFBnDyq+4bvtP+vPLPve4NQ9TAAAgAElEQVRBz+ZykQhg/E2fBb6Y/8X1Jd7WfDmmh4VQlD9W3m6ognw8YuRu9dodNw/WjTYvhovNNZO1a2Jbebqep/rr5pvv1NojfqV5h3BctO2mwARk3Bsd270KbTOb044NsoJambz4c2Zf8j+L2bZ4X4rlCBUxpa36UfJ7f5w8O5og6pMnhs42RjtNokTXPMlzoIU9ishnpBv5I7Q5Itm9A8R2RZk9y9dh71hwY5b/zn2Vr8uRhPhLvfK6V9Ah86TakV1BXWP3xqeMr9bxA6SKyi5uK3wMir9VN96+YhoWSwyPm1/XJgfI+bFgeTqtLydIDz3ykXbeoytyEPK2wkwGDTjuqFEaPXo7pfW90u71ktGbo6KBLiJVT3kL89y7Lb7G6o7WbKWTLbWXmpgtr/JsDRBWdeQNxy7vVvf2w/zNhS60iozE3qmbP8q48Lpa996C1nUUWp2vx63dGwcxBWvzZj73rjM3yC1nnUftjngTE86sst2XF3yeWLkTD90LTsyri4gNb9XjBTvuJ3kljgCkozerFcYoExnBwhn4ea6Qn6QsZ7iELfe9WTUv9FsBDkdtyb9MttgJcm2Imzdu7WBkq69c+LIYEBbTIF9pPePsfo29iMyNV2sdM0+mlG62fB6f0dGguimdSCrFi7nwx+obdNCYE3XKKUeooTk6C6M0OWhvbnj1FWuyNcydddZy2EwkOZwCno9eH4un56QByWx12d/593W4CFe0ITHKqfCvOAnJ63XeuXBHLBdiVi3PRe+5R+0BhHwZJfQAOfpXfFtk2xyF1r2JoK1B/7n9Xv1qnTU1aK5+qiMjI/82QTd3jOjkHy0yqjGFbf+OVg5SSfVsR/Hzs7v8WlR7pNFsd+X15NiGmid7vGshakakNcjdzXG368nslBEEbmQc0RnTbY8EFGyPb5ei5S9zhNw7ZZyOWRNaZOxeqVwgaZX3p/T8ra3cOlpPXHfjus2pli1OI+9N4VSElL75PqcHH3pfu+zBy5rK6WLr1pVfYvAIQjTtpb8ftZ8OG7Ojcs0/qI6Qdh3rkHmAbWXwo8bEwTt6Jaw/h1oPovvL/8i9/bXMNCy8rjb+cORtt3m6DTD77Yz0sM1TsUIIgflXMl5m7G/kEH8nuXt9rnfZXy58GwV8W32fAvgTZJmbdWLPul0RK8WYuShx/hW7rk6X8JXvQHKqS0DLucgPa8m8QY2vmxxQuLJdu6KSkb0jBu6P6Oz1Qlm+51JuLlozHeZGN9u4xv/2u1R6QpX5ppq5EGt79FrafKTG0+FW7TUdKdKfki1rI6OssomMy/3g5YiQu2w6of1HH6dTTzlCAxJpNdk7cQv9aU/QvpdSrBW+UFrK4UCt/ADnZ3lk5lvGOXohjvU/P7MLgS0HAZ5+26t9W7Ugv5RVUIP8/GgZe//lTD7cRQDTqj0UUkQMcTsRpyjldIklFN4rQARhxHojNGTuAUpyzDiRO0fkMkolWkcQqq2jct1oxcHLNb3y74upTwvXr7wce0eGOSwFW2AUwTTKs1CFe6KodLLIkqv/UZQRE4v2FOyq6XJL+Twbt6k1W6EqJTfTxWrsTSkpl5raRfCojd5B2NyVdPqKCW9sbtLESRndc/9r2mOPQ6O3aFZxlScI+SziqDHRwO+z165acrGBysyc7NasM2UAv81MbgWc+ZcKeRBuNZl6lWfGNkIt0i3gp7NqGK9oqaQwhkU8d+fXFryZaMYUVkJc120W5VuWf795voroWRKZXMQ4/057bzCcV9YmrBm1tFBPfp2tlZ4QRcuX4/b8upej5KMCTliwa25g/ZdtLlGkwXlcrhcw/eiNasiA/9wrpZMkAtFe5ELrSD7MKMvZ+3nr66IReaWL+hkRB185HYEwyeYb3npSttX6Fh7Z3qwrpsmlZ2EbIhrTs7altTej2/uuPYCutj/R4JN7AodL5ZrVlMzq1jsf1xabj9AAXrBlYdgqJnbVtxYGjIRAezqip/ydQofaDd/nQSGvLyQ3xi/3YjfviuaLBx6OQFh0ipf2FOhylIdRwTHfRqytmjhhsK45AljE6cjmmlRX11fP/PdVLbPsMkqnG1Xn8hMhBeT+NLlkYf9qU45nF+IyiCJnxXWrKKkqRNtq94ybx0XaWEombfqQl1207dkb50JUNO/WtDaX0Q6ovKGLxp5cFc/a49C4yiKdcITT67aLdLrG552LfMPiO+3bksTis8FkUGm/fZ2KXmve0rhyZZQc25getldOHDva6HbBa4zmULZ5ptJ9k5rw/Qz938Ira+Se+xRNF2zPVlRAENo+fswxx+jvf/+7+6JYx8t5+1Ubr/BAr5JAW5JTPsLTqzowCzRm33331TnnnBO9T+NncpUzgN0phmuuuUYbb7yx5p577u6sNtQVJFBzCXz77bf6z3/+o913371sJD5eeYcIAuTAJwiBENR8TGe5AouRhlmuE72owaNGjdK5557rCMLPZX71ln6iyxCETTbZRIMHD/7ZyL8XqX9oSg0lMH78+AJBqLbYDhGEeASh2krD/UECQQLtS2DvvffWeeedp3S6ujXDINfOS8AIgkUQegtx6XzPQgk/NwmgyxMmTOg5goDAwwT6uald6G9XSoBJbQSBQ4TC1f0SuPrqqwtLDMG+db/8Q421k0CPRRAsoSJMoNoNZigpSAAJhAhCz+qBEYQhQ4b0bENC7UECnZBAt0cQqPDYY491OQiBIHRi5MKjQQLtSCAQhJ5Vj0AQelb+ofbaSCAQhNrIMZQSJNCrJBAIQs8ORyAIPSv/UHttJGAE4fbbb9cee+xRdaFVJymGCELVMg4PBAlULYFAEKoWWU0fCAShpuIMhfWABGxnGTkIEIS//vWvVbciEISqRRYeCBLoegkEgtD1Mm6vhkAQelb+ofbaSACSEAhCbWQZSgkS6DUSCAShZ4ciEISelX+ovTYSCAShNnIMpQQJ9CoJBILQs8MRCELPyj/UXhsJBIJQGzmGUoIEepUEAkHo2eEIBKFn5R9qr40EAkGojRxDKUECvUoCgSBUNhzlXpJTWSlt7woEoaOSC8/1JgkEgtCbRiO0JUigRhLwCYL/Bjx+91/gxFvleOuhe/NdLld4A2Imk3H32SvJuaepiTcVRiczNjc3u2Oc7SefGdj679Uo9jruxsZG1dfXF57lfnu7nbWF8uxZq9fqsnt5jnbSJuuHia+9thS7x68/Xo/dby+Wi7+FLz5kfB8IQo0UORTT4xL45ptv3FHLYRdDjw9FaECQQG0kEI8gGGgDXoChEQUAlt8B+1IvzOIengHUjQjwk8+MRADs3GfAbiBq98RB3nppRMTqBpwBfH4aWfDrsHr5zkDdr8v6xU8rywgIz/iv6OVvyAr1+UTGf8Os/7n1xWRghIp6uM9eLx0IQm10OJTSOyQQCELvGIfQiiCBmkkgThD23HNPff/99w4QLYLQv39/XX755brtttt04403qk+fPvrxxx8LQHfcccdp8cUXd9ucAL0555zT3QMQbrfddrr55pv16aef6t5779WIESO0yCKL6Mknn9Tnn3+uP/zhD64v06ZNc8SBfxdccIF4DTVEg3/Uf+utt+raa68tgP3UqVN10UUXaejQoe5lUyussIK7j7Y/8MADOvLIIzXHHHO4dh5xxBHunq+//tqV/bvf/U4LLLCA5pprLtfexx57TDNnztQnn3zSqg+8tvbf//63fvjhB9eOkSNH6s9//rMuvvhi9zf9mzJliiNM7P9edNFFXTvow8CBA93P7bffXgcccIDuvPNO1xb6Sd0nnHCCk2+IINRMlUNBPSyBQBB6eABC9UECtZaATxDwfMeMGSMA/+6773ZgN/fcc2vrrbfWI4884kDUvP+DDjpIZ5xxhmtOQ0ODA76XX35ZEydO1NNPP+3Aj38AO0AOOfjggw+0/vrr6ze/+Y0DcQzKlltuqeWWW07bbrutDj30UFe+eePTp0/XpEmTtNFGG2nGjBmOeFA+R7BvscUWGj58uCMbtOOdd95xoE35N910k/t9wIAB+uc//6m33nrLgT9tefbZZ7XEEku472kXpOYf//iHTjnlFEE6iGBQP9GC2WabzdVnyxCPP/64Tj/9dO24445abbXVtPzyy7u+8j2vzO7Xr58gFURZ1l57bSfLsWPHOmLDZ2effbZ798WgQYO0zDLLuM8CQai1RofyekoCgSD0lORDvUECXSSBvfbaS+eff74DKwjCZpttpqWWWsoB7vzzz+9AEnLw6quvavLkyYWowsEHH+zAkss86VNPPVWjRo3SCy+8oLXWWst9t88+++iKK65wXjQe9iqrrKKHHnpI3377rfseAsL7VgBfPodoANp44EQb1llnHff3+++/r3fffdd9RjshHNyDJw5IA7Q8y/on/aE+nlt99dX13HPPOTCHsEAKIDyQjYUXXlj333+/ll56aV155ZWCkECCuKiDtlM2ZAISACkA4On3XXfd5QgApAJis+yyy2rVVVfVVVdd5cgG0QwiFjvvvLPrP+2HIPztb39z39EeiNU111zj3uYYXtbURQoeiu02CQSC0G2iDhUFCXSPBHyCAAiOHj1aJ598slsWWHnllbXgggtq0003dSQBb9xyAPie5QP+nm+++ZxH/8wzzzhvHoAGNK+77jr9/ve/d2F6lhOIGkAS8NIJzb/33nuaffbZ3XIC6/MAKMBOKP/CCy90pAVvHpDG+ADkRA8AWNoIUENKWPYAxNdcc01HTu677z4NGzbMkQsiDNT72Wef6bXXXnOgPXjwYBchALz5HsJwxx13OAJBfZQLAYKAPPHEE3rppZdcWRCErbbaykUiaCsRFsjHNtts45ZMiIxQBhEMoh4LLbSQI0SHH364W6aAdK277rp6/vnnddZZZ7m6QgShe/Q81NL1EggEoetlHGoIEuhWCdgSA8BG3sEOO+yg9dZbz0UMFltsMRdBuOyyyxzwWlIeEQNA/ZxzznHRA9vBMGHCBG2yySbufkvUA8hvuOEGB/gsW7D+D5izDg/wEqXgM9bnyX/gXoB4ww03dHkMBx54oKv74YcfdqQCwOUib6Bv374OaC+99FJHRgBolh0gNnj/Rhxef/118Y9lis0339yRFeqnbuqDQJx00kmad955HeGBhBx11FGuv5RLW/D8ITqQAXIxTjvtNEemaAftIgfjzTffdGQK8vSXv/zF5T2Q1U1UBXLw4YcfaoMNNnDP/Otf/woEoVs1PVTW1RIIBKGrJRzKDxLoZgkYQQDoCYOTTEd+AWvnAO3//d//OdADRG0tHvAHMIkU2LZHyAFLBSQHUgZgD8CSpHf99de7XALKxMvnmf/+978u8kBofaWVVnKeNBEIwvYsGwD6kBYiC9z74osvunawRECb8e4Babx9litOPPFEl2cA8ALU5ARAHlhGwKOH8BA5oG/8ztLGPPPM4wgOAA4hgCDQ5qOPPtr9zZID4X8iDOQxkKDIEsSvf/1rl+wICWD5gKgE9xO5gNRwL9EJcg2IOPAcSxC0if5BliAPXCGC0M0KH6rrMgkEgtBlog0FBwn0jAQAW4ALoMTzZ41/ySWXdISAZD7W1L/66iuXyAd4AoYA/RdffOHC/BZVIAGRBEN2FVDW//73P7csgdcMkEMKKB+CQPif6AHEAXAmHwCv/cwzz3Q7BCAEeOREGgB4Ihl8Tru4bMslSZF46ywzUD5LEOQhfPzxxy4XAfJAJIEdGL/85S8dMSDqAMGBeJBIyD+WEwBuoiXkBLBsQH3UA9lADuQLAPaQIkAdkkBSIjslyIdglwbLFpCKY445xuVrUA6kAWLzyiuvuLZBGmgfyzVhiaFndD7U2jUSCASha+QaSg0S6DEJ+BEEa4R/boDt2bfvAGKADsC0NXsDbNvjz088be7D07ddCXxGeQApeQj8A7Atr8EOMfIPQeI7lj64IAyUZaSEBEE8dv62aAO/26FIdu4Az/pnG3Cv1UnZtMP6A7DzO//8i3Jt6yfl2+FPJgM7N8I/G4H+0mZrj8mS5RR2WASC0GNqHyruAgkEgtAFQg1FBgn0pAT8HIT4gUL+koKBPG01kLYtiQbo/mFB9qzdbwcd8Xf8BEX7DkD3T2/0Dy6ycuKgbfdYm6wPlgNhSyD8bTs17OAiv39GIOIkyXIs7Bk/gmFtta2f8TKsr/FTH40IBYLQk5of6q61BAJBqLVEQ3lBAj0sgfhBSYCXecjWNJ8c8J0fVTCP3T/FEI/cdiD4hMC/10iCD9b2mV+f/7wP0va5ee4WFbCTFa2NBsa0ic98AlKMtFgbudc/hZH6rF9+3RYxsLZZmRZFsdMX/QiDPRMIQg8rf6i+phIIBKGm4gyFBQn0vAT8CAKtYTsgyXoAPCF1tueRSOiDmrU67uETngcgWZu3EwZ5zk4sZFsjOQqUaV439ZCDwIWBMW+bslk+YInCDmjiXAPK4lnAmnZxH39TN/US0qcPbM/kojwSJOmLfwgTz/E835MnQZ+pj1wK8h/soh8G7n7bWILgftrkEykjCLTTSIofTYmPuJ+kaOTL6iOHgURRn9SQD0Ld5DIgF/pKjoZdyNbOcrB6ScikTGTESZM2vmz75JAqWyZBpizbQKpYArHL3mHBsxapQZ6MHdtUaY+1nYRRyiMh1C7KYwwo3yeB9IGy+Y7lKPI5+J78FQ6Ssn5TL79TF+PDVlkjhH7Uit0h7MDxSZvVZzrBd+xmsaUpcmriy2iUjU6ST0K7TI9stw5jS7ksFdnl6wbbcLkYB8qgX+TcsC0W/fTfVYL+IHNybbj8JSrKjL/vw3+XiEXL7Lk4sfbnqd3DM8wz2oH8/TEyXTe9MdmhC/TF+uvXgxzpL21l7NkuzGFhpdpSyuIlcn5csQK7yO0kLpEZbQ2uttIKqgm3BAn8rCXg5yBgPMiwZ+cBBxd9+eWXbqsgWfg77bSTA2B/DvrhfOYoZwEAHNwzbtw4ZzjYGsjv5BqQCLjLLru4JD4OCsKosIWRY4ox2pdccol7nnI5KwCjybkK3333nSsHw0aZHMIEaKy44ooFsMMosfsAQnHIIYe4BEoAjL9JVPzFL37htkqSIMkWRxIiSUCk3Zy7gJ1h2yO7ETia2QwqZWEYKYvzGNZYYw1n0DkBkrMOdt11V5cA6UdHSLJkJwfPlLuMIADitAU58I/yOIaaJFEAGPkhL2RF+9lxwr9bbrnFbU1l+yV9YwsmIMrzGHwMNsAJSHF2A4Yeo875F5xRQTIm30HekAGX7eKgXvrOVs033njDJVZybgQ7TP70pz85OZB0SjlsIyURE4KCHiAfnqddXOwkIbEVIsE9bHl98MEH3W4SZACQcv9vf/tb1x8+44JokBhK8iw6s//++7stqcgK4CJhlkRQQJ1kUeqjLBJa2SKL7qAD6APjxefoA+UDvrR/jz32cM8baSW5ltMv+fnUU0+5dnD2BWUjV3bC8CzJrZZ/QwIs7UN3OQOE7bOMBRiGrjJuJKcyFyAYyNjIJcm2RtT++Mc/ur4y1hAJSB395R9kinIZU77nQDP0E/KB7CCT8cuP1EEI+ZudQNSD/Og3ukWbaLdF2iiT3UXMR/rJ3+gbukMZ6Db3vv322y5RGLkYQUCe1V6BIFQrsXB/kEAXS4CJzi4CttzZewHYLohhAGwASwwaXhlXMU/YQvqAA6CDEYMEGEDyOf8oi9MHOT8BgMFoY+TYOYDxhDxggDHYv/rVrxxwccwxBhgvDlLB+QUYNjxmDCq7FHiW7zH6bC3ESNEGQBZPmbIw9JTFToOPPvrIEQzuAdggIHiwgDokAxLB9ksMPqAGKaKPgA6Afc899xTeB4HhZ9cD4AkQcWFokd1+++1XIAjVRBAANbZEYnA53RFZmudmgEDkg7YhR+SJx408kDmkin/sGKEMdltA9iB97OwARDnUirFiWylbQ+k3ZbM9kzKok34xZuwAgSByiiXyZ0cHR00DVMiTfnNMNjtJOM+CCJF5uRwQBbAB4LSZOugTFydccuw1BMvOrOD8C7aO0kYOpkIOABRAC7iydZZ2EUGgPegtBAnSYG/+tKgWZaJDnGMBqYSwQJDQB4ghfURHOLeDNkCcaDdjCnBCnE3nGXtAj1031ANI2nf8TZvQYw4O40JnAVPIAfWw9ZY5BNlmNxD9Ouyww9x2XsbIjvdmLB599FE3HhY9gbwyfpA0ZM/ZG5x2yu4bCBayhRgwn9gt40ebrI1mRhgv5AbBQGb0FX3lIuJGu+kbMqMcxtMiGhAq5M7WYS6+h8xBBtHDQBC62FiH4oMEulsCcYKAocLIYKQBdbYn8juGESNpYVlrpxljyz/AA8UIYRTxfAAFDCEGCSONh4J3iFHHSOKRQwoAbIwrng2GELCmPrwjogYYYcCJsjGEGEaMEqSBcwjsSGaiHHipvI8BDxCgxqtjCQFDhmdN6Bivlc8BVQw22xcpBy8MYKCtHALFqY5cEBDK5ChlABFvFE+a3wFqDDbGHQMLOAOylGMRhEoIgi0D4K1xVDOkhMgEIE7/8WABSACDExpZBgFw8P5oJ31FzgArwM4ZD4TkCWsDMJQLYGPk+Q7CxNkVePOAO+BIFACPHLKGXI4//ngXUQKwIEwAK22CaHAOBH2GaAG+gB3ASp32dkzIG+CO/iAj2g8Q8Y8tqXjn1AXoEeGhL1xETagTImNbU/GyAV2Amj4QUQLsCZNzD3pCG/DuIXVEC+yFWjxDP/gbQsy2XttJg95xeBUkEXJIOxlr5Glbe4nEQG65FzkxVrvttpsbXyJd6D1/cw/RDuYJnjVzBxlAsiEj6AdjyRki6BT1AdIc940M7WVflkzLT+SELnLQFm1HXpzNwYmc6DiEl+eIAqHHpS7b2ssYQFioF3KJHLmMpBAp4F0s9Ad9YpzpD2MCIWDM6Qs6TTQNfTSCwHINuh8iCF1oyX1jYkzcX7fzf/ebYWufxZ4p1Vx/rclPouJ+ywJvr6t+Xf66n61TGoP119X4rNR6tn3n1+n3N16ftdNf6+X+Ylvz/PZZ+dZOnim2jNWeYe9CFejWopngGAGMEe9CsCOWMUgYbYwkHhb/fMCLjxEAziFJGG0MCEYWckDZAC9ghvcIUAEghHrxligX0MdLxRPDyGE8iSRANPCOATQ8d56jfLwewt1EOjBG1IfhxLshAgJx4G8AEdDikCWiDYAqY4rBp33UBVgAkpAV2sd9EBMMIm0FFOkHXhXePfVCRAA1SALADVHghEbaB8ACIHjoEKdyeQh+DgLPUy6eLp4thAnwZzmEcykAL8CIfvA9IWOAjTbiLWPsAQ7KhBRAhiAzeNo8R1sBLMCX5RTAjL7zHIAJuAJgrP9j7I0gIGPqoG8QIAAL2UAwkAHAyb2QPQCbeWX9ZokA2UE8kR3LHXjbjBV/0y6AiHbxPOVzvDXjwXOQRUgj+kWdgCngjycMGYJsIB/aTh147cgdbxuygs0g+oAciKYQjQH8jPgR6SHUb0tQeOZEQdA99ISL6ALjAMkwm4AOotsQYZ5BByCQgDhRF+RFW1gGo41mx7DTEAQu9JQ+saSFTiE3CJjZXogP+ggwo9dEXHgGcIcUMIZE1JizyB3iYEslFkkw20aZRNgAe0gHhJnyaTOfQ5IYDwgAZAWZQADQFcgzwM9JpZAK9IkoD1Ep5M7SIBckLRCELjDfcaDmbz+T3JJjLGnFjsVlUvtbzOLkwU9iMW+P5se3ksVB1QfLeEZ6OfD2SUGctNh3VkaczPjA7q+d2bq3kZj4trH4vX651jcrw77z189LGfFiRKYLhr9Hi7R3MSADjC9eGmAHcBJ+x+PHS7bL39po44Es8fAI70Mi0EsiBBhUDCdGDfDDU8UQY9ztFcoAEnUB1oADxhOiQWga4CJ8ihHDKwao+IzIBkae5/A60WcMFaCDQaNevCA8SsafPAd7JbSde0AEgTopi6UGvCpkgZcJ8JIgaEc/AxbIh78BXwAD75cyID4WquVzQBNCY2Fi81T9XR3+gPsEATkCGDwPmFE+ERGiCNQBcGHAiXxApjDQkB/+JoQNoNJXTn7Em0Ve/MRwA5CQCML4ECFkx9IIQEG0A3BgCYCxAWgpC4IF2AEgADueOfkPkDlAg4RJ+gugMGaMkZ0fYfMN+TNmRKQAOogXJAhQQweIlqBfyA4SgNfNGCBrog/IGZKHfqE7gBt9Iv8BwIIEoSMsj/A3OsZYceQ2Mud32kL/IUiQUossQK5YfgLUAE47XpwIErpkZ1XQNoiseduMH+NAlAC543UTkYHAQUb4nbZDRoiaMSa014gXxIZnWaaBHCA3gJ420Eezk0TGmAfInZ/2dlDIIUTQHCR0kLZyJDjypt8W1TOni/lHtAFSw1yg74w7esS96Agypj/oFGMD4SBqx++MH/JleQl9IHICabGTQcMSQxeacQaViYkxYYLBDPmMAWWw+Z3PUHYU0/dsYae2lYrPUQQydvmdz5nQDB6Ka+CIAWIScA/eGgrMRMOoG1hiSFECPifcFl/boiyUx7KZAQ48Ay7Kt7VjvqcelIx24FHA7JlEsG+bDHyOJ2kXz6DE1IvyUx99pz8os2X3sl7MZQlQtJ/PkCP1UQ/KjfwwGpTLvXb4DvJDxpZNbGSM8DjgU8qwd6E6dGvRRhAsmoLxwItBJ/Di8QwBWjwyvHg8eoxaPLKD3ABVxpSxQa8wkBhfABt5YkyoB+8HvSJHAHCgTkAG74uxQg8AQ5IkuQewBEioH9DDg8bDJLEOwKFu1lTxZPE48e7Qd6IEvLuBdgEOgCPjCdhSB2useNGAC2CJUUd3MOYYbbw39Il/9Ie6qY8y0G/0k/ZDMNAzdJV5BeizBk4UBuICCHHFI1t8Ft/FwP3Ua3XgxQLCeGyUST/QWXtdNWQA4CLnAE+bNvEstoMICzYAQAUYCHUzBhYFYOw5Sps6GR+AkLA1wMF4MO+RC949niOeIn1EL1jmQdYQQECFaAckwb+MYCMjfmfOMbOWoooAACAASURBVGaMCeVQLsSEMceTByAhaoAqOgjgMRbcg62BsNInlp8gAhAN5MFztIe2snxlSxUAK2NL29AhnkW21A8gIxeWMfieCxKE3WBZBoKCTMyOQRCIoPg7YXiGv7GTBqg2L9AX2kc9jAn6bC8SYz4QpYIoIA/mCfpmSwssF9BvCBWRI2SFjPiduYW87W2ptAEZYCOJZEBCWCqypFbkbjtMmJvMXaKGtBfSgUwpk+fMaaI/2FhkY/YZIgExsagKz7DUBaFnfLiwoUSDwhJDjU04QsdTsxfJoGRMNpTa1nNRXtg8yT1McgaTyU9oyjc8kAOSqWB5DDKTBo8BBcXYoywwV0LH1IOXgKHE+8OA8B0GCSbPWiNGGmaJxxDfQ47S4EWgoHh0GG48IBgo92K88B7pC8qL8WQi0w7qwcjZVjNCxyipTxAweig+hp8JRB9g1fSPCYyhZ4JhLMiqxiOkf9SBISfMyk9YLxMMI4MMYen2rgBAByPNhCVcSniYi/ZiICvJRK+xOnRrcX4EAX3Ao0TmhCyRlxkXDDbGFiOPbOxC94xUEX3gd/QZI44HTJl4hgAWxhejzYWxgigyfugaRhPDx/MWFuUe2mFb99B92kQuAd4az0JKAXXWuVm2oL1GHjGO6BceOPpoCYfUDxhaOJdxx0jTHp7HIwNEIRhclMP96LtFE+g37cJ7RCcNDNFr5gSABxEF2JlH/rKbP8BxgkDd6DtzGzlALvA2Cauj/9TH+PCTsDDEGpCm3eRacNFPcyKQJ+NGVABAxKaY88H4UA9eNd4hZTB3IVLUyXykDxAu7A8ypzzIGeDA/ALEsR0AEu0zefl95H76bxnw1jZsE8sK2A9IB2OJrjAO2BLmLuVjJxg/2koZyAhbgr0k6kXf0BXmOG1hrKgD+SA/vG1zuviO9iBD5ja2gH4QhaF+yCQyYF6gr+gbiYAQKerz7ZP1Fd2GBEAsTHfpr73oi3KJ3vAZtov+QGC5n/KRNc/zLPrOGNFXy+Xgc+TuR5Jtm6d9R9lEeyHK9p4Pi6DQTp6l78wTnCyeM7KDTJGRRR1oE+1BJqa32AX0BbnbfIBYEdFBN32CELY51tiEY5zwkAiLouh4CjBplAmvgIuwHp4cE5log00y35Nj4FBWWCLKyQVLZRJhPJl83I8xxigC+hAEFJVnCathUFEGAJNscRQLLwsCYBECyrV6UXQ8P4wPF2E6wpcYRdg8jB3gZt0SA4IBhWmihCgS7YqH8i08CUFAIWHeeLCUSd8hHJTNhYcJgWHbkK2FwfZpE54IXoplHUNYMPKsrcGSKdvahmwhXtRj/TMZF/P8aqwCPVZc/HXPZuB8Q2iGAz0FCDBw8eUh7veXH8wbMT0xGdqyhF8Pn8VDovacb3BtbdbGxerjc/O+aIe//mpG3F9iMoNpdfrLdDb21k5++ktavlz8e/jc7rN2GQmivdRlbfAHO77E4N/jz21/zvltsGVHX742n6xNyMeW++xZ37O0300e1oZi91jI3m+PP0/8Nvu/U7+/vOe3zQc7AyQr068nLhv720iqb0f8sfHPHfDLtXtsJ45fnsnL9M+3AXF7FZ8z/vcG4H4bTU98+ZhsqBdy4Nsgfwk0biiszZRFP/gHseHvuN2K65O1s9h88sfZ7vPLs2PMTU7cg2MJXoUIQo3NOUlWMGjWWgFcWDMAB5M3doxxBsAJk7OtCIUifIXn7RsHwvCAHuEgBgwQBPzwiCzRDDDHayCExH5kGDsDjLdDFIHQIQlrPA+wE+6CdADGvnFCsaiPkBXPmqKhILBwko2on1AZYVHCuoRd6QcRDKIdhNPoC0SC3+PGk/v4HmCHYOCl0j/AnvbRL6IBrJfhMdBWvAgSl+gv0QSUmIuykC2yMW+VCAmsmsgHXq95FqxZ0p5iRr3Gw9+jxfknKZoBMSC2o4994DdjaEY9DqhmCM3bMU+4mMGPkwi/TB+c4iBBHfZeBDO2ZmCLjZdft5Vl7YwTbPvbiEX8+1JA7RtkAxwrw8Cw2ED7BCFOmuz5YkdQx0HKl2UxQlusXwaQBgb+PX5b+bwYcMUBp5Qi+yBmcrL2xgmLL6ti4+bXEQcuv554++Pkge9NR33iGScE1gZfVvZZvH2+bfSJTjEy5bfPdNd/3sbEn3vW5lKEtRgpKFaPtdsfA192PnHwddiXhcnJn28ss0EQcPyqvcI5CO1IjFAlGa8AJ4NGuId1Rbx2fqIQAC33sfZEyNAG15SFnygToEvGLdEB/matFwJCyI6QHsYG8oHHzX143XaKF5EFABKvm+chDnhBhK0I8dvb9HzGCaFhHQqiYYbEiAXEBKNPaJKEFtaeYbd4oHjrEAk8dr8vvsKxNALYE8IiokEoksgDkQEiLNxL+JOQNm1kPY0+s9zAUgJLCxAEZMM/SAVrrGQWE5Ww7WzIBsWmDpYV/FDez5Eg+KCPPM07j3syvpdWzCAXM4zFvMB4NMLk7wOAgZHvicXBIm6gfUPuGzrKJdzq7zKIe32+ga9EB0qBa7ln4697jpdj7YoTAJO99Suus7Y0FDc78THzvXqfKMTr9ccoDn5G5vzITTEQM32IA6uVFycNpUymT0z8sgzo+WlRJQPYUuPrky8r19ebuL7xnRFZKzOud7bEZYDNz7j8SoG9P8dMd/zojw/McSD3CUK8v1aftT1OSvjbfz7+e3zM433mb4sgBIJQLT0qcz8AB1iyvokHjEcLwFkijU0s1twhCHjhxRgcnwGgJMewTmfP4RkDgqyNcg9LGUQsIA6E6gF4BpdkE+omgsCyAqSA5QDWU0k+sSNofSPGkgZhaosgoODmwbNsgmLhsZMkRQTAJhhtZP0KcsIzRBggEKaItJ39tZZnQduoi5wLyA3t5OJZiBPlQRq4WI5hGQLSQr/I74AcIRMSjaiX/kFU2FJGTgQRByIQrDXSBtZYaY/VUeMh7zXFxSMIZhwhmngEZtwwLMgLQsf6pC1XGUAZ8LB0xTN4+EScDDwYLyJWkE6+R89ZM0fe6DP6aGPPGjHRM4gqpM4Hd5+cMmaQOh/MWCuHyJIoy3xhKYnoUtxrIiLGPLBkQEtGNfJgmeA2UMWITXwQ7Shhy1vxdbnUgMcJgs3ZuAFmuY2ImA+8yA/Djsz5yc4AbAYARWQPAkzEDX1n7rN1kXH1y6GNkGOifHFQoS4iiewSYNx8WTAfyV2y0zKpl+eZr+QCEJmzBGsjmeR04HBg7yjPjvqFrJMjYAnHxULj9I98COaztdNfBqCP6CdODo4By6HMf8YeXaSdnDuA3vmRMfQCHSPiaXkAvq7wO8u6JP6x5Ip9RbbUZVtC6Sefs7yKrFiGI/+LpG9yRLg3Pp6USzssWdpyLGyZgPv5zHTJzh5ADuZk2ZyzbbrMGcYX2WNzkSNtQi9x/Bh/ItF8zrKyJabSFnIvsMU2Z6mDsmgfY0qZyA6ZM07kI9g4mE4GgtBFZp1BN0AnwQiFZFBIrrKEMDO6TFgG3y4GzowK9zAxAEOWHowFMqgk2uDJM6gkeTHYKDAJMmRvoxgAqb1SlwnB50w8wvJ4XHaMroEmzzDZ2fNLApnVhzJTLp46dWPwSQZikpo3ShtJMrNdDnxvrwY2xYfY0B4UFyUni9cIEoBiBoIySNoiO5lnAQWUGNKBDJEZfcUQ8D2JiRgq5I6cIAOQIgiIMWkmOtu+fHDqouHv0WJ9guB7qRhTlllIdrUxI/mJsWQnAwbVSCodwEDyOdEdDJadyAbJ5HeWoYgiYZSoh6UrltSQM0tEJHHZq5EhgJBSCB9Abt4OY0e+CXrDZ+S6QAz5nfFFHwEI9AB9AHgs25pESAgDuyrQG7bPkYQFUDH+1GMJjtRNOe2Rw7j3yL0sqRHdg+wboTCwKRb255liBMEUgmVAyDZlWbIt/SEbH91mTgNGzD/mEyQAEg+Jph38jgyYoxA7/jGfMf58bolwRAuJVtJWgBobArBwUQfAY+9mIIHOopDIDplCCAAMniVqSDQPGdAe7ADEm4ghfSVqCdAy/9imydjhXNA2S86MTwiTIXOUsTf7wE9IEkCKk0OfmfvYCvSKLaw4JdgPnC9sLDqGTAE/cpGQDUu22BrkSFtIzsTWkPNEHymL9kJGsTXoNHldEB6Alf7ZkdYsfyI7lieRHTlXkGCf+Fn7SaBE1yGz7HpA75ANZI1xok3IiIgoOs148izf4dRw0VfqQCeIFpNwSVnYNRwcIqjYcZwm7qVdtI+ysG8kiVIncxRMAH+Yx0SWuY95wPxkWRod4Xu+M2fM1/NAELrIlJtH7v/0Qzq+92KKZp4ZCsGEtcsUxWf78WabcfPrK2XArD4iCewPt1AmEw2w9hO9rJ3xULRPYOwef5LzO5OB5EjrF8aLCRw/vc/qtz4V8zZ8pS0WIvRB32QQl3F78usiNeiRYuNvczR5YEz4DmPA73gfHNSCMeUiVwVChdzQOXQQ0CG8CGAAQhhnDhci25mtgHZaIctmjDeGh/FkmQpDSY4IxBSywLgBLkbS8JIxipAMPESeY+sdy1AYbUgf+sKuGYwphIDoEIAEWYBUm3cGiNE3noeo+AfZ0C7IDG3FuNI39B5jCQmBRPA74AGQsoUPIMSIA1YADH2HwEL0ASIShukHBN1yMkxv2yMIJCmz9Eh5ROAAWUAMIKQsIigssQFcRAW4B0JMtj1ygQTRH4CCsWAuUT+RHOYabWBZk10QLDsCVIAZf1uOEsDAPIe820FF1MsOEPqGswEBp6+QBMqmLBwGAIPvkSH9hJxB6BhDdALHAzCjLnKrAMNi24r9iCVRAbxzPmMpFgeJccDBgBgRlcA5gLhgo4gkEo2lD4A+4wcZoQwcGTxpiCXgiswoj7IAd3SIn0RC0WkiUxzsRN/RGwg0BIO+0j/0GDkRNaBN6BuE2S7qI5cKIIZ4Q3gYT3SUqARys4gm9zG3IK+QP/TV3k/hYwNRFYgV99NGdI3+EeFj7jKfbJmWJVjqItKEjiBriD4kh3YTMUSPSASHhCATO9mTecwYQzyIvEEcQgShG022eWPmhRuI+ZPDmmNrbfa3hYENDNsDex8c+T2+FlWsy1a+KaaVYZms/ppcKZH53qYP7gb4tmbqEw77rBR4d2R4ismzFIGqZb0daWt3PFMsSZF+M7YYMCID7IlnKx8esh2Eg8eN10ZYFgMPCGBsAH1+4tli9DHoJITiVQL8gCmG2o5TZrypCyMHESFszbhj1CC/AA5lAfwYZwwzdWBYAUbLocHDxsPBq8PoY8yJdmDsACO8W9qPIQVIKJtlJgAL0ARI8I4ALIgDhATPCmDBMEKIiLBhHCEUnK4I8EIEiJRBGAADjDAeHR4bXhbfQVBoJ79Tlj9/2yMIhO15jmgOe9YBOgAf+fpLknjHyBmPFPIFabAXUwFmtAMAYswAIe5B1oALyzuQCnvfBbLGC+dzSA/ygozgeaIHgDweNJ/hkSMHPHU7VAkZcK4CcoAw0Xe8atoL+PEdxIHxQb6QPcoElPHc/TlnkQPfTkGSIHhEkgBB+goY8yz6BWlBRkQLIWvoEXoI0NEe+m7noaAb9JEIA+BI24gUoA+QTsgSZINnkQlgCzlDFtQPQWFbNFFeli4BaHaNoUeMB9sJ0VuiL5AVxhM5AcxEv4gUIDvag7zpG4SASAK6TV9YZmMZGJ2mPsYNWRLVQT7IG3nSduYmckevTWbIl/5A3tAB+guJgKDwGW1GrxhTiBA/7e2rkEdIJ/PFli2I+jEH+Nwifmb/QwShGyy2PylKVWdZ+T6YmkL4Hnp7YB0PgfpkoxgwFiMSBvqlCEm8L8XAmbrsDWI+0fCTrrpB7D/bKuJLDEYyEQjADSizbonBsv3T3AOwYmQwrBhaDBjGBqDEmDKWJHwa4GBA8Rz97YwYXowQYWO8cgDI1v7xziAWACj38DdRBrxXgBpDByASmQBEARlAAgDAiBFC5V4MKM+Tz0LdAAAeHG3Ei4LgYMDRTXt7IUCO4Wdtnr5DSiiLKAQeNYYR75f7MbaEoSEEADWgS9sAJz7nd8oCNIhMYLB9kt4eQcCjxuBj/AFqtj8DtniqEDY7WhmPlT7SVzxEohp8R1sBHKIH9JHxAzwJK0MI+EmoHFCAOECkiFgAfowjHiTjSz9sHZqxBmgAWwABckhkiegN6/3surKzIuwdGhApCBlkgTE3EGMcaSdLPRAGoizxKKRvl7B7ACxyoI3YCCIG6BgEFdClDpa4yIuCENIP2grhA2zRLyJd1MmSJ2WiZ8iBqAP9saUnS7qEMNIX9AEghyAQgYCMsvQKqQVc0Sv0yA6uI2IDQbClHCMclEu0hrYRhYNoE7VhbMntoI92IiQkinkI+UUHfDtv0VZ7HwJ2FA8fYoxs+BviS7lECQB6e1Mo0Th2jkHyzLYzjxg7yoWYoy/oE3OPcSOCxhxgLthZC/74BILQzTBSiiwY0FryT5xp+55+qYiAhYf8n+11z/YSU1e83kpITbF7bM3b30vrh/wrKbfckNSijHJ1zMrfF0tStKQjwISQI4AImODxIE+MLASBvzHQABTeHMYZo4dHCiDjdQBWGCjAGK+HcCwXHi5rnUQDAGtbqqB8jDH1YhABH/IWIBh4qxgnjCaGygwvgEl5lE9kAq+ftkA4aCPAgbdEPUQw8PABfe6h7YA5RMgIBNEOjDaAy7IHxt8OcgLQ8SoJ/+NpAawAG94hMqHNeLKACl4/YAMIkDyJHC0Zs5IlBsoEeJEFIAiZoRzkChiz7MdY0H5ABdIC+BI1APQBSdqCTOkP+QMsl/Ac48G4AIgAKFERQIDy8dCZkwAoyaWAPqBIvQAbJIg+AcQQO3SAuuzidzv9kPEAQAEeZI53jMwZb4CHPgHOkDLkyFIWcrXjkH0Aoh+EulnGAjTRA0gpEQQIKoDH33bqJWvv9BuSBMmBWNB+2sRnADa7miAb6BLEBzlCZJEDpMKONCaSRvmWyGgnZWLDAG97LwbEAf0HXGkT+Ql2Mfb24jIiB8wFohL0iecghMgN+dsRyDyL7bU3aJpDZWclUD/yhtwhH3QV3aM9jCk6zhIKS3D8DuFlCY6xQ7dND9FvSBz1s9zAHGSuoIPkYDDvIA2QBNrOc0agaCN1B4IwKyNBaHuQQBEJFFtiwMsA3OyYWgAA44HxxPPAc8IwWfIiAA348hxAgLHje34CtnhuGHG8bAwQAI0nineChwqo2RZb1sYxkBALvF7yEPgMbxYDimcFyGCc+IchBLj4h4dkr9ZlndWO57VkSzwkPGQMM+CP94fnhnfPswAixhgjDqgBMIAQEQ6WQPDaIRysCVMOQMZP+kl0A+PNUgRLKLQVggL4EJIl9AyZsENszLi2F0GgTnYvIDvKpq+AD7L1IzWQI4AaMgAxsHwEZIr8eR5Ap+20j89thwGGHvlAbuIHYFEn6/IQBIDVjlUn9A2p4H76TxksOUBaCOlD6oh6oBeAMfchHzx6PE878AzABCBZ52dJgFA7QIaXjm74kUlzHBgzZAhBIL+B/hA94B96gzfN+ACERFDQOfpgL4ZiDIi2ANyssxPFIIeCcUeH+Z0xozx0FDICsYLM0jY7nRXyjO4QxYKYQWCJIJCTAKEFnBljCAayY8yYH5ABLiILRLPs9dfcQ7SJC8JEu2wHg73NE5JuxMCP8tJG9N62dEKeIWEQY2QO2aE9yJSxY14zJ1kmYOs45ILlH+QPMWHMIATMTcqBUKIfkGjGEeKDLYjnhwWCECAmSOAnJoFiSwwYXyY7oXEz0vaSIwyjvUPeojN4XngkLClYjgJlYCwBBwAY42UHUQEueHAYSIAL40iOAEYPr4XyKYdnKBtQwLvE4PIsa8a2VMH9eHUsKdjRuHi7AATEhs8wzAAA7eA5vFT+po14kRhdf6eERdVsKcCW0ohQ2EuL/GUCi4T5qlEsQme5PP5SWnsEAY+PCIQlNuK5A0IYe/qFfKmH/tv2XOrAg+YnhAdgQw78zU+MPR6lf4wvWyFZhrDIkX9gFeODN8w42vZA6kV+gA1y5ztkStn23hbKsBA4QMrv6JN9bruFqJvPIGK0EVCHiNmbGI2EGiBatJHnIQjoJcBmukF0B9KB3FgyQF4QTYAOXUJOtBUv2fIwyH+g7egMugMZRRb0E+Jp27vRX3SJtvE9YXs8atrCszYfbJz5iS4zDpZr4/cnHt203BSL0to48Lc/Jr7uMSaQaNph5dEW+sgc4zLdps3oEOPBfEKvIEEs7xhxRb7MfcDfdq5QFhEs/vEdcmC8KM9PmAwE4ScGDqE7QQKldjHEc058j8UA0X7ad/aM/bQkVjMk/gmDvjE0EmLG3//pH6FsoOvnSVg+DsbOclmKHe5kRtXPd4nX42tDfKkLkkKkwF5+Zm325VSMWMST7nwiQn3tEQQDZJOz3yYL6/LTyJJfv93rg4t9Fpe3tanYcpyRI5O5n0Ni8qJeXxfsbyMcJnu/Hn/pwNptHrB95x/Q5ffHL99IiOkYdVhb/B1Mvr757fXB1uqwz6w9NoaUZzps9fphdhsTnxz65NFPIo+TSmsTZZjcfN3xy47rqT/ufv99UuHrqa+DvlysDtMDvx8mC+aP/8ZOX2aBIAQ8CRL4iUmg1EFJcQ8ZQ1AMFH2g8gHcjAwGyAcS82j8z+IGKW5o4yBYzECaoTPP1IDR96AM7OJGvVgf/Db57YmTIt9Axo0tz8XzdeLPt0cQfHD2AdLvfzxB2Je7D9DxPviAGh+3uHx9oDW98L3lOLHwZWL1Wn3x8bC6fQArRlSKAbkP9PFnDFzjRM+/z7/HJxW+PpTqW5wUx+uJy74YaYqbEpNFfAz9sStGGuLzywd6X26lTJdPBPxx9ce62LPx5wJB+ImBQ+hOkEA8gtBZiRgh8L38OKjEDY8PxhYRwPiwbGHvxoiDFvexREEIN+5dFjOQcS/XBy4f0IqBk2+U4wDfWXm1RxA6W3Z4PkiguyTAvAkEobukHeoJEugmCdSaIBCCJTOcpDnWMUleI7GLi6Q01pfZjcC6NWvnePMk0bHWS6IVAMy6NASAfeEk+BHSJEeBnxz+Q7if+0ketNcXk3hoa8Nx79FECWmxszV8L82iIzxHToOdPOh7ifxu/+ys/VoMUSAItZBiKKOnJRAIQk+PQKg/SKALJFBrgkDSGIlQZMaz5YrzCQBvPH32XJNFDvBzaI+d5sf3dlIchIGseU5sxOiwDo1nAonggBiy1iERZGhTJrsNeIbtgPauetpg2+TsrY8QA5L3SE7jd0uahFRwD6SDOtj2R5Y32e+UZ1njtMGiGfZZLYYjEIRaSDGU0dMSCAShp0cg1B8k0AUS6AqCwElubJdiqxZRBECc7HBObGMbGtu5yILm7ATAncQ/tupxwAsXWyUhEVy26wDQZvsez3A4EVvh7F0M7AO3bH+8fI5JJrOdXQds7eKsBbZlkcVPVjunLrKtjrLZYsn2OKILHJjD3nf2wduLxegLkQ0iImS60wcy4mt1BYJQK0mGcnpSAoEg9KT0Q91BAl0kgVoSBIwE3j3bywBnCAKn6LEvmy1unEMAWLMXnLMM2G8NMHMQC4SAsw8og3MWeMW37TKg6+xbh2RYGWyxs1PwDLQ5dwCCwD539rFzBC6RAA4AYr85B/UQxaBNHBIE2WBvOfvB2TrJOQF2jDPt4VwBts1xtgD3sN2LnQxEQeLJgR0dnkAQOiq58FxvkkAgCL1pNEJbggRqJIFaEwRC9RzOQ3geEgAgA9KE7zmVj1PniCCQj8AebNsDDzlg+YBtVIAmywlclitguQPsk+c8A0Cew10AfQgHpAByAHBz0hvHLbPswAFIHPLC2fgAPYfykMvA7+RGkBPBYTFEBTi2mfvZL09UgjZRFxEGCANtIfIB+ajVFQhCrSQZyulJCQSC0JPSD3UHCXSRBGpNEDhIhgRCQvcc5QoAAris23PQCkcU480D2rwtkRwDPH3e6wCB4Gx+/rbzBiwqAfizPMA7IThvHoLBsboAOOVCIDi1jvs51Y4T5DjghhPjIAycNkfCI6QCkkGEAkJCfRAVDo7h4BsiCpyyyJIE7bTlCE4GhDDwkxP4QgShixQyFDtLSiAQhFly2EKjgwTal0CtCYJ5/AApXr2ds4+HzhHE7BLgLHhAFoBnRwDr/CQVcuQruQEcdezvvbddBoT4SRaEKADi5DdwkQjJlkd7qRD3c4IgCYkQCAgAEQTKhjRASjhtju+phyOBIRicPGfnKNgJc/biHU7n4wRDIiNEIOL70TuqZyGC0FHJhed6kwQCQehNoxHaEiRQIwnUkiBYkzAW/tkCxbYd+qe/FeuKbSks9p1/KI1/7kIpkfAOA7ZHsmxh59vXSHydLiYQhE6LMBTQCyQQCEIvGITQhCCBWkugqwhCKWCPn75Wqj/lCIJ/joF/bzHPnm2MRArsPQC1lmFnygsEoTPSC8/2FgkEgtBbRiK0I0ighhLoCoJQzusvdvJhqShCqa6WKqMYQbCDjezdBrVaHqjFMASCUAsphjJ6WgKBIPT0CIT6gwS6QALdRRDaIw3+d/7SQ7VAXuyYZMouttzRBaLsUJGBIHRIbOGhXiaBQBB62YCE5gQJ1EICPUkQatH+assoRSKqLadW9weCUCtJhnJ6UgKBIPSk9EPdQQJdJIGfG0HoIjF2uNhAEDosuvBgL5JAIAi9aDBCU4IEaiWBQBBqJcmOlRMIQsfkFp7qXRIIBKF3jUdoTZBATSQQCEJNxNjhQgJB6LDowoO9SAKBIPSiwQhNCRKolQQCQaiVJDtWTiAIHZNbeKp3SSAQhN41HqE1QQI1kUAgCDURY4cLCQShw6ILD/YiCQSC0IsGIzQlSKBWEggEoVaS7Fg5gSB0TG7hqd4lgUAQetd4hNYECdREAoEg1ESMHS4kEIQOiy482Isk0O0Egb4fc8wx+vvf/1545Wu1B6f0IvmFpgQJ9EoJ8FpjXpbU295R0CuFxOovAAAAIABJREFU1QWNCgShC4Qaiux2CUAQxo8f7160xptTq70SOf84swqe5vbjjz9eRxxxROE97xU8Fm4JEggSqFACvOhon332cW9drOUbCius/md/Gzbuuuuu04YbbqghQ4b87OURBDDrSqCpqUlTpkzRbbfdpt12263qjnSIIOy///5aYoklnHfD61hr9Q72qlsfHggS+IlKYOzYsdpyyy3Fa42r5PA/UYl0T7eIhkLQXnzxRQ0fPty9ljpESLtH9qGW2ksA2zF9+nT3CvZRo0ZVXUHVBIEajjrqKI0ePdqRA97EFgxY1XIPDwQJlJQAgHTQQQfp5JNPVn19fZhf3agrRgaIIGywwQaaZ555gvy7Uf6hqtpJAF0GoydOnKiHH35Ye+65Z9WFd4ggkH9AHgIX5CBEEKqWe3ggSKCkBJhT5CCce+65jiDYFTzZrlMa/y2U/H799ddr44031uDBg0MEoevEHkruQgmYTn/55Ze65557tMcee1RdW4cIwtFHH63jjjuu6srCA0ECQQLlJWAE4YILLghJiuXFVdM77KVR1157bchBqKlkQ2HdKQH02Jz3r776SnfffXf3JCnSyUAQunOoQ10/NwkEgtDzIx4IQs+PQWhBxyVg0QOijt1OEMhBYCdDuIIEggRqL4FAEGov02pLvOaaa7TRRhuFXQzVCi7c3yskEAhCrxiG0IgggdpLIBCE2su02hIDQahWYuH+3iSBOEEgB6FbtjkihBBB6E2qENryU5TAyJEjFXIQem5kIQgkKc4999w914hQc5BADSTAEsOdd96pv/71r1WX1qEkxUAQqpZzeCBIoCoJBIJQlbhqfnMgCDUXaSiwhyQQCEIPCT5UGyTQVRIIBKGrJFtZuYEgVCancFfvl0AgCL1/jEILgwSqkkAgCFWJq+Y3B4JQc5GGAntIAoEg9JDgQ7VBAl0lgUAQukqylZUbCEJlcgp39U4JFNvFQJJitYethRyE3jm+oVU/cwkEgtCzChAIQs/KP9TeOQmEbY6dk194OkigV0sgEISeHZ5AEHpW/qH2zkkgfpJi2ObYOXmGp4MEepUEAkHo2eEIBKFn5R9q75wEAkHonPzC00ECvVoCPkGw9wP4b0311xKbm5vdOxuKfc+ri+1lavxuF59ZufYZ31u5xdYqeTMcn9tzfrntvbDNb78977/kjXLtb8rx20Hb7Hmepa+8QdZey1ysvdZne9uslWH9LNU3kwk/A0Ho1dMjNK4CCZg9+Prrr3XXXXd138uawjkIFYxOuCVIoBMS8AkCgMern6dOnaoZM2aooaHBgWhdXZ17adr999+vxx57zNXW2Njo3gAJOO6+++4aOnSou49r/PjxuvXWW0XZPM8/iAXz+YgjjnBEgu+XXHJJLb300mpqatLtt9+uK664whmXbbbZRptuuqn+8pe/aKuttlLfvn0dYFPO1Vdfrc0331yDBg1yddHGq666Su+9956WWmop/fjjj/r000/dvVtvvbWr47TTTnNgP2bMGNfec845x73mul+/fu799Qbkxx57rOtL//79XdlzzjlnQbJGHmjHI4884trE4UbPPvusu4cy7B91rLnmmq6ftGOxxRYr1HHKKafoT3/6kxZccEH3fSAInVDe8GivkgC7GAJB6FVDEhoTJNA5CcQJwoEHHqjDDjvMkQHAe/7559cf//hHRwymTZvmyAMX90AmAM7ZZ5/dAS/PQhIgF++++66GDx/ugP2ss87SM888405s5F3xEIg77rjDnSAI0P7+97/X+eefr8suu8yRCu7lRW0QCgjBDz/84Oqnjn/961+OHPzhD39w5AASwL+LL75Yhx9+uLvnb3/7m6vjm2++0eqrr+7eMLfAAgvok08+ccAMIQGcZ5ttNm255ZaOPADk++yzj9Zaay1XLuRniy22KBpl4JnrrrvOlUM9flTjgw8+0HPPPad9993XERWuyy+/3Mlrvvnm06hRo1y/hgwZEghC51Q3PN3LJBC2OfayAQnNCRLorATiBOG3v/2tIwYAPCCGN/3oo4/qpZdecl6wLTMAgAA+wAooQxzw0CEDeNWA7IorrqgLL7xQO++8s77//nsXHbjkkkv0xhtvOGJBFGKDDTZwYHz22Wfrtttu0/bbb6+VVlpJl156qVZeeWVHMogiUD4gu+6667rnKM+OdAV0aRvkhDAn9fET4F9jjTUcYaAOCAx9oQ8QE4gPkQ8iB999951eeeUVrbDCCq5tePmQC/pnBMKWLejn6aef7u4D/N9++20H9rR32WWXdREGyMZrr73m2spnO+64o6688kpHEP7xj3+4yEWIIHRWe8PzvUkCgSD0ptEIbQkSqIEEjCAAggA9SwBEBsaOHeuAGo+bkP69996rE0880d0DMBJh+M1vfuMAdNFFF9V2222nI488UmeeeaZ23XVXzTHHHA54CaED+hMnTnSfA+oA+YsvvqjBgwe7f3x20kknucjDzJkzXUQCkIUc8DtE49VXX9Umm2yihx56SIceeqj7m3PfAX1+J8IA+EJcWBoYOHCgax99gLBwD/14/vnnXR8gMJAHliAgChAX2sV33I+xA9SNFNgyAlEUoge77LKLIw70ca+99nJLGxAclkaQzQEHHOAIAmRkueWW00cffeQiCCzVsORhuRDFlhjiORv+MPv5H9Ym+97fclbsM7/cYnXEczgsx8I+t1yL9p6l3mLl2PKLtStetj0Xfz6efxKvO14Xz1tuSTwHpFiuiOWYFMtticvL2l5qj3+p3B1//PxcHb+vfv99nfPHOD6+xfrO/X4/fTlbWXEZxnOL/Pyf+L2UbbLy76PssMRQA4MciggS6C0SYPIDbkQCADsMxe9+9zvnOb/55psO0AYMGODyBfCufeMLELMsYBfLAHj4iyyyiAvnE/anLDx+cgnwmvHqIRLvvPOOIwIsX5CbQMieVx6z1EDkgPYQUeBZlhO23XZbvfXWW5o8ebJrD4aJel5++WWNGDHCATxAD9mACOy999564YUXHFCsv/76jqS8/vrrDpwBanIQiGawhEAeAt4+bUYetId2svwBIeHyEy1ZVoAEHXLIIe5+ypx33nldpIA+QRDGjRvn5Epkgc+QLXkILKuw3MFSCmSEz4sRBDPqpZIofaNPvbSPf5TnA43lQNBOI4C+UcfYW9Kp/zl6wDO0sRjp8BNAfZDyZUXdyIp7LQJj38cB0PTK+mXy9ucJz9Be65/1NZ5Ea4mlBpQ+wfAjQUZYSpExPuefJcxSDnKxPBuLpvHTb6/1zWRv7eVvIyNxohWXoS8nXwesTXEyY2Pkt8NkaXX6ZMRk5t/DWKEL6BPf8zufWR5S3Gb5RMH6BkFAv8njqfYKByVVK7Fwf5BAF0sgThA+/PBDRwZGjx6tW265RauuuqoDcYDygQceaLUbgbD9ueeeW0i+gyDwHLkBa6+9tjOarM/fdNNNLoIAULL8sP/+++vLL7904IkxgQhARPDuAex//vOfLmzP5yQrkhNA9OGJJ55wiYis35PMuPDCC4s919wPAQGAN9xwQ5ejgIcOQLMMgBG89tprXXQC8Kad5CuQCwGpGDZsmANpEg5JLCRCsfzyyzvyQbvtMqOKzCA/N954ozOelAWhgmhQBn0j+kE0g6jG9ddf78gM0QzIz2abbaZJkya5NhdbYqB8yNnTTz/t2s4FMBHNIJrChUzpD+1n6YT7WDJBBvQfww4xoh0YetoOCXrqqadcBIVnIGOMKUsqRFsYZwCU+tEDnmX5h7IhXizBkBtiAGzASdn0f8KECa5c2oAseA7ZMA4GYER+iArRf8qh/7SLMs477zz3O+WgG0SgaBMEkZwOojHLLLOM0wXIIss56623nqvns88+c3WgD+uss47rDxekD0A/9dRTHaGDJAKAyIqy7OLZYqDL559//rmbCyTAIleTNYSWSBJLXwbcBvSmi1988YUefPBB7bTTTo500jeeRwZGNPgM0ovsaBsgC+GkT8iFpSiieMwfPjNygWzoB+UxzyC+88wzj5M/F/k26Aj9Qg6MCc8TATMSg15aojHjcdFFF7nlOYg/85R+o3fU+e9//9vl9HDRviWWWMK1myXIhRZayNVD28M5CF1stEPxQQLdJYE4QTCwIySOYcMIsLuA5QBAFiOCMeI7jDaetHktU6ZMcYmFeOcGagA9a/7kIRD2x+jssMMObi2eSALhf0L0GHCWH7gPUIZ4QAT4G3BiuWOVVVZxhgsjyEUCIFEMDCXPYOwAjP/85z/uM3IIWDYAkOkXywmAJeTl+OOPd+QEkAfQMfZESDB09I1lC0gGyy1mhA08Ma70ETKCoTcQRw4QAogFBp3+kSdBIiSfQULYwUB5LMXwD6PtRxAMaNiVAejSd4wzSzu0ifYRRYHcQMQgCkRZAAUAndwICA6gAvAAEJA8xo4lHAAN0kWEhX6T28HSCBEP2oHhpz/vv/++kxFtAJggN8jXAMK2gHLft99+6yJF9913nwNmiA2AyLITyyxnnHGGGy/AmTGjzcgPOaAvyBnScsIJJzh5QwQgCAAo8kVfHn/8cUcQaS99Qfb/z95dAMmyHOcCbsezmCVbzLpiZma0mJnJYmZmZl0xS5Z0xczMzMwMtpg5/OJr+z9Kl2Z2dnaH9tzqiI2dma4uyMrK/BOqWj3A4be//e3RiyMMZY4oWf/xHU8UhYifhLGEzk53utON94FAwDfgoA0bZC4oTbynn55HUx4r/QQekqNy3/ved+RvIM6coytPkXUBjKAVvkAn/YkiB1yANUAVP+Nh/Asw6SvFD+xd+MIXHpU1j9kf/vCHsT4KHL/yzvF4WZPqAcTUr5/oIXH2oIMOGgEyOuEP121ve9uRx1wf+chHRlpaIxKDhdCAjLOf/ezjn/bwCD7XZ/OCh805oNoBwgqk9jR3V0W6lZFnla9dnqfsrOe2csu1candkm27bc0zvnnKTqP9bse1Cc+3AIHgj7tQ/+LejLs0c0tJsRxiBaUshcjyi9tVOQKHItQW651i8FwsNm0q7x6LhABm1bDWPBe3cPpQXb7qVH+UdLUE0/e40avbvh0XIaoeZZOfkPL62rr6fWcFZ6ul8WubNanflESAU1zT6Wd1QftcAULaIegJf8CMknRRgmhreyarX/4FoABE8aYQ/pQH5Y/uwjLCLBTCO97xjhEkUaq8AECeZFSWuIuFSSHwEkSpUvzaRn+KwDxRHJSGcQIFRzva0Yavf/3ro3IC4owb6AMMgEBgBGBDXwqZx0JdgEisc3WipR0o/oA6vKBdvCJsBTgYC6VEiVG++gqIAEDAAAWW+UdHyphHikclwAZokXiLzyhfdNtKFkim5QkCJoHQO93pTuP86hNQkwvQZDnf7373G8eGf9XLg8VTxDMiUdX40Bd41JcoW3OBDwAg86g94EMYzAUc8JoBAkCmi6UPEALWAF74C7jHPzwpgJW+AMtAiX6Yl6zHeJfwPMCIL3i8AFqgGe/wnKAXvgNWAC58hg/8hic7QNiFNK/CpcbeElOLQA6jVoskn6tQiTCqcaTE0xIXmhTjqy7Stg7fJyHo/J6+BVXXuiLoUyYCPG3U2FttI30MAq90qjG6Wn+tM+UTY8v/CObQpO275yyMSYo/rtB2nvwehVFpl/Kte3IX7LLSR/WfQmGZJ6YbumbMESKVBlXZ1rhunfvQv9K58lnl3yqkK01b4d3OT+4nZs7lX8tkPeR/eC18XPm7XQMVRGSttuBcPaFbBVTt2Cs/t7zd5iCw2FmUFA0FZZeFcRH8wjoEMyGvHIFPabFYWeX4kPJUp3AJz4NL6MMcc89THgQ8izHjofQoBFY+RUFhhVaUvdCQfmvLZwCB5cpa5RXw7Mte9rJRWbB2eS8AKwoO0KHcKTFhJACQMudyp8SACmM1FkCDwtcvHh0eLJaw0JK4troAIla5sQAp8lfMv7BI5j6eHbzLi2Vc2qaUKT9WL8DCq5WQSSv/jJ9SBqKAMwCKlwONA748o0+UOVDDs0HB8ogBN8ABYGbezAFvmf6bX+DE86xxYMMcSG5FN7RSjoJGB+3x5gADPEaAOPqZXwAGOHEZi/kCHHjMgBLgDH/wHgkZ8R6gi98AxqwhIAdP8BzxzEhejsfAy5fcN9/yaACh97///SOgsOMJQDCWnoOwA/FdFVSreCJoI3zr/QieGutrFXarrFplW5Vmq+DyPW1OWiBRfK0F1Qr0KhBrO+lfVRJR4Kkj7VfrLwu9gqaqhOu4tgJM+pJ6Jwl3dUZg17lowVTb/yic2ucdsMZGPCJGTHkENFWatSCq5acoxaoktzOodi5Sj/8V4LU8OglsVGBa+1HncBLoqUCiBQfu1QS+3M/hULW++myywbMO3WszxGu7+tiGGChQ4QMKn3ubFX7c4x53VHRc8uYKCKAszJ1whL5S6tzXca0T6onfU0bc1qx99KUkKRJz7hlKmfCniClDbuckGFJ83NMuyoyS8RsrlGJg0QMIPAgUL4uTZwGA0GceBJfP2qHYo+Svc53rjIpMGcqRwqKUKVOhCla+MvpkLHJVeEAAFDQGGgAhCtbc6xNXP0DFe8BSN0YKmnJWDwBkDrj9hbGMk5U9CdCiK5pz2bPChRA8qw1KXPuse33kHRDGsR1YrgkgJSwE5KAZGiojdAAgCNmYC1Y4UAXwCefxqPC0CAsIi+A542K98z5ow/iBBrTi2UCT6BAhCvUAEjxQaAGwAE28M+YJTbLOsuYofsADv6pXOEMZvICWgBKwavuzes9znvOMdNcP3sQOELYj+aaUiVCotxG0HudalWGUZqxd/6OUoigjAKtQqlZZYqZVIFXlXS2k1FH7F4arsddqiVUXcdyzNYO49msS0Ih3pFXgFThE+VeBHYGc+pN9Ow2Y1IVQFVqeqyCm9iX1x+3e1tOChl2wx1ofrQAhYJQb0ZwSLoRGdaWjh78IFv89R8jOCxQqDVuwVQFbBaSZ/9ZT4HfWLCXCSmpBrO+EMMuurscWGNfJCHj0n5WY0w+zdvAQiw89KM3QqXq9xItzWqNyBD66Zq0EIBDE8VRIUtRHLmUJkdoDHHzmLmcNysUQQ2fVipHLtXCJ1dsl4jfzqB1eA1YlMKEvvBGABktRXRSzP9YvwS+ZzbgAE0mrwISxyifg7s8YtMOjwXKmVMTcWfQ8A5QSVzyFQiGyQCkvypVlDeQAEfrPhU2JU4C8I5SZurnbeSXQVqiAN4HyFBLRTyBCf7jmjYkSR1uKrOYj6D/Ahb6ACIUrF8V8SL6rJ3PW+Ud3Y6CUrQNrwnx6nlI0R3HtZ3twlWvAEPCUbb48KoASYHHAAQeMTZkXShZ4shZ5CoAHHhFei/CEOUGfnL8BRAIb5gSg8ixwCJwAXGc84xlHsGEe5TYALMbC66D/eBqdslYCZvGckA/PDu9EdrnoN28G7w3PVs4IAboAwp6DsAsxLlYIEZoUyD+oWIzIwsMcmNCf3yJgxI2g9Jo5LLEEmsM4kClUr5x96piToJE8JtaWGBrEKWEFg2BqLj7MiunVJ57VCnd1cp/pS5Ak4WrhE06YnztKHJDr0fMYxUJkVRAExuYiGKD1AB90cCQnhk9sWd9ZTARFYsLilbLYMakkLLSB6CPgLTTuS3FPVgkaQ+RR+gSNBaicOi0G/WflsJa0JdZKYKED5ic4lbfgCW8X5G2hc7sZU8CTMUH/e/lqPQjGRkijBWWEvmLe5gktzS9LFC9IJuPGRHeCisU362oVsnkh6NA2ipOikpCHz1hgWQ/4Jkq5hja0yWoiRFlwhJy64vFwnyAz53ZHJNExfZ0EEvAjBco6c1/yH4Xld1avdawu642gxSOEJvrhFQqEYuTOx7MS/axJgp1lGwBUAYJnKdrE7bls0YEHgCKmJLmTKUqKlzIm/NWRNYYn8TOwgpetQ/NIIRsLpYjWxiNXIX0FfqxHisRuFKEnCYHi/urJjpUoLDxiS6k+WAPACJoDAqxra9lcUdrkCGVlzOihP1zkrFzjAUS06xwJ9SvP4jZeAMFck43kgD9t4TnzgQ/xhV0NZJrnAQjl9B2QoOi0BQzk5EvhBWERPCwkMm0do4W6zUvmTN36A5QEsConkTFl7GBghcv/MFfGRs4DKMIpxqyv2jfH+MW48K91ZL6UyWWu8ANPjzYoa14h4MBn7eA/4wWEgUKgUhtCFejI4tdGQIxxAWfWl3UNJJpnvwPbZKI+Ayr0TIwkoYiEgvCdtaAdc9p3McySgM19i94iskAwOuaQDQs5U6yEBpSO0TEhQYthXLE8IgxNLJeWBCWTRUFDz9mWQvER3lAiZjVxJgyKtHDF4rjaAAuJMOo38ZiqbunSNiYjTMSYMBtGAkxYIQQJAeIZ4ANTQ+kWPjSM2TAYiyeWYcYSYUx4aMPiRQ8xMc9weRJgnmMhERZoBMQQkoACOhC0YmHGTFARJn4TGwtIQCNKQ18pEMqIwiFcWFzcahYm4Q4omBtCBogg0C0Qf9rh7qMMLA50VI5ATIx+TrbYmOJoQ0HHUgAMuFIJbIIN/c2z+QO4uFsBKwKHAkUfgpbSIlji9TJAIBJorELOPOdSlrWcbY0BdtnRgFesCwlp3Nf4mPJTPmsCzwF0Mq0JLfxoPMAloe87HuMmZSlS1gCl+LX6W49c7Rv+x2+scvNOcOMx8WvP6QOexL/WIn6wRqxBwppFh98oEr+zrKt30PMVICRhM2GemgRK2PtuPKy7fI+HInvWrZt4NTIXOYvBPW3qu/Lqsq5rOBMfUE6sTPeTkW/+KeJYnPhE/e7Hyxi5ERe27/E25HjreHaMNdn0xuDihXJRYi5zH77kRcADxqK8MaBDvLBRzO4HwHsevfXVOg9d3fecMeJvYZwYYdWT5bNns5OlejfVW3OZ9DnJf+7lfIrwNNol4TVjyr0KUDNn8TDHO5u5C3/GSMq4a+g2oCX1th6z+j19sMbQKOce5Fk8YF7iSU3d1QMd4CZ8Q9/0cxDmEO8mgzJiaeelNNAxJUiIQbKUG0uM5QMVs3AsHui+dbUGdauLoBbXktnKEiTAnQJnktSnDgjeZFs4ECkwgQkAiyxyE5w91pUBMbU6KWDPYELeEIIy1hiXH8tEvI2wBzj0h0IWHwyC5TaLyzZMiTaYiTLSPiGq79rAmJArWkHOlDYkzJoi+I2PcHahEYRNcVP2hL/fuPEwNwWhP8oQ1tC//nCN6oPFDcwAP+gIvBkDywKqBtoABPRjHQUQZRw1P2IO1tiIohUg4CngkoIDlrh5WTgAAiBAWbJIKT3CBFAFfrl6WWsAgot1qh4WFJen5/Ah0AWY4kHrwXwCEEChZ+L+BwKsGclrXOD4zRZCcXX8xRtAqBPC+J2Hg2VozvEYq0rfKRRrS59d2rXmnAcASLL6oujbycB/QDahD6CKuxofIWjdABuAMF41fuCRx04f8SFLGZ9QPKxz3oYoZvyuzgoQ9DkKKGu+Jh1HILfhlvQ7wKNVNhHoVfGl/qqg2t8qPaoy8Lt+uVq+r+DH/Zr4WvsRz860daO9ClpSV0Jg8TomT6TWZ5z5XT2pK0qxKs06rqr8M/bcb5Vyxp5QW/oaGqethCkDGHLwVFsufUpf61xXZe+5Ov8tL0zyhM0jZCbVn/br/8o3lUd7kuI81C5lWcJc1iYeCGCFccFxEVFgPAbckawclinhQbkToHXSTQYrhHJ3UYAEKSFP0BJShBWQARAAGtyZ6oC6ud4IV1Y3JUt4Sn5xnwKuV5iF+5TiJrxdlCyPA4GuPXFEFpt+BZAAD+5zP7mESbK1qV1srEUKWP8lT7HE1M9dRRjzqhCoLHx0oWy4Cnk2uPFiSVJqrEnuacpH/9GXEqH8KR20lsylz4APIW5OkvQDIAATAAJ6xHNgHJ4HECgqLj1Wdrtodsgea32sAgQdAfKEayg6IIllgV/wFRcl/qEoKU4AARhjKeM5cU+8BDSiNTAbTxOacs1TtLxBXK5c2JQqEAi0EfyEKmAIHFsX4tqsXCCFhwCgNE8RsvhcyA7wsxasKzyrz0AEy18dUc74BdjlBYu7vObOoEFcsAAT4KP+WIwUvXCeZ4AMZQCCZOZb58AJj0bi3RLihPPQTD94F9Tnr93FUBV1+lKVWqsE6r2qeKKsqzCvSjBWtnHUpNv0K8/V/2mrgpFWSeV7VTa1z/GSRMmm/ljI9fksjBb8VMVdy9dQVOqvdGjlWzvWtp1WYVbZlWenjT99bMFOBU2T+pby1ZgKAEqb4c/a/90IkUlAKB6Jdq61UxN4K0/1g5J2MAsISKFzw7LUbXuJ1RTFmEUCSAAQrNuKeKtlQehyedbs++QBxJVJ2PIuUHLCFy7xe3F/ApsVJeRh8sUSKQV5C/UKE3IdE+LVfaaf3POYnfXHwwD0RBDon3ABqzFCK+49jFcXBmWgbS5rLm3Km/WqHMWsHUKatecSIvFbrFGxVs+pg/s3CVmhGcEtTktYZ0xAkXpYtxQZN6PnWMkAAvpRjhQLcGKM6BUPAiXHY1IF2A5YYyMeaUMMgKRcFb+z9oHDvC6ZO5mHBejED7wrlCf68MZw3eMJ8VD3AQn3ecvwHtABxFH8XP2UI94JQIhQ94z6rAN8YS6VBUKtI6AxViRXOxc/TwbFj3+AFl6ChM2EmSho29wAO94NYDPu3PBKtWjdC0AASuKmF6NFF2vZmtK+9QFsyh3gWSAogXGuel4MbeFR9FMvgJCxTjpqOZZyq4SqIJ+kXPJba2VOEvYBIvnfypv6e1VE8R5UsBAgg3eAuVpXBRgpF1Dve/pcc5HSnv8AKu+iz8owUBgi1m3eLKrNXC14yHfPmysXS54XyHzwPJkf943NX7ylFRD4zGhh6ERB+g1fxAVv/DxrfsM7OdGxBXH1e2hQ+68dybb1nmfwMEPN+Ou4pgmSdh62EjgtSEgf23ZSZ527lO0AYQciHYG5WpM5ypXIMqW8CWFWfhYjNzbByfJtmSPIm/Wr5znlAAAgAElEQVSV5Lkgf8rTszwKrGp1iA9TgKycLCCWocUpE5YVnK1KOY9+ErPKVyDck0CGQQhM9Vuw6qdEtJ+FTdkS2ok/S6yRF1CFWj4DK3IxKALKHLhI0gurnbDXV5aZZ+RSWNg8CJQ0egoRoKeFJeRCASlrMQMg+qK/6BVLhaCXgGfs6JMETsBBXwE1daK7jGfC31x5BqBSb3Wv7YA1NuKR1oNA6KI1wAUY8NYAULxAaJdjhglANAW+5ATwdsmcd/EeUeKEnDwEVj2eIYgJZPzHE4Ef8Y760T2KjdseGOAJ4C0ggAEL60Y53i/0x3+EvvWlbaACP1oDPsvXUSclY3sXsCzRkjKPgpYEC3DmRLnKo+LeeJ/Aj6AEDAAkQjreM/k3vF34koJwDx/jRRevlzADpaQunpQovEkAYZ2MkTkwNh6jhGDQGW8Az9a3UCDPiPkT6rM20NVZBtMs29DQWlMfhULW+Z3HBcAHvvAM40LbfhNmSj/wHN7AR9ahvvC8WqNkFF4j4/RdaCpHAeNbRgIFC+iTHbxaDKmc4SC5mveTAcTzmBACQMEzCQgLZ5Gz6jfPZBvvr7G4jy8BZ7RhsKEnwAywCtfxguHH5F9IKtUXfWfsWCN4ngzU9+xiQVNjQxvrynd8KES9KVcHCDuYibjygryC5iOgopRrPCuLNPths+BYQDwImMmVcknUyW/xLnjOPUKJEqxWgQXgeQLPZ4uExeOywDAmoen5JA+lr7FwQo54Cer3lMn4CWcIOEhdGMECSvJOdeehUZR56FWtuyTMqItFQTBXwV7Hmbr8r3UoH6RPaKSd6pmJpRNQkb7Xetqx74BF1vpICxBYQQRUrGuKltAG3ihX1jjPgDlw3CxhR1ADrjlBkHIB+IC3HAiDx2KB4SftJAM9CWtRIBRRdiEgDsGTI2wpWTSPVemz8oCeizdCaCGHJsW6cc/2LQqZhyquXPkJAGpycKrlJARCINcdPtYL4Es485IR9AmfCbkIN/BEyXkBXLSjTX2igPAOcJs1vWkAIXMgTEImZF2ZI8BLWJIStU4oKuNBP6GXhG/iJQxjx+tQPQfmjdcReM/60jYa2eKnLfNuDhgJACp5AVwAg/hQuJASlSuE1zxHHuAHQJGMUbe6gFIyCJ/IWwESKG11KQPYALr4GQDQHvCDZ4U91YH3/AdIACUGROQ6IMNjAABoW3+AIHlYeNE6whcUOgOGPLZueChzIqI68VJeEgao81KFfowWOgBwNi9ygaIL1ipE/rfxDhB2MAtRfFGutQqTXF3vUfhVAUeQ1LhTFFTK1//5nPbq9wokaj+ixC3gWibCoQrZae6y1FfL+i0CJ/+jUKv1XZV7O6aMI+OvdMxzdYy1fGiXRdz2sYKSCrhSb3Wv1TriDq0gbwessRGPVIAQvqsxxvBoxhrw5XvLpxkQ5UL5J1QWYFWztyt/pq6AuNA6zyVLvvJG2goATJlpfFLnMuBT/YQ+MFN5o67DKLXwUvi2gtTwtP81dpw2a5Z/LavOTQMIWQdybYTicgHTPHks+CQO8yLx3gGQwoGUL4ucEqxyIPRED0pXSMZvPEeAVgACxSiUh294WdCNJwFIUIYC1j6ly7ujj8KP6TPApk8UNDDIgwA88N7wJvGKsdKBPjkqgAKvB6Uv+VUOFEAgp4ZnQB+EwLTHiyHp1PwKGQPRgAQ+ByB4a4EEgEeojccM/QBFtDHWHDUOuAAC7vFiCDsDl/LPAAfrB18DQECYZFj9cmnPGJXjKW7l7TqFSgcIO6B+FXZtPKdaurFoWiFYLZospLYbk55Ju5MUboRUFlZVflEI/geI1H7XPqeeCl7USXjWM+yrAq+fq6ej9rfGTKvizud2/NsBLckoDgCq89KCqhqPy7xEMaTtVtDvgDU24pEKEDKPocc0BV1pUBVoHVDLUy0gSFvtXIe/KmicRKgKDlNHndOWb1reaXm7AgSfK6CtQLOC5lh2GZs663awOubKo6lD+U0FCBQrbwhFxFpnaXOrU45oI2mVG92WYVYwrwxlJmep8k/kQfiEoqNI1C/Zk9IUpqL0uO+ByOSlKKstXijgg5dK/gglScEKDbH8hf8oae3ybgAt6k/4ImdSCEewuHkZtMHC1y9jsnVVKABYlEBL+fMGyDcS0qLsAQ+5JQADgCDfhPcSHXiIjB0Y8cdLZqeVPirvO2BE+euDkBnQog7gQN/UgSY8ucbIgysnShhWuFUYxxh5SORHCblVb+a6BUoHCOuegRW0jwErgFhBk72JNVKgDTFs1ZWq9KeBtKqIw0vJlI+SqGC4emOiUGsduT9JSVeA24Z9Wsuq8nU8H/GYuVf3tM9jlaXeWVM4TZBvGkAIMOIVsHMIQBBKYh0Lecq3MGbKzG+UAlc3D4O8C6GGnFIaOk4C8HY+yVthRXP/1wPIeBXkODjcjcfAjhPWtbYoZnF+HgLtUb6UbTwRwIqwD0UrkTlggjVOEcsV4UWg+Hk61AncUO5c+vJfWPS+Awi8BhQ5pW1HDEAAlNgyy8PAq8FTwcqXFMtToD5jEhqRfyIkoE05CECCUIP7jCheAKEKITfj5QUBILSPT3k65AEF3MRQycmRCX/Nw7OzeHWn9ztA2Cnl9thz1aLeY13v3Z2TAvMAhLbq1mKf5EGIR4plrTxLzJZUwjuWNOuKgiF0CU+WIyuPBUZhcQlzTVOy4rc+55AqyWmsWTkO4r5itBIkKQx5Bdl9o28sYkKZhUfQuicO7Fl5FTu1xrYCTq1noqXhpgGEAB5eA3kn4vZobE7sLqHo5Alww1OwFDAL2vyhuzi6s0hY4g5Ny/wHhKG7ZD7KnXs9x/86X4QHglWvbRa9hGTzKDFY/lKUtyRFXgWJpwAJhc6tjydY21z46gIutAFgcPnLeaDcgR484z/eotDVp4w4v+RSY8IPLH48yWIHCPCUZ4EHffUd0BHq8AxeFq4wXsDKWIwZnXwHUIAr4RqeDTvQtMcrINwh5wAgkWsmD0zCL8+J0I21ALjpbw7DywF0cy77pRTvAGEpZO2VdgqsjwK7AQjb7TVhSXFw6xK4YsyEo4uQJpRZd5SO3TCyzblyZXRzEwMEhCz3cRIf3SfwPccFTDlRTMoS0pQFpcX6inUl5iwOzepzn5Cl8Fikku/WYY1tGkAwJ8AAhcSilZCHfoAdelFcLHZZ9ixqYQdJm2jNqrfLhKVsrlnU9RAhfABw8EyYZ98p+LxsSa4BPglocJ8lLfRgO7Y2Wfl2bXmOhQ5ASKbUju8sc9tIhSCECnLyo+2tsb6FErj+KW1KXpKl8AFQAqRqD8BwXwgFmMWbnuOhyEmdvBA8CoAsnrXjS6KkM1b0l3LPOy+EB4Qy5DLgYWd26B/vix0S+q5NwBgN7YTgvQAKhBryXgx8bz7wuPCM80c2wXuAbzpA2K5E7OU6BfYIBZYNEJJT4D/PAaUuu9+V7O68wRBQoMCBCFsgKR1CllCk3MWVWYesTdYri8yOCYJZgpsMdAI7RxQTnLas2obnGe5bioQgJnA9x0pEA1Yf78Oqhe2mAYR4Q9p8FHTKscnu1WRNyirPKUdRoHHKtNuBPZ9t2+ajJqHWfJKEl+LRrG0kf8l/9emD/7VszfXAbzU5VZu5b1w5nlo9CZEkWVe9eetjzWVKndnlVZNSM+Y8h5ddQln1hMUabkv+SvqWN2rGs6W/NXxT83U2Qdx0gLAJs9D70CmwQAosGyDoKgFMQIoDsypZptz7yfwGFPzOQmWdcU07n4BgZImx8FlrLE9ClBVGoNsLz/IDDFi8XMo+Z7eEskIS4sLcv2LBniNkHazEXasNz0nCcxKka6ehhp1My6YBhIwhyrgNn9QdVG0y4k7GP+mZts1poK32sc13aOsN4Mnv253jGkab1q9ptNJW7VcN3SaUU3NrJoWq2n5uFdZbFP13Wk8HCDulXH+uU2BDKbBsgBBByEKnxCVz2fZFeVPuXMYsMC5WJ4ty4Yop+87tLw4to5yrlzIFFsR8uWB5E7h/KXtuWHFkn9UrBk7hi00DFGLe3M6uvO2Od4KAliQmNs217FplDs6mAoTQoWXbqqxXSadpy2deMJF6tuspmqaQW2W/1fJud7BU2rb03Ire057bFNHSAcKmzETvR6fAgiiwCoCQba/iq/a1U+QsOnFte+pZ9bwG9sCLL0sIEwfnamXlU+zKAgG8AxR5TrbMO0zEdZ2OCYSI9Yo9y/x2YqOkOAffCGVIvJP5LpwBnGhDHUBJTqXbrvJYxBRsMkBYxPh6HQcfCnSAcPCZ6z7SgwkFVgEQKFwxWVvFWPMS1CS6UdJ5x4b94D4LJTh+VoIWxW53gaQ3gMBxvNmiRqnbdkfJe7GTZLa8wtluBZnist9lhNsaBzjkfR3JTrdVzHNJOpvXulwEi3SAsAgq9jo2gQIdIGzCLPQ+dAoskAKrAAi6G5Agj4AngDCRLyADnMK2jY0Fn4OsAAhJifaBAxbyFOQt8ELwOPhs73i2Qeb9JZ6XSU7x8zZ4ljtYRroT8yTP2VJmJ4O6hBt4GwCPVXoOMoUdICyQmXtVa6VABwhrJX9vvFNg8RRYNkBoe9zGjNs4djLLa7mt4t5bxcFrHfU00JogVk9y7ABh8fzVazz4UKADhIPPXPeRHkwosE6AMI9C3m1CXE02y/YwUzwNiKxq+rsHYVWU7u0smwIdICybwr3+ToEVU2AdAGEeYLBscuwWeOy2fx0g7JaC/flNoUAHCJsyE70fnQILosCqAcKCur1lNbOUfnuYzir6NK2NDhDWSf3e9iIp0AHCIqnZ6+oU2AAK7I8AYQPIuu0udICwbVL1ghtOgQ4QNnyCevc6BealQAcI81JsseU7QFgsPXtt66NABwjro31vuVNgKRToAGEpZN12pR0gbJtUveCGU6ADhA2foN69ToF5KdABwrwUW2z5DhAWS89e2/oo0AHC+mjfW+4UWAoFOkBYClm3XWkHCNsmVS+44RToAGHDJ6h3r1NgXgrc/OY3H99Zn1fMzvt8L787Cnj/hFdVe5dEvzoF9jIFOkDYy7PX+94p0FDAdj8A4cADD+wAYU3cASB4k+TRj370NfWgN9spsBgKdICwGDr2WjoFNoICHSCsfxo6QFj/HPQeLIYCKwcI97nPfYb73//+a3mJymJI1mvpFNhcCjhy+Ja3vOX4mmQvNvJegn4tlwI52jnHPScHwQusOv2XS/te+3IokPec/PCHPxze8pa3DDe84Q3nbuif/rt9S8s2qgAQ7njHO44lZ52Oto3q/qFIXgyzk2e3+8y8bSxjnNvt66aVm0W7Wfe3M55ZdbT397f5uf3tbz++BlkOQr9WSwGC9eUvf/lw0YtedHyb5KQXWa22R721ToGdU8CbWt/1rncNN7nJTeY26ucGCBbPrW99632vg510fvskzLGTctuppy3TtjOrjq3wUeqaVmYRbc2qY7f3sdWsOtoy26FJwGHLtrPamnV/O33ZTh2LGvestnZ7f1I/1XnQQQcNV7nKVUbrtW1jk96ZsHOxtRlPtsAyvP/Rj350fKX1EY94xH30nyUPNmNEvRedAv9DgfC216d7rfrNbnazub1hcwMEDd/3vvcd7ne/+02dh2kCrL65baeTuJ23vC3CmtxOO7PGMAucTFKyu1U42wFiy5yf0GQ7r/vdjaLbn+cHDW1zfNKTnjQqp93QaRaP9vt/p0B4lhH0whe+cLj4xS8+CDF0+ncu2csU+MlPfjK89rWvHW584xvPPYwdAQT5B0BCfT1rq+x2oqg2RaHOO5ZZCrfOyqIBwCwPynYt/XnHnDFtwnhm8dpemx/9/fd///cRIPAg9Bj43HJtxw9kPf3Hf/zHCBD6Nscdk7I/uCEUABBe/epXrybEYMy8B/6mAYStEPd2vAizPACz6ph1v7pftprD7fRjO2PdNIAwq8+zLKbt0MWYZynm3fRjEXO8KYB0EsgLQOjnIKxHygYgdA/CeujfW10cBeQgvOY1rxkBwrzXjjwINcQwS8hPszSrK3qrMrNcybPu78Qyntcq3qmVPkmJzvIIzLo/qS+zFPU0ZT5vW4uw5HdSx7z93C6/rXN+AhDsYujX6inQPQirp3lvcTkUWClAIIzjQZil/Jcz3F5rp8D+T4EOENY7x92DsF7699YXQwH6euUhhu16EBYzxF5Lp8DBjwIdIKx3zrsHYb30760vhgIdICyGjr2WToGNokAHCOudjg4Q1kv/3vpiKNABwmLo2GvpFNgoCnSAsN7p6ABhvfTvrS+GAh0gLIaOvZZOgY2iQAcI652ODhDWS//e+mIo0AHCYujYa+kU2CgKdICw3unoAGG99O+tL4YCHSAsho69lk6BjaJABwjrnY4OENZL/976YijQAcJi6Nhr6RTYKAp0gLDe6egAYb30760vhgIdICyGjr2WToGNokAHCOudjg4Q1kv/3vpiKNABwmLo2GvpFNgoCqwCILRHpSNAe4x2/Z7y9aVGeU9Erct9f7k3qU5tOTWz3svnWb+tYqI6QFgFlXsby6ZABwjLpnCvv1NgDRRYBUAwrEmKneL2u/+tkidwcq++D6O+CjnP/PWvfx0plzdSpq18T10BE/57Ju+fqG+ybNtqQceip6gDhEVTtNe3Dgp0gLAOqvc2OwWWTIFlA4Qo3L/85S/Dl770pdGSz0UxH/GIRxyOf/zjD9/73veGX/3qV+N974X485//PCr8Aw44YDj84Q8/fPCDHxzOdKYzjY/+6U9/Gr74xS8O5zjHOfaBgre85S3D+c9//uEQhzjE8PGPf3w461nPOtalXUfAAhO//OUvxzZOcIITjM8d+chHHsv/5je/GX72s58NxznOcYbvfve7w5GOdKThGMc4xr66lwkSOkBYMoP36ldCgQ4QVkLm3kinwGopsAqAQHj853/+5/jq9rOc5SzDq171quHSl7708Pvf/3749re/PRx44IHDe9/73uFrX/vaaNk/61nPGt8p77mrXvWqw+EOd7jhLne5y3DnO995ePaznz2+HvklL3nJ+JvXJP/whz8cnvjEJw4nOclJhvOd73yD18Sf+cxnHg51qEONzz/lKU8ZQQIg8NOf/nQ4+clPPoKOG9zgBsOJT3zi4RGPeMRY50EHHTTe89vZz372ETwAFrPeOrqbGesAYTfU689uCgU6QNiUmej96BRYIAWWDRDi7qfEAYGLXvSiw1Of+tThhje84QgQ3vWudw2Pf/zj9+USEDTXuc51huc///njKH1/7nOfO3zgAx8YLf8vfOELo+X/5S9/eVTiXuh2pStdaTjjGc84HPKQhxy9BO7f5z73Gd7xjncMF77whce6tC+k8I1vfGM4/elPP7z73e8eXvrSl459uPrVrz6Cigc84AGjxwEgOdnJTjZ+7wBhgczWq9pvKdABwn47tX1gB2cKrAIgsMC9CvYFL3jBcKlLXWp47GMfO2iXRc+bQBE/4QlP2Jdz8IY3vGH0MPAmnO50pxu++c1vjq7/i1zkIsOPf/zj4YIXvODA8uaRcKn3Qx/60Fj+ute97vD0pz99+Jd/+ZfxnraEHNQpjMCTcdrTnnb0NgAGN7/5zUdQwWvAQ/HmN7959CLwQASg+J98h0XzSvcgLJqivb51UKADhHVQvbfZKbBkCiwbIGSnwfe///3hQQ960KicX//61w//9m//NlrrfudB+Nvf/jZa+P5T8qx+Stnzf/zjH8dwwgMf+MDhMY95zPD1r3999ASoS/gACAAO/vCHP4x5CZ///OeHm970puN33oS3v/3tIzgQXhDSONvZzjY86UlPGj0MQg1AwhWucIURSAhzyIuQj3Dta197OOYxjzmGGPRtGVcHCMugaq9z1RToAGHVFO/tdQqsgALLBgjZifCZz3xm+MEPfjB6EO55z3sO97jHPYbf/e53w0Mf+tDh0Y9+9L6tiEDBta51rdFDAEAIG1D+AIKwgQRCSlx44O53v/tIIeGBc57znGMC4mEPe9jhcY973Bh+EHo42tGONnoXKHjtAwjuKfO0pz1tDE2gwZOf/OTRgyG3QWIkoKF9eQja938ZVwcIy6Bqr3PVFOgAYdUU7+11CqyAAssGCBkCK52SP+EJTzj+lzsgdCAcIMHQrgW7FwCEa17zmmPYoG59vOMd7zjc6U53Gr0CFP3LX/7yMSRw1KMedQQYPAbq+OxnPzvmKwAegAhQYccDT4VQwuc+97kxRGGXglwEwOFWt7rV6MXQHs+FEAMvQ90m2UMMK2DG3sSepUAHCHt26nrHOwWmU2DZAEHIgKLl9j/FKU4xWuLyAA596EMPn/70p8ccg6Mc5Sijlc4D8NrXvnY473nPOyYkKpuzCyQVCinIRaCs45lg7fNO8ARIZrzKVa4yggAhBXkG6ncBFa985StHIGF3Qz17QZtyHrT11a9+deyP0EKuvbyLYdJhUH09dAosmgIdICyaor2+ToENoMCyAUJ2MQAA1SOQz/WUw/bExSi3PJuchDyT+wEhAQ7Imt0Huec3z/EyAAgu7fnjRahtLxMQtFPeQwwbsAh6F3ZNgQ4Qdk3CXkGnwOZRYBZAqCcLztP7PBclHk9AFHOUcJS931O2/pbyUfj1dMUKGOQLCFHUKwmS8RbUvqSeFqDUUxXn8SDMOkypHhBV+wggXOISlxjPc2j7vhVQmdVeW9c8Y5lnnndbdto4Wr7bKR9u1b9565xWvs7tTsDlPHO5W3rP+/wk0D6JlzpAmJeyvXynwB6gwFYAwaJngbso43ni8ARLBGeUexWwPm/1joaquKuinwQe9JGXQUJjjk+uAKWGJOIxCCCpwCRgpAUrk0BDO7UVcNS6Z7HAJIBQaTNN4aS9Wv9WZQPQ2jLTgMs8gGKnCrKd1zqW8E/lnXqE9iy6bud+20b7zCTaVBA7iYfmBQhb0WASH81b/3boMK1M6JMdPLWvnql96QBhN5Tuz3YKbCgFpgGECAeJgQ9/+MNHYcBCr0K6VfgRGtz4dguc9KQn/YeXMk1TPO27Giq5quVfAUIUt2clJEpatK2xAhnP6ov8BP2/4hWvOLzoRS8a+0Xw3fve9x53TMhtcBaCsxZe+MIXDhe60IVGq/5YxzrW+NwkwRxFLvnxUY961HDb29527Lbf5U/YceF68IMfPNziFrcYPvnJT47t6I8DoxwNrS8Xu9jFhqMf/ejjc1UpORvCQU4SM/1+hCMcYTzESR6FxEynQxq7/AsJny55Hk6PzPjsyrCLw04P2zczDvfN07e+9a0RXKn3eMc73vhZ/9w3bjTx2dZSR1x7Xj9OdKIT7eur3379618PP//5z8fckQBLdeMBlx0rv/3tb/fldmjDuPT/2Mc+9phs6nN4yGdHc6e/5sqWVHOb/BBt2gLrT92eMQY8gM7uBxw6ztvzCSelT/rhNzkxEmj18zvf+c6+eUSX4x73uOO2WrRBE9/tlvnRj340Jr6mz573e1XsnkPnbOFFH7k2+MrYnAWiTX33e9adunzXZ3/KOuxL+7/4xS/27frxHY1bT5w+yLtB18Mc5jDj3BlXQm7oZGzZ/qu8cugUMOnMEXTRPv5yeFjCcuZWjk/4pAOEDRXwvVudAruhwDSAYMF7P4Ls/oc97GH7zgKIkKzKrAonAvle97rXuBPAdkWCsVrEkywmQitKvb61sbVQfHcWAjDgSlnCj6B+05veNFz/+tffJ7DT7oc//OFxF4PyhB2hTEACB6973etGxe7QJWcjOCvBNkhtvf/97x+e+cxn7tvNUOmcPhOYoY/DmXwX7njb2942vOIVrxgBwItf/OJxV4XDop73vOeNgEv7ytqtcclLXvL/hBj8TuE5AhrIoMQoGTTVP3Q1NnTWD1s05VUYnx0hxqX/z3jGM0avCjCij3e9613HdkM3Chh4ATAoj9Oc5jTjOyzsGLnc5S43KiTKy5ZUwAnI0R6l45ApdUepexcG4AIEAVZ2klz+8pcfx+y65S1vOe4wcfYE8GS7q2RUdThm2/kWEk5d8Y7Yiqp9zzg3w7wAYsCeebzRjW40jsn8qY+yRHNbYG9zm9uMijMHZgF8SVgNGH3rW986gsMznOEMIwBwH41z9LaxopcdLcJAxo/XzCnewGtoBnipE02Al/C8tYJuaJk1co1rXGMEcA7kAiYe8pCHjGBLX4Ax4MtlzpzvAYS85jWvGeuUgKsP6AjEOrsDrW9yk5vsA5cVADnsS3n9BBac63HlK195BGaSfiXn4nlJw0Ca9a59/ONCUzTBI+jpefyBn82L+a4eHoD11a9+9difeT0d//Tfs3xZE6ScRWs7VBDabgRhf7ZToFPgHymwVYiBwiVgvSTpZje72agYKA1CjZCn6Fgzjk0mGAktlttHPvKRUZgQ3hUgKEvYUH5Xu9rVRsFEOVEMlL71TjkRFQSZXQuUnDbtLPCMsw2ABNZhlJHvBBLvAOVQwyHqssvB8c5AhL6yhvSXYiUkjYcgZhmykmJBEtjaS9iiUi9WMkXo3RH66kIXgpMSAD7siiDo7ZJQlrIj/G2ztL0yHgSCPkKVskErwMZOD4c2EcisPeUIfsACXTxDiNtG6jltoSEh7zsFpq+et5OE0KfIPPeVr3xlVHQUbebVOzC87wIwBEooRn00nve9733/x2sQS9N/J1VSrMZunnhzPvaxj431mw88RPlQ7qxoCl87FJP/AI7trS3YBIjMr3FR2JSl47a90wOwALz08Y1vfOM4T862OOUpTzkCDvyJt9o6Q+d3vvOdIw+iBy8E/rnb3e42zhFezPgoV8d/U6p+Q6N4rB75yEeOCj6WP5ASj5f+AiaeS6hO29e73vVG+uCZy172siNIucMd7jCeKJqDuZT3rhDneCijHmsCAFIHWpkj6zNvJk1OjmcdRQ50ACJ4HH/jCXyjf7YaW9N29hg3b4B6nSeCrgCTNcNT4B0lvBnADY8Uelt7AclptwOErmE6BfYzCmwFEAhuwokVS38p07QAACAASURBVBCxwrm8WaMUDmVD2BM8BCYFQYBQVpRv65q/3e1uN75MiZVGELNMCSjWpedZcqxEypNCouzVCSSwSigKgo3VQ0ixxilgyoaQYqm97GUvG5V0wg+mi+BSznsfLnCBC4xnKFCI2uGqByAIwVvf+tbDpz71qXGMLi5XdU4CCO4TtISz0xwpfcpI/5wYycp3jLS2gRKGjvsZN0WvfucuGEtCDKkXGAAogATuZu0Q1uc617lGGhHe+qV+AIKCFrJg7bJagTAC3Fji3jaHyuuH3wAGc0XBAU2sTSEKwEUdrH/9ovSBEp4OlzHErZ3l4HRMioUiorichqltp1gKcQhRAJj+U4boBdigAYuYp8b9Cu70H6ijOHkT4t42T/oLLPBAeN8Gb4T5AEhYsaxm94QbPOc8DAAwoRf/8QOPy6lOdaqxX8AgBY1PjRdAusxlLjNazehBQfIgmFd9pqS54P1ZB3g4YTj8p//nPve5R7722Z/3kQA4QAgPi3WCXsAAzxN6eBZfstrdwx/oC1hQ9mikbSAobx0NKAkYAtKElfQJUMdvAIbxWLv4HIAAcKwFHpmsJX0xx+abZwh9/Vnb1qI+W8MtYO4AYRfKIQ4UE1gTjFqXayY4Ez6tybae6poLoouwSdl6XGxtN22k7bjgWqar9dV+VYReXUsZZxtfrsI7dAlaTxupv9KttlO9Si0Na/8n9bPerwlslfaea2PZLT1Sfl532i7YaOGPbhViIAgJT5b0qU996jEmjCYsKG5vyoRVSKiJoxO4TjekEJ/znOeMfc3ceI4iJ0jzmmXKlGXGderQIlYbZUXIEpYsW4pPOcqLoCO41E3AsdwJt7hgWen5nDnRviOUlQceKBeWGyVI6GmfB0F7rCgnKFKMLChKguJJXeGHyrPuUV5ABlpw3xLeQAhwQ7kRnD4bByXoMk7AiEWXXQyVv3MmhPp4IgArQA34Ibh5YryBEnAwLzwqAJTnlOMd8D0u75wzgXbpvwOkeHvQ2ZpgPVJIgJf+6k9i7RTOe97znn0eoVY+mSeKD0CgFCkhIMZruoEy/aCwnVGhzShHFnLc6nU9ZY2inXGgcdak8A3gJMTiGXQAJvENXgxYNAYeoeqZiQveb5Q0tzrFmTwEIIfFn/d86AcPAnCgXQCB9wI/AUE8GwBceL3urEFzh3JVz0u27ALevGd4EH2sGd4QCj9XvARODqXMtQn8oD0PHZoAcFX+xLMFfPEe8UThaUrf2qTg8TqvCXBujoAfvG9NWws8Guc5z3lGHgXQzBEgi7f0Fa+38+97BwhziucsREwWFN8KmUwuxvG5ZoxGCdbJyOcaC67KNMo3Z9uHIePqTdkcI1vBSpi7KtBWcVdmTMJL2gzCn7SvvFXKeXYSCKkAR38z1tCj7nvPwvRb0Ps0RV4Xb2KnLQr2bLbLZU4iuAImIqhqO3OyxsYU3wogsCgSoxdnpSBYsaxbfywy1ii3JwVC4BJCrH3eh7ggw4s8DwQawSUcQRmJKXP1UjCUKsuXQCMseRj8zuKk0LllgQQudM+xkNShLMXAs8D6qxa/OfrEJz4xWuMEGMEnEYsLljJjQavbHBPSFDavgVAJ5cZaAiwo8STJVfDhs2RCAp+i0B7rkvXMcmRd6je6UDyUO9oBXyxEyrjmIFRARYnqE3cuAKDvLDrjvP3tbz9a8axca5nwpkgBKeCB69wY1Y3XlaNQPZt1RKGzCgErfeJFQWvWvDGF39WVEEO75tWl/gAEyhM90ZxbnIsbeAQKlONZQQ9eJ+0kWa/KsLr+9UtZ/fa79nklzCevgLk2N8JhkRPmRHyeUs+cmPMkN7qvHnyHbjwHoQkeFlLBF+ZC6EN4CxhQ3m9ogT5oTUknMTNjqK5+CjVHiRs/wA10GRN+AKrxCKAKEADP+geUmwv18/xQ8AAdb4z6jY33w73Kj/qHFkImyX1Af2V5tvKOE+EF68d347GW9Y9nx7oT2gJo8Rb+sMbRDFAF8jpA2KUIDziAHuMOJGRZQCaY9YBRKCOMRihaPLkwtgmtFrSsUotP9qnfCXcoNMysLhOoHhNLILOeIEDtis15jluJK86CwQyQYrwM/ls0+udz9pezGjF0UDski7EhbhYX5jIGY5H5TviyGAgmbUO0YSr/LQxolmBHF64waN6CiGJmVWJejEo4s6YIPMqIZQbZY1r1URQWci5915dkN6MNq8DRvrEYxS0tSJaBuHOAjfbcY0EScuoybvUT1vqhP4SOfizrRT67ZMFtPb4VQEjiFWXOpYgGLFiCzEVxylxnzZhn1gZLhKVj7sSP68V6phg9w4Jh6VLa5h2ttccDwGLC5+YWHxGWhJI+UDx+F7smtChNbnc8TZlWCyxtU4LGQPgR5qxNbnPKAD951twKmeib/lM6+Jc7H1DAo/i7gkx8p8+ErP4RsgGsBDmwISZujHjKugSQJEmy1il5ZXhWuIDr+sBzyrNQ8SeAQLlIEKMsgQttW5+AArpSBJRIckGAJWs/ANcaCHDTT2vDmrberAN0xNtCSdZrjAfKhoJ33/z7neKuxgVApC9oQOagFRrom/kybsrWmlUfmvDkJOs//JM506fkZRiT/hiH3z1LRvEOuChulnoFFtrGf5EleAf/VQOM/DLf1nFAAx4m01z6qQ94TD4F2WqOWNB4F28CgWSYMaKncQRsoBV5AWDhJf3jXaHUtcti97w+qR9tYriYa9Y/wOVZdQOe5kAZ5cl+c4oe1bgDDD1HRrmUFYYyr3538ToZA48IkBadAlzgBfPmvr4pS1cow0iwNjpA2JZ4nV3IgsbMBLEJpvRZPBCchY+BTR4FRVAQWtW1HWYzIcoQbFC5MonpsdgIy7ietMV9BL2yQixeLmJuU2CCgqX49AvK1KYFUt3t2uW+pbABDRfQQLBjTHUQ5iwnViZGBTb8TmEQKBgqICMvuwng4cZyX4IMxuX6JfQsai6/MCBmF2sDJiwMlgGBDPWzJNqrAir0FLuLUOD2BIbQkXCwWCkPcwE4WChoYE7EMM2XBW5sXIHmy310FQvkGq0eldncsHkltgIIaEno+yNYKMF4ojI/8RLEi5TfPQMERnD5Hb0phKpko1DjAUoyV83GjuVYPTaZJ+W0RZhT4lkvldKEYF76pA6f007a9796vqL8lKN8rZOcwJi6awitrlN9C9/X5DTl8Z0+6JPPAQixBMO/6lPGukkd7lXZEE9JfZlUPBABL8pnXWs/SXT5LQlu7fyF1p7Rfo69jgeBUq7Z+hRXtuPFkk+/1ZEdD1WJxyjxG4UZ8Jf5Bngilyp4Co1Srpap3kXtpizFby2nff/lbGRsAVHV2xu5gb/SRn4DBIzJvXiH5XSQX5kD4AKwyRykL1lX8VRWvq5zlPnOHFUvbHhQP6yzzJ/fgVrKPfQNb4Ye6U9du2kjnuW0ne/qUMbv4YUq+/zeQww7kO/cVdw1rBcKRtyWoKSouQstDJY974BFBkAgPAQZiyQTQbFJVAEQCETPUaAsJ0oTw7E6uN4o22TPep7lANUTdBiZsMNcEVotKPE7yw6Y4QFxKU/pcisDChC1pBeuYczDy8DiYZWx0iFrv0PgsRQiVAlGfVAfhMrdyG1G8FDAmBeoYW2JJVLgyTQGSKBYgES/CSaLIgso00Spc+2qS1usDBY/0MTS5dbTdzThQmRtqQN4EpcFWvRLYpGx8gahpc/6ACBYGPuLB6EqpyjOKJLMP+EQXqkCx7NV2NalEquo8liEaPVcTQJbEdj+R3iqO2GL/PdbK0Aj5KogbPvV8n3uV1q0gjDfqwWd52pGeZQ83qtKPsrG/5qk2IqXjLkND4Zm9feqQNsxZfwVPFW6Za7bcUVpxrqu37WRF2zluYC8zEX6qW8BJrWfLShJn9p1XPuXsaRM7ZP+VEVe+SG8UH8LfQMakvuSvoZeFXRUUBO+rjIgPJFyaa/OSYBfVdz5nPVWwU/on36l3dA9/yvvtWXCW6FxBYABtHVN1jlM3ytYaHm1A4QdgAOPcGeK5bJ8ZcqynIEAcR0KyqTzALAgKB6xIsiUNcvtmQVhAljalBxAYNI8R2ADHyx5C4SCFUtkxbOww/wAgq1GXPYAAredsixo3gZutvYSb+ZBEEPTT31hkfMccJ36jTJPspTPwAD3MsEXa4m7qma0Y173eS6ADXuN0cJ3VipXrzLcWlyZgIPxAQuSk7gAtYlWxgeIqKMuOIuGok8ZdEo2OI8BMMZ1jXbqEn4I6ga8AC3xYTTmQUFPYQfjYHmgAw/ItAz3HbLLyh+rHoQqNKrwjvKPIJmk1FuFWpVFrK0I+laZtUqjEqFaXX6vnoMI/Vbpp75qraY/EYIReq2irOAjwr5VLi3gyff0b5piqpZ4eHUrgFDBSgVIeQ12q9hr+Wp9Vgt2EthpFUNVgqFlq6T1J17BChSViweh9rMFkwF7lbcqAIyCSt+q0q5zFDrWeW2BVcZcebQq7HpMdwUnFWAGeExboLX9KOqUrfQMHausqnxa2w/9Kr+FtpXnAlBaj0ByslK/Z2ouXF13WR8VDFYAUtfhJFDdAcKcojsEBRC4tiWZcPVzjbOyxccp8FgBJoNy5S5KnC8CKhMicSohhiwgEysmLB7s0o4cAHFVMUjhAIhVDI7CBzAod98JbrFfCUa8FWlH37XNgyAZh4s/46GgxalyPgWgQ1mGCZXjVlOOZd8K2aBx2dRcwqx5z6KDTF2AIPu01cVDgl48CBYHIJHMb/SLZZYFl374HdDgbQnzRxmI+7HqKHxeA14Q9SeJSbtCDLwHvBa8EzwO2ULH9cntzIMwzQKdk13WVrwFCJlnMW8AL675uFPxMGCElvgaiI2bNaAic9y67GMVZY5aC3ISESJ4I1jFc+UZZN3Eqolgq+EkfY4bN+slICd8k+8tyKj8HKsutKn99pz4MF7QF2stsV/lgdqEPri5kycTXsTLAKoY/bSrKgOf0T3gNPcy7qy3FlxUOVOtW7+3ScDVss5Yq4KvHokKHKqSbHkhNJwEYtq5Sz1RZlHObR/qmKvsilchgCzPTeI3Y3c/IZAoW3MZuRSaer4mQkbBtkq78ndyIKwbvJjwVtz0LVBI+Sh33z2Dd/BVm4gdEBM+8z39IUtzsihayGlIrktOxVQf/g2PtoArtK+8P22d9hDDHGI8BOWK5qY3UQSuxCTWOgVLSVZ0SzEmVKCpCNiUkRMg2SmHXWBESl5Wd95nr14JUJS0E8ZMvos7XojBdyACE8lhIGyVkwdRrQvPSMKxlUwCYcYjQYerXRKZOigYyjUM7zd5BUnW0Udt2y4WIa0dwAnDZ2+133gGhEeEI7QnzKJ+3g809JuQgfCMhDl0iDCowimfeW2ivPznEeCpkT9gDA5SsUCEEyRaxjqVZQ085IQ8iTmeRQtleBeArP0tByGK3TwBVhIBeYMqCOP9MieArERVXhqeGUqOpwnfCcnwGplHQooXBvjC+xShLXhCbXjEuhCOqsK3Vdb4EAh1yV6XnIZvzYXQkD4J0Qk78TT5HUAGxnmJsmUNuLAGAF/gUsgvZya0S5tSAJL0WVxZGIonUDhMch2ADawC3TxqBCyvFLrJPncB9Dx22gQq8RO65LwE6ztvc5wEEKwll+Q16xaN8DGvmJwQoFUYzXj9DtAKWbrQwfrhlRN7Nx67R4BhBoE5kJDoWfOZ7ZdR+EKjjAveNBdwLH+HF9Iz1jyvmjlGA6E6bZhP68PvsViNUz8++tGP7ktc5q0zh2jDW2qsAf5ogufUwdsHpFt7CSGglXmPZ0RZbQmFKqsuRgDvIK9ttn7atZFzLchlxg1Faa0L9xobw4BMcKCTeY+HFh3kkzHGkhiIhjyXxh5a4gGe4ChaYV48SF6hGX7ilVWHcCePqb7baogmeMt3tNcvfcpZFOY9oVq7eJwFIaxrPZD71lFoom4Gl77YMUHWksPWiovX2EWp41/rNyFq64IBZP1L2NUXfIXfk7TdrpfuQZgDHLQCDgMHmQbpJrGoKra4uggCVkJOM4tFz+tAwcW1l3aCGFOugguChQu+PoMBIc7sGSb0KOwgcouc9yHIu8bY62/aq67k9CfgIGOjfIGhWDusd/H9JDVFKLkfJRVkHJCUPoSW7lcUDkQQ/LmPkXlkcqFpwhwtmKh1Kpc2q1szFp/7xjdNseyQTdb2WDwIxizsJN+DIpEFTiiyeHmMCPgcpUsBElrKUMqUi90BaETgEV4OlwGsCET8pDwhLImVwAIEWTTAhPItOA1BzBWBBRzL3anJiw4o0l+hLQKNt4uCIPQlvBmHuglLglWIzkFC1hZlBCTmiOIK1MN7xiMD3FwHrKKRfhi3v2zrREc0ILS1AcjzvPHmCeXJH6I4CX0hs7Q7y4NgTVCs+qxfFBGwai6se8AjXhLgI+cBAP2MDbQGlIE44UTADBAHigFc9QM7rNQYAWhvjBSD+aFg0RLQYlwYI+ADEPJIhj+EPmXmU4RAeJ1DAM58U+zmjPIBwMwZGgBWQBslJCGZEQDQUabkoDlES5e5ROt4BAKceAONDT30IUmIgJpxoxnFyCNoLgAR9caLSBniUVtbKUyeS7xE+WY7Ks8ovpDwjZ4Ajh1hzvJAS/IZ8PEZqDXf+Ac9zAO5CyyrU12eRRfzIdEcsPOsMSQ53LZVQMkY7PBBD2CQ0UXBoz+ZBPzwBAONwJF1gXfIQc9JHCfX9RVoNz6gCfgyL/oJ4OAb8w2s4B/Aw84U/dRGDzGsTVz/veHWdV4V3TRhOk+3IwxqO9UNWF2z89Rby7ZtxNpP/xeV3BdgUd2oAWCLoNVOx78XniN4KAG04x1ibRIWAByBSkj4zqJkydthQujxdlESFKb91P4TrAQKjxZLldIm+AhzQpNQBBxYLDxHlB2FQuDFXTtpvghBwINApZyAFqCEkCcQs7WXANMuYEOo6SMlCAgA36w5Sp2w5KJnQepb5Xu8FBex+QPKWbgUMS8WwK0N4+F1o7SAAQKaRQ8MoClr0JgoKm2hMTr6rF8AwiwPQtYPS5DF6xljQwvt2s7I25UwCQXCmo3XjkXNcjUfrEzl0ZJVbUeS+qxzVnDWYujPC4jGQBjFon20xhfmnTXKA0eZ6B9Foy+AEKsWqAvwD33VTWlRzNl3r3+ACIWHL1jl+MbvlLMkZoABGHEGhvkxpzkgKDLFegc6eFuMCTgzPz4DhkAQkCv/igcFmNGmfuQZ/ZVQzgsmPGnOAE4KWllK15ZXFx5CTwAJX+X9GGgZQ0SfABZ/jDCKG0BAP31lNAEvgBBghM74E6/yNuMVdOWtk3SubuMCXngws00UGGZsmWeAA38qg7+BB7Tj/QGGgDzfAQd1ASXWPM+I3wEkgM08Whvu88TxEgGN5mPSGu0ehBVK+4rkKwrPgluEYo1AjjWdhVbjZ7sdcjwGVeBmDEH/i24j41BvBwezqVsBAguKsJCXQngRdO5T+qwlB/Fk1w3XJyVMGUQ5UCLcqYAAl2lyX8Q9WU0Ug98pHRaMuCori5U4jR/ipdIvyln76qOMKWGCEUBwNgArFM8BH8IfvBUUOevHeCg9Fh7B7x4LE9iogDXxZsCZ4lCOu5mQVg8Bz7XOoudVoCAJV7/zYOkngSqMCFQlxk/xcHtT0AAHgc9qp2TyNsdJs2X8aC+EYdyUCKVCiQklooNLf3kQgDoXaxw4odz0DZ14cigJioRHgQICEngFWq8kWlGSylGolJqxmTfhDf1GGzS3HVi9wlGAEutfmQCXuiZ59tCM8nbxTlC8+uk/8MPNzzJHY94q84zPKDwXsENRVVBJqaIrAGsOKW3AhQeI9wlAECICLHg0gU3AI7lZylOGxmJM2pIfhYeFtdBS3QEIgIx5AXjwnrkwzvCcfmoPoNVX4wMkc+w3nrVOjAuoM2/qBJLwk3YBbmEOlr4/1r8wByveGkIHuQ05twEfGRsQACSgI7ClDfVYpzx3wAHPDUCg73hKeWsRQOAt4aVBG+CdF1AuGGCGLh0gzJarSy0RgFAXVhReFsUiOtACEe3VhJzdtlHBR3XhVstit23k+TY5q/VWLKqd/a2eChAoMUqeoiM8XFzVFIwYNMuCp4AwpDBZwoQJoECB8SxQyFzIFKP7BA0lTDl5nnuXsmZx8SAQVjlnPzzSggVzy6LkGmWJEXQsMHVRuqw4O3coHsKMYqbcKTVWHIVImYv9AzCsSCBBPwj4hIyyHgJoKV3uV8ITXbiVhVVY77bgJpfAWHIyI5BFsVKW6kMTStjnvDCJ9UpBzPIgJPRFyeTMD5YgrwtFim5ARtYTsEDBCR3yHpgLSpJi4XlIfcAJsBdwVMcdOUM54gEhFPf9p2zRjwKljPEC2ptbnylAc5cwYZ3PrJt4EDwfj5+t29oC3vSfUssbKT3HmjWexNgTSo2h5Lt5Vqd5RxNlgSgKlOeLd4XCBnDMF56imPER6zg7rgAT3g/eHsoaLwhfCkMAFJ4BpoAG/IAe+JGnyVXlJ+vdPKGH/AEK29wA3ubAegN6AeUcQIRHAFxzbO2gB8AOzOkPgGEd6BPae9Ya4NlBR6AXoOLJ0i+gXN1AHq8HUILfeSzwj7nEI9YsEMlrBDygIQ8C/tdvPIiGPBwdIGyIFmiBwiIt4rhSI1wiGPJ9kW3VOmv8f1FkngSaKu0W1c7+WE8AAkFIGLGsKLAarmE5EdpR1E7GZElRmoQKi5oCZlERigQUgUZxsBgJGxYaF6vYpucJKtYOIcU6Yp0SulzfdWeBeRS/FsbIef4sMgo6ykgbrCrtELx+Z7Gx5ihxysV9SoMSYeHmZUqeAT48lzfpRchrm2uZBWp8+sidCyxlBwu3tyRedKAkCWKu9ng+KFUCmcdFzN19FntO1qvvYpjEX/riGeEfyoNnQj8IbxYeqxE4M+a8HRD9KAcgyJjRVNnQC2BgSdZjetN2jAS04yUAFFi05g1vAFXAivGy/lmnFAjgBoglnFDDCtU4SMigJkWrg4ICWAAs480rh9ExYQvKDz2MF3ANkEuyNhe8smgLJOpfQAM+0EcAkqLEi5Qw5clSVzcLPiAZz4vdCzEoBxzEE0Vhy2XAB55RLw9AlUMBSfpjHgATYQF8yFUPJGiLR0xojPcCHYxPHoAwkPUE3OD9bONGF2AEYMMDchasTfW7J+cGIMW3QI/28SjFj895engnzJl8FeuQt81a1oYxGAvAZh2js8/WO3oCyx0g7I+aoI+pU2ACBSpAIDhZ15QCQcVaEWcmNLgaCQbK1j3WDWDgM2uGgKLI7VoALlgbhKtYNcuSa9TOF4KRQCJkAQMKg1WiHtYM4ZitgBG4XPxAAIFFaLL41O0+Zce9zJLLiXd5fbMkL8rE8wQxQMINz2oDRghIdRCYLC2Jhm0OAg8HdzngAwAQkAS92LW2CX8ClWWoX8pTrq4oSYqWgmJ9ig1T6hnbVgAhYJqVqH4Cn0tYmIYiFW/WfkJ5ygXoG7f2gZJsuwzw4rkxR0nCBSbQxvyyxClv48vWTQoHjTzPm8SaTt+S7KwPysVzp295K6bn8ANrHcjJEfOhgTr8pk/ZKpqttPqoT+rKLgblKO0c8a5+QAB4ys6i1JNthTnHJadhZmtq6sa78WrwEOCvJI3rSxLzKEnrIsfTx5uRsccYQg9KnwcB3wNjLnwG7PFC4f8YMuiir+jHIwDA6If+GZM+WIvmgaLXD/MAsPFWeUZ/gQcgwWfeK23xFlHyeROre4CBPqEh/hVCMQ/ABFArxKQv1ipPFD4FQBIaakWJcfRtjl3FdArsZxSoAIEwIgjrToHqSYgwbPNU6s6TKMYoijxD2BFuSX6tYYS6vdLvEcYRnlEk9QCaGn6rFn/Nz0n5WMXpW04AzNjUr816NkKAQvb8q6MeqFM9bm3/014UcsaRZ2puzlYAIW2nfPpfd0WlrdCozl1+izKv99IXdZkXbaQdc5Stxpnr6vlLvybVlzoAk9pfICXnu6Tt9N0zUeD5Td3VC1E9gspTqP5njJQrAFWv9pnwVep1XzsJMWUeqxdEfa23tfJ2za9K/QEJAVy+5zyDWl/1rFTeiKcnZx5krWQnVdZpeLa2mx1t+Z++1LnK2SF1HWethA/St/pc9dh0gLCfKYI+nE6BSYuauz27GHK/Kt8IrnrMalVwURZRIFEKVajW/JCqjNNOEvkqeEhfWiXXKpeqRGq/lKvbhmt9VaDm94yjVTDpbwStcnV7bYR2lFEV2lUBZKz6GKGr7CwPQu1XnZcKaAKKWjqHVlEoFZRVN3GlcdqIoq7fQ4OqFEOvjCuAMMq30rcFmxV8hF/autu+tfNYgUs+Z2zt3FT+budjGvht2wuPpY0KBmvZCgQqQKugpQLgzFX+Z9ypp/1eARWa5byXyr91Tmr9037PGq+Au/J/raMDhK5POgX2cwpY/DwI3NZRzlUhRWhPsnSiLCYpjSqgJynjCJ2quKrgbIFKa4Hn+UkWYgUJsYYiTANeIugiCFshX5VSFdiT6NEK0FaQZ/xV6FYLdRZAqCzYAo7QviqgFuC03pP0r3olQpe271Gi1dKMl6Valq2F2yq+gJkWIFQQUufc58ob9V6dM78HBFSgUsFPHX/mqgU91UvUgoxWuU8CTO1vFSiEppXHAkZaeoTXqqeszknaCX3rvIQ3a/n2c/hFPfEwbNX3Seu+Av+W13qIYT9XGH14Bz8KTHub46IowX2deDfhYreBfAJJUwRYfUugRChZ7uKqkqgk44mvElSSqLK1TaxU2Wy54iJ2EI3sb7FauQzi9Oon/O3KkFzoYBmxeVnqcgni8pbQJjPcfvmACsJXvsJWVtMiaJSTFG1h7FenwF6lgLXWAcJenb3e706BKRRYNkBIsxQ1pS4xS4IX4CAxLEf0AgEyryU7SpryX3KUnQU8ADLk7X6QcS45UuKhjGyKXKa3eiRzOYhJolbe8CnbW8a5xCs7H4AIddlmKEvdb+oTZtE3BzsBCRS3jHeAf/x1JgAAIABJREFUY5lXBwjLpG6ve1UU6ABhVZTu7XQKrJACqwIIsu5Z9oCATGiHu8ispoB5AGwZkwnudDc7DuRGKMeKd5CL3QF2KjhvwE4H5zA4sphXAaBQTpa8rG3Z2bYeAhGysWVo23ngNzshcphTXsUuK9xWMiclOhjItjXHJdt6F/d5dVsvcno6QFgkNXtd66JABwjronxvt1NgiRRYNkBIHNQWKyCBl8B+a/u87eG25Y/SpsBZ+c5FoJjtF2fVxwPA26C87V22dFGsTozjmXCwi6x5QMMhTvbpKwc0ABC2NDpJTljBVjFhDFsPHcFM8Ts0Bh1si8zBN7Zh8iDwYGQ3wjKmoQOEZVC117lqCnSAsGqK9/Y6BVZAgWUDhCTDCQE4VMahQ3lPgaxpJ9d5iQ0lbl+3fAXnKshBsBedN8DvwAAPACvfHngnu1HivAOUvjCD3ATAQr6BU+WAEB4BgMMJe07Wo/SdzeCsBb87M0F+g3MenAHhdEaeB0f8AgftEcSLnpIOEBZN0V7fOijQAcI6qN7b7BRYMgWWDRCScQ0oOGiFFS8U4KLY7aBg+Qs5OAyIwpZhLQcBOHBgjyOEHbYkFABcONApHgT1UPROo5PX4PhZB9QIP1DwTgB0KI1Qg5CCM+x5CiQ/ykfQtrwDh0MBHUBLXpOsb5N2VyxySjpAWCQ1e13rokAHCOuifG+3U2CJFFg2QND1bEVzSpvLEczc9vIKeBZ4Crxpz8lvdh8IC/AUAAx2F0hq9KwjoL0LIS/bEXJQnsXP46A+eQyO6pV4aMeE3ALnyTsmGNhQN0+BN+g5b58ngVfBS3zsrnD0rpfgqMu7HVzJQ1jGNHSAsAyq9jpXTYEOEFZN8d5ep8AKKLAKgJCtg86eFy5wSp/fhBzsJuAxsPVQ8qFtiDnIRYjAkbheB+wcfPkBzpbP/nEgQwjBEcfeNeBtdDwIPAzCDTwVAICwhjocMcxL4J0F2lS/tpzKp107H+Qq2HKoTrsc6l7yZUxHBwjLoGqvc9UU6ABh1RTv7XUKrIACqwAIhtEentPuCsj9dsiTdg/UsjnoJc/NKh+PQG2nrW9SmWVNRQcIy6Jsr3eVFOgAYZXU7m11CqyIAqsCCCsazp5rpgOEPTdlvcMTKNABQmeLToH9kAIHB4DQeieWdabBTtijA4SdUK0/s2kU6ABh02ak96dTYAEUODgAhAWQaWlVdICwNNL2ildIgQ4QVkjs3lSnwKoo0AHCqig9uZ0OENZL/976YijQAcJi6Nhr6RTYKAp0gLDe6egAYb30760vhgIdICyGjr2WToGNokAHCOudjg4Q1kv/3vpiKNABwmLo2GvpFNgoCnSAsN7p6ABhvfTvrS+GAh0gLIaOvZZOgY2iQAcI652ODhDWS//e+mIo0AHCYujYa+kU2CgKdICw3unoAGG99O+tL4YCHSAsho69lk6BjaJABwjrnY4OENZL/976YijQAcJi6Nhr6RTYKAp0gLDe6egAYb30760vhgIrBwga9A74BzzgAUt7YcqsF7HMur8d0i6iju20sz+WWQXtZrUx6/5ep/vNb37z4QlPeMJwiEMcYq8PZU/2PwDBq6036YTHPUnM3um1UsAbUl/zmtcMN73pTefuxz/997S3sWxR1X3uc58RIHjjmje39atToFNgcRSwJG92s5sNT3rSk8b11dfY4mg7qya0J9de+MIXjq+g7gBhFsX6/U2mQDwIAMKNb3zjucHujgDC/e53v9GL0L6xbZMJ1fvWKbBXKGBdQftPecpTxi63Fuz+YtHOehfDrPtoM6vMvPdT5wte8ILh0pe+9Pga7Hnr6PPz95W2W9rNen4RPLBX5ELbz1m0wYfA7s9//vPh1a9+9XDDG95wbmNjboCgU7e5zW2Gs53tbMPf/va3iSBhka+MnZcos4jWMtRWi3lWXbu9vwjmntWHRbRR56C2t515nlVm1muAZ92vfZu3rVXQbidt8BhQUNe4xjXG9bW/KJxVCOJZ9J51Xx//3//7f8P73//+4VSnOtVwpCMdaRXdPti0MYv+s+4fbAi1g4G2tPOdLPnlL385HOpQhxqELee95gYIGrjnPe853OEOd9gnuGZN6qz783Z6O+XT5m6E66x+7/b+IpT3rD4soo3t0DtlFkH37bY3a+y7vb8I2s3qw6Q2KKjb3va2w8Me9rBxYbd1bJc+vdzOKfDSl750uPCFLzwc5ShHmdvq2nmr/clOgcVRIB6En/3sZ8MHPvCB0YMw77UjgFBDDPM22MtvTYHtKJROw/2fAkIMT37yk4d//ud/7gBhjunerRcpTUlSvMQlLjHmIPRrcRRY1Pwsrkf7T03TvK0/+clPxhDDTW5yk7m9kTsGCBIVe/LU/sNcfSSbRYEKEDarZ6vrzXbA8qwy8943OoK2bnOcVcfqKLJZLW2HLrPK7Pb+drx8m0W11fYGfQMQVraLgQehA4TVTnRv7eBFgQ4Q1jPfBGoLENbTk95qp8DuKYCf/+u//mu12xw7QJg8cbPQ8O6ne3bW9iLa2Kt1zKL/rPubNO4OENY7G/2gpPXSv7e+GAqsBSDY4ggkxB23mKHsvpaaIJcdFm0YJBaC//lcz3PYKqlRnRLI/E+92er5l7/8Zbz3q1/9ajjykY+87742/vznPw+///3vx4SnSUl82k897qcN/9O3rZL/6r12TK1S9F3f2/Fr37gczJP+5Lcku4iH51ImV820/+tf/zr2P3Sc1J/0Kf9/8YtfjNvJXOr1fFyHKRN6t/X/7ne/G+P0+p1+tDSrnFXndyua7p4bd1dDBwi7o99un+4AYbcU/MfnIwsWX3OvcRoFOkD4X8pEKTgMQua367Of/ezw1re+ddyWScFQ3O973/uGZz7zmaPL5VOf+tRwrGMda1Qs1772tYczn/nM+xSb+m50oxsNhz3sYUcF9JGPfGR4+tOfPmaDvvnNbx5OdKITDT/84Q+HE5zgBMPDH/7w8dQ7dV/0ohcdnva0pw3PeMYzhrOc5Szjjg8xoAMOOGB429veNsY2j370o+8DCtr52Mc+Nhx00EFjG6c97WmHox71qOP2Kv8pim984xvjGJ74xCcOl7/85YcLXvCCw29/+9tRqfr96le/+rjt1Dj+9V//dbjb3e42jjc0ofgvdKELDec+97nH5z7xiU+MGfLnOMc5hj/84Q/D2c9+9vFQnrOe9azD5S53ueEd73jH8KMf/Wj8/v3vf38EDp5/+9vfvk8Ro++LXvSi4cMf/vDwzne+c7xvXKc5zWnG3493vOONrq3jHve446FaaHi9611vHNNjHvOYAaB6wxveMDz72c8eLnWpSw2Pf/zjx61l5gWdjnOc4wzAgHEd4xjHGOtAzx/84Afjf1n+nvPZvJqTl73sZcM3v/nNsV5jvctd7jLWiR8k6Dz2sY8d5+M3v/nNCOSOf/zjD7e73e2GE5/4xBu3nbADhPUK/Q4Q1kv/rRTebnambeaolterDhD+l7axBin1Rz3qUaOCpbTPda5zDQceeOCogPxGwX/mM58ZlfYFLnCBUdlWK7t6HK52tauNdR3zmMccn/vQhz40HOYwhxmV1xWucIXhj3/845jpbM86JU0ZqYu3gMKk/PxRTOp997vfPR5a4dl4CqpFfs1rXnNUhBQW5X7FK15xBDN3v/vdh9vf/vbDoQ996OGud73r8IpXvGKsj/J9z3veMwISIKVeQevxApzznOcclbnr61//+vCsZz1reMhDHjICE4DBXlm/AVh+N5aPf/zjw3Wve92Blf7e97533NpavR3qAh6ACkpZm7Jlj3jEI45bxJQ93elONwIgdXiectYmoHKRi1xk7JNxfe973xte//rXj3UY12Uuc5l9YO0tb3nL2J/73//+o2IHXIAMAET/0OJ1r3vdCAgvdrGLDa985SuH853vfONBQyc/+cmHRzziEcO1rnWt4SUveclYp7q+9rWvDde//vXH/sdjYTybInw6QFie0NxOzR0gbIdKvcymU6ADhDJDiHGd61xnVNysxs997nPDBz/4wdHaZFlT7pTNU5/61FGRsfhZvYDD4x73uOGQhzzk/3m/hINqeBiOcIQjjModWGDls7DPcIYzDN/+9rdHz8B5znOeEUCwWF0UlkNWgBWeBlY/C91+VNY6y9fVutqBjAc96EFjnS4KGjCgSIV1WMee5e2gHI0TeLjsZS87KmLKTVmKL5ffWOIsamDGpa88CDwmwAp6eDnQ85///FFJowMvAI8JpXy4wx1ubPPUpz71P7jxAxBe+9rXjnVTwqx5IIe1f4pTnGKkP4Dmty9+8Yujl8Fnng6KPZe6ACoAIh6EW9ziFiPgevCDHzyCru985zuj5f/lL3953AaYcA7ggd5ACC8EYAgIKYeGQmLqzfgBBOAigGDTDiTaiwAhYausgU0Xnlv1rwOExcxeDIoqj3ZbszqrAbQpoH6341rG8x0g/C9Vo2y5ku91r3uN7neubxYqZUp5sFQBhWMf+9ijpc4SjQcBeKDYkwug2qte9arjmfgABC+CP0qJYmapUlZRokIK7iVeT5kCDJSzAyoopC984QvDm970ptFSD0CIxwLTa4/1ftKTnnQfr1zpSlcalSurmsKjyB/96EePLnvWsRdxPPShDx2tZG2LxVPwyRGIB4HC1Fe/U6CnPOUpR9DgvHneBeEWivRMZzrTCEZ4OvTVcxT3u971rtEz0F7qA1AABGPh3aCsz3jGM47WPu8NxUy5A1tCGmhtnLwVwJa5E3JAQ5+FFAAhdZszZV71qleNYwf8gK873vGOw61udasxxOMCBHhSgDplgbavfOUroxfGCWLqfN7znjfSCGhU/gY3uMH/AQjLWKA7rXPRACGekvBF+G5SjkrNA6lANmGrrJH2v7p+/etfj+vFZ3MtRDdtf3b7e3hVO0AhXsbnNZ8lHjqgtYK79HNRyqIDhH/k3En5UJV/Kj/gt/CaOZSHlRePBYzXnIT2s+d5HRlnrvoMWUGukgU+JzcqZ4Ysigd2unY36bkOEBqAwHqmeAgpivAkJznJaNFy84t/h8lZlGLwF7/4xff9VhkLgwox8CwAFLGKfOd1oIgoQFa5mLlz2ylqlrGQAyXIm3HlK195dP87cEXIwzMUdWX49EmdLHYehNz3G3c65QogUIy8H+mPHAFx9Tvd6U6jUNZuG1O3mCh6rn5tffrTnx6VvwXod14HeQ4sespcHgRwQ4GiJU8JsBUAVQWzuo1dfdrn3gfOznve845jAD4AIp4BXgsLGk2e+9znjp4FVjwwwXMixAKoeO785z//+P/whz/88KUvfWn04Hg+guRb3/rWmNOgHoIBWABs1I8+wA8QgF6EvW25nvE80OheThbbRIGyaIAQoWW+8CUvjDAbAQyEEd4PfOADRzBmvaAT8In3hWDkauB7YIvS95v75tpa4f2y1qwP9Xge4DXv2lCetwv/Aea8d9oEts2RdaGshFW8DEwDmqc//elHj1OAxp/+9KcRKOJNF9DKexblsKizWTpAmKzmouh59IA49DZPAJvLer/kJS85ri8GlJwsZcg8xhs+4LHEO+ZNXhP+wUdkJJmAd+SO/fjHPx5lBWBvPVinZIG6ySQynqxk7OBN7dRw4SYp6nX1pQOEBiAABSxHjMLCZoliQhYlQRiUK6YukS7xfoqF8Ml9zPbGN75xZHCMGMFDyRJWXOcY21vfCFwCThjBYpE4h7FdX/3qV0elqyxFalEBJkHX2Tmgb6xwihWQCQBgDVPgFqA8AYqSxa4/niVgWc7q891OCeEAiiC7FQhPils/MQwhTEDriz4Zj0t4gMeCguVZsWAtSKECOQXKez5tAyPozGsgjELgK28s6KqsvrH4LWCeEc/KmwB4eHPkWBAExgisJbE01qo59DwgVPNFzJOy6O8C5oR9JFeafx4X9DIX5lU+wq1vfetxfuU7mC/AZFOvZQAEPIIW1gRAJ6SE3yj2O9/5zqNnKnRXVniHV6d6o9AZkATk8CZexAfAAHBgbgEvoAAv4h1eHrQG4MwBAE3I4z0hJ/POywcMAKSUEPCHn/A775/n8VNycygbPM6rRynFg9ABwnI5moxxMS5c5oAxwTjCB9lRZL0xaMg/clR4NsfzW3vAvrwgsoOniUeW/AEkhIF5Y4UZ/WmL/GAEkNv4hzyQp4Sfea3IZTy9iWB/uTOyde0dIBSAEOWeuFfcqi3TVLdYFJ58BUIvgkZsGwO6KmhoY2p5Pr9HmEbBZ/rSB/fF+Skvl+8y9YUkIgCj2Gu/436tWyCVzxgzJuUsIug9Y6GYqxCtHoDa79pefq80tUuA8E45oMECTjvxekSI1PCJ+uIKrG1mS6T+56+OP96V1r0Zuob+dR6qsmjnS/+zy2WThcmiAUI8L8bP6gLoWOnmDxDkQSKs5bmED+9973uPnh3fha3k0wjZ4CXrA8AzfwAlLxFFoKz/cnVY+UAlrwTwCyAAb0Aoge6/BFkgBW/wsP30pz8d7nGPe4x1mDvgRTntUxAsTZ4gY2CFskZrGGJRc9o9CP+oeMJD5iU8Yq6sdyCPN5LHj8IGHHkBeBMYaGQFfjLXeEDoEX+gM55kNDFaeJ8YFerEI3K2AjLxrLXLa0heA47qYfzwOnluUQBxnUp9kW3vaYAAfda99VVxRyFEQW+HaK3ib59NnZMUYY3NtgtB+cp4UZpR8LGo/d7u4Z8ETvJ87qW99ntVglURpny9P6nOqiirom9zLVJPBQX1tzZeXfvZKmr3Qsva52mC2+/hg5xdkXlLn6vyr+Ah51FMokcLsiLU1F3nqM5l/VxBT+XFyofTnm1/3w7vtmUWDRAytywu3hovI+J9IZgpWzkhPAgELoGtPMErdIC+vGise989w6NFWbPyAV6WnzAeLw/rjlcqOQQsRLtKKABAgRdByML8AcbqVVYSL17gPk4Srnp444QShAUpkMw7S1KICniI52NRCqIDhOlcix+AAOFQHtZPfvKTI0AA1uRCmWeg0LwCCXKb8BWjiAeK94j3iodK+MC888iaa54sHgTPAwfCB4CCeQUQhEeBBF4I4BGQ5GXEr/hkUfO/kzW7ic/sSYAQRc49noNvuKdcBFiEOUYgbLn//RZBrWyrcOL+9jsXt4ug80chECI5BMg9bnZXsuD1SV9sv/O5HnZUFYQ+V8UUZaP+KLYkWOm3K263CN4oNL/nuSgk90IDYwkNoni1H4GorDrSTmjiOxpUoJO2UyaHMMXaTzt+91xtx6JDG+ET5SmLKPYKBvLmwXgZcniROvWJgPAb2mojh0vFc6CctozfFcCgLZ8T5wydtRPrsX5WNvOZ8aFH4tThp9BHmfBH+hSFw72pX/4yngCaAAH9DU/7Py0xbx4BsmiAkLFS1sIuBDVhKxTDTW/rL8BQwQ03vryA0FsdrD6C/eUvf/m4y4aC51mg8O1IEZKgXLmMKQXtSXDlPaDcv/vd7w5XucpVRqEvJJS8EHkv2laWYkFDdSWRWD0ShjMv5hI/amsZHqEOEP6RW6s84UkSJjjhCU84/je/rHp84bMwnhCSeba2eIeSX2C9AXv4CBB88YtfPG6VFlqVTOw3idl2WAGpPEjWN7AgJPXIRz5y9FbwLAhl8ErYupxQ6aK8SPOs100tu2cBAgQotky4EL7iotAjSyOKRoIUywRyJJRNPGZjhVS3osmRfU/xKIeRMGQYy2+EOKsJAzpLgEBEPOhTfEzdLCgxT5/FPJMUF4tbPfpIsIqvnexkJxvb8tnC0DdnJXCp+exsAGDGgtAfyYy2D0ZByhUgcGtiDSWK+Y3dc1Ayy0w9XMIWjR0R/ggxQtci4RqG3i0ocT9jNA5/lD36Ggf3Hosx8WX3lNEHi9KcADjoYtGZHxfaQOvGJSTCXSinwWKOcvY8oY625ge95F8AFNzDsQpZG+iIvpSF2CGXNGWkfomf5o7gYE2aM0pMXdmKaiwUkAQ2AoIl6Tn/JcNxg6NbaJBcCfV99KMfHceC1mhlrJ5l6VBsLFwCSz4FeqOBhD4xdp/FRyVp4R9j50bVn3iSzAv3e8DhToTHMgACMGd3ijWF/vqJ1/Cx+LA5DtAxd+as5iD4zXc0sJ4+//nPj2E4liPaUNisODzNMhSywMM5y8PuImXMLSBAyYhdcw2bf+CMXJBEir/Q2W9yGvCOMAjeZLXKf6Cc/MldaD1oO6F5faYDhOkUxAe58JQkbInSMaSsCfkEPEsOcgNIyWxr3TzxPFD0eBB/kFl2U1njZJN6JK4Kf0lkVA/+IlN4G4Q18KlkVbIBf9iVZs1nve92/veX5/csQOCiItglmhmEODm0SeBQrJKcZO8TXmJOmCjx9hpXDlqkdDASK481w/qhJMVHMRYBQ5mySLTNGtEugcdrQBGLhypDmRBm6knCoLKJ/2uf4sD02qcQuWj1U38BBgrEWJw1YIyEoKRIbjPxuHgEYp1V61+CFgFF4VB2BKKsfuPRtuQeQlHd3HusQYKV0LR4fOcGzmKxYLP1se44sPVQXoEYtOQyCphQ9tkcsAKe85znjIKZkLdItY8u+kABU9J5Ja576Oo37QEY8jqAEgrXuNHR4tc2ugF/dkhQGOLdLFIgMac2qo/iBsRiuceSMWaWCKChHopLoqi2KEECxPyjA5clYIdPgAPCSX/Db+pES3XxGihj3vQLYAjdgUlgj1CMZwNAAP7aPIndWDLLAAh4jXWHR8yPNWU94DFJYObTGjPf5prVbv4zDrsbrFOK3y4Ra8X6kTcgHyCeAomilD/wAeyz7Mw58Gae8AHwcctb3nL0IuiT9oEXCW/mTH3Wi1i2PuEpawwYsbNHoqQ1pT7lrfvwxSKEewcI/0jFyN9sLYwXkEUPIMQTSC5am+bbunMCbDyd5CJvkcucklnAZraZW3fWn11H5A+gSNblIod4rgAPBgRZy/NFRgAJNaF8EXyw1+vY0wCBe5MAoKBZpQQXxUFgUcaYw0IlLG3LoiDEqgibuBUjlMU+IVN1sUpYpRArgYM5CTpJLYQaJZIse8l82mWJsIj9bp88oYgxZWJXQa89CpcApERdfpMkkzMPWOGseZn6EDFrCjAgAHkosiWHYJThrX9ZfCwsAlC//UYRWQAmmuLjBbHVzCJkPVPCBC2PgwWpTkBFzLa6BBOTh9QJen0GPCwsi0pMEOjxGxcvJWgcFimlaV6MoSpB/TEPFjcBLVENMANQ/E4YWLQABfCGlvpBmYoz8qSYf0LEMyyAZLUDDeo0Z4ARKz8CqCY/sjAIFYIGLfRbe8AOMICHlOfdAEAIo8RFjcUY7Hwxx4QSwKDf5sxR2rZe8k6xasW8zZ26AAX14gW0ATB9pgwJMXXvZsvVogECPg39IvTC19MUa36PdV6BeQtsU3/CgwGntY7aXspXAdzeD4gOLet3zyUc5vdFx547QNieaqyh30mAuP0tHqqWB6tHIry1FY/Ue9V7tBtQvr0R761SexIgIDH3Lg8CZWyhs2y5mCk5wpeCY5lSIhS9BascJUwIJxapLp+5hgEDZShlSovyAQh8Zhlzs7N4AAnKlQJmJRL4lDnXJwuWBcW61QcKNZn2UeIUAcslmdaYkvI3Hm5X/dEGq5eSpYDVT1lSsrwByYuI4o6Ag54BBGPRjrgdpIxOlB2ARMECElA7LwJET0E5IZEXBK0CXFJ/cj0CEHwHBmK9oYG+oSOEb1soZa1t7l+K2G/67bsxxQ3M24MGQAGwAmiJ+XMZUqjowlr1WTmfeRUwLzryFvif0AkQBFDIOeCuBpaMOwqiJiDqMwve8+iS/BDAx++sTuVZx+pRhyQqQMZnQI9FzHXNKgZEhHJ4LhzFLa4O/BGEQKi+AZg52toYhCfiqVBnPbhlp+JkWQAhgrUq8Gl9jDBP2eSbVCFcP1cA0oKPttxWdKntVoVSgUoFKOnfTmk96bkOELZHzUlzvr0nJ5cKj+XuJOAXPkiZlk930/7+9uyeBAg6zQVF4XD7UnCELCufe511DBiEWSj6nPUf5lBHZR7KnxWZGDVFwSJmHbooJF4FykrMnquShQqQUELqYn1SFpQnhUNIszCT6JbEPm1TPuqrlj8LGECINaoMV38WEUtcbgNFk4S5WJkBPIm5sujd44qlzCg6IEc594AP3g40BB54ELh0ud7QsArNuoBYyDloSTa7nAhxPAqZi51bFwADFChNeRLKo4Pxopl7rGmeHDTLYTnuaR84Au6MJda7z9z6LHhKmbeBpQ2UAQj6xUukHW5DCU/xIFDsFHeUQmhuXNyUlDW6A2nCE+hDueObhJjwlMRUnirt8cKYZ54LfOO+OvRfOEq2Pi8CEAgs6D96CcloE4iNi1XfeUQAOr8BpPG07NSiWQZAaK2unQjDRbrxZ7Vf26o8vIhxzGq7A4RZFPr7/XZutv9kL7lsCuxJgIAo8gBYwKxESiTxesqbizuHGlEGXOYSUQIKqkUTa5LC545OJjwBLQ6trmQ8U2rKcEVLovE77wQlqx7uf22xfIEGCXws9Aik6kFQN8WRZDwKRJIXd7iLYhFflWijv/pFiYjTJumRVe6AmWrNifuyUvMSIoqLwpYwR6mpB7hKGR4Sljxlqk/iu/Ig4g6ugAr9eFAAjiT5ARPmQJKj0IO25BfkWFThHi53uQSeVR/QwqIH6HLegt89R8nyUiSmqB8UsXGon1dGboDn0UgCE28NOsv3EHs2Du2irfCKMZmTKN0ABQDGn37kJElgQQKmMQEhOYGNd4LnA3DQZ2AKWAlPAErumS9zKb5tHP6jBbqEVmKuLjTk+QLQJDH6bqy8F5uWpLhbQbRKYLDbvi7i+Q4QFkHFndfRQcfOaVefXBtA4JreTdyvjUUZVFUAUcqxwOI69rsdA5S3OvzOcqdwpgmx1hKZZNW1zypDgVAcrmx1ozTE0lsrpiri1gU2ySWrPfXnzYwUi7HwOrC+p7mAa93VjRum8JtMfYnH3aLHAAAgAElEQVSG8U4AWzwiASbTLLDWDdzORxTzpLlL+9PmoO136qh1TYvbh1a8AbHa48VBq3hfWnpM8qJsNfZJ45rU73Z+27FXD8dO1wgQJZRRzwlZjMjotWyHAgEIWYvbeaaX6RTYNArsWYDQCtW44acJ9SrYCd26o6EqrmnxyFb4tyChtp/60uYkRVkZYVJd0xRRfS5Wvv8JOUTBzuuiroq5xvEqwKpJXRWhT3ODT0PxoVUFJdtxpU9SwFvNS1X4lS4BbHV+AoZqfbP6tEgrZRpomtWHaQKlA4T1itoOENZL/976Yiiw5wFCJcNWHoBJirUCg51aaltNQ83aTt/8r0lyu5nGeEBqtjuFUncK7ETBTAILqWcn9e1mjIt8NvNRvUkBhLNA3CL7sYq6lpWDsIq+7w9tCD3ZBSNUtJfXzP4wF30MO6fAngQIs6z5lhzV0mst/d1sJ5sGSKaBlgoSFik0JmWHV+u87c8s70Vc4JNCENU7knq2Q4edlJ3E1vNY7bVf09z/FcRNmpN52tuqv1vRfKvlOy+vp64OEHYuFBfxZAcIi6Bir2PdFFgLQHA4jT3ji1KSW9XTKomq/FrgsNVkTFMebdx9kiJo25mkgKsynhZymNS/GgJIjkD1IGyHwSa118bJJ31X9ySX/FaAYZorve3ndmkwq1w7P3Uc6Wf9bVp97fhbALbdcU0CbougV8t3QgzZtbKodbYdXupl/mdN2AljZ1QOAet06RTYixSgSxxkJn+L0THv9U//PadkVNxBNLaLVXf7vA338p0CnQKTKQAo2plhV0jyRiqY64BhcZzTir/INDtenInijI85ReTiOtdr6hSYgwLT+NSZOXLcGB3zXnMDBA3kGOIa/5234V6+U6BTYDIFcly40zgn7TzpdFseBZID5LwL55X0XQzLo3WvebkUCNh1rst73/ve1XgQDMm+e/vva0x+uUPttXcKHHwoQEk5qyLvtNgqDHbwocrqRoredjE4vM0hYP3qFNgLFJgWanZkvDNonCU07zW3B0FMAzhYZA7CvJ3u5TsF9ncKOBTL8df1deDGPE9C6V6k0SaMTx8kKeZMkr1Ix97nTgEUoK8d4uZQOof/zXvNDRA0IEnRQUmu/Ske6gS9nCAYQZWEwWytS5wnh/Nky2OEd07Tq+ca1LJVyE/azljbVbZuqXSv5n20CY65V8ehjSp01Ze3O/q93QXSCmjj1k4dQz2lMWOo2wzr57QRV3mtvx1//Z6xJowV12+2s26CIpl3sc1TXkKRg5LCj+2zoVVeg17PgZjGF6kjtAufhNZZz9MSWvP8tG24lS9qf7Nmwp+1ntpmzjap/cx6qbIm/VOfZ9pXv9dYbLt+K/9sJb8ABB6EnIg5z9ztL2VbGRhaVvkxKYm43XKc+aiJ3KHRdnltktyMAoyMrPIxbe1v2593wltCDN4p4xThea8OEBqKtYonzN0yWhRWGLFVYGHoCM32tL9pijntt682boVzPSgqQq8K6LycKQJ00rj0uX2FdvoVQFTLVECRrZkRsnWc6WteC1tJ3AqUVmlUJWEMxtaCsQiV/Qmctgt3FkBQvp7YWJVmPUgsfJj5r0I6c1vp2PJS5dM6/23bVRHXcz0q381SFOZbPbwm4d+WvyYB5CiKlPVsXv+cftYxtn2fJDQ7QPgfqlRaTQJ4086faUFh5FmdqxYkhB+z5lugWMFEnc/IIm20Hrd5FeL+Vt48AAjetbMygMB7wIuwvwnoFjFXRFqVb7WK80wWRF0w1bqO8IrVg3Z5S2SEeBXmtZ6qpC3YCO3qrfAsZJ8jobNoKOksmsxXCz5iSWaMta/VGvV7lE+7JbMi/Faop/6AqFq/e3l/RgVZVRG0yqIDhP8JNdS5bb02VRlXerWKPPzbArPsnlA+ZSad9llP52znqQW77QFX+CDP6KOjx+Mx8T39ruAz5av3o/JteDvPRyHlTbDhYc9kPJPkWAcIfw9nRZZY83kBm7kkV1pDpfUutS+6qzKgyonIsrxsr4KFlKuApSry1vipa+Hg7kEIQOBB8F6iea8deRD2V4BQFbU3G9pqhsG9ZdBrl71h0LsZCCGuRy8tItS8pTEMfaYznWmM9ZiYCE+vlPYqa8wqK9rLhNx/0IMetE/4enugd0ooI/bslcQnPelJxzcgerOlNr2y2IuBZFd7k2JdnOoTa/Ka6Ah1v13oQhcaFzJ3qf544ZL93d6k+LOf/Wzkl//f3rkAWVVlZ/i/93bbAo1EFBFKhoc4igafNA8FrLLQlDXGQCBM6WgFBJ1YozBDeAhJxpFoDAMYMtZMHEMiZACdSooqM4OWqEBAR0toh5SjUEgVyqOAFA+BRqD7PlLfvqx2c7zd5962aejufaq6+t579jlnn7XXXuvf/157L7Ir8myuJSMi74KhBgSSx8EoXAAICbZIkMQ9MRbM05Jsae/eve46skyynMaMO5kdkR3poTmQIZkpqQvBrmSkJNEWc+7EtiBTZLtv3z6XIIrcF6Tf5hrybxC8x/u3NXAa7bhxDAJtYbk7yMDJWmdLkMUSZJJXkdCLvCXoA0udyCHC5+eff97pIUml0CtzorQ5ybSIL8Jg06bInHZBV3mmpWC3a0gJzr0pTwp1ko1t27bNtS/leR59gnLmLEj7TUIxA+AEBJJVEz0jcRoR15aDgvThpIYnSyfpzOlv3Ae9QqfQNd6BxFzIgLlW9JmkW5WVlfV6SJ9keTbXEnjYt2/fr+V+8dsgAISv9kipqalxtoADnUB+tA+68sQTT2jOnDnOltBOtAnJ5LBZ6BsJ7NAnMqmaozfbwLVkod29e7fTFVLLYwfRY+wLWWYNVKI/3AM9u/baa51+kRjOBhLoGbaHrL0GYrgPCfEamqYr1Vm2xvLIhwR4MAgtBhBocDpoWzXSKBsbS5ARkCRQgIUdO3aoR48ezviRaZH/OFucHNkOWZLGgVLi4HyAgJHGMRJFirPD0QMCcIZkr0SOpDkm2yOd7fbbb3fbvFIWOZOyGgeKEa2qqtL777/vyvLMioqKer3FUBKx+uabb7pryTZJFkIAAYCDDsw9Vq9e7faxoF50tGnTprl3wBiTzdKAEsDIaH5Ldb1z50737itXrnQZF5HR/fff7zIw0nlJnYxxIPMha8kff/xxF6/C+3z88cfO0OCgMAis88cZ4PDJsEnHv+KKK5yRp6OTcROlpl5cg9HAqLDM9sorr2zTiYwaAwg2YiIjKvKk7QBhyBmjjG6RItucP04VUApI5VoDfBh1HCz6CBBEn5Ata/8Bm+gnf7S9MVeANsCpGXl0i2cfP37c6QCgmv5CEjKcOkYeEAjAo73pW7QxewxwvP322w6A4ChIHc41ZEEFhJJum8yZABkALU6CFN7oH+W4htTg7733nnMyloWUbJ30QxKU2XHfffc5mdi0l2VpbcjoB4CQlwz6smnTJmcrAIf0S+SO3aEdsE9bt251fXbjxo2u7bBPZEvF2Q8ZMkQADFbkkDkXfaA9GVSRvRW9wk5hU312AT0COHJgVxjooGd8JjaHLKvYE9qa9qd9AZe0K8+inQErQ4cObdN2Ig60BIAQJ6EmnEeopCfG6DHSwRmDRDFajGxx1nQOjCkGmtEVI2uMH+Vxmj54wlhiwDC2pG3GwDJqpqOYk0axceykveY/96AelCENMcZzzZo1rkPxx30GDhzojLdRrOY4qDvoGmdKh8Kosysf4IGOhYGm47z11luu8zC6ov7UD8TPwe/c35//N5YExoA0zBhv6kLK49dff911StaPm3EeM2aM5s6dqwULFjhjzzNgKjDy1Jn6MBqB3SD7JIwJAOaGG25wo1GeQZpnDNO4ceOcTAE51AknZqPMtghUGwMI1t4YXlJhw+LQ5rAtHIAvdJKRA2X5QxdoB6OGMc4cGGYLhuQ8bQQQg0miXfkzw41T4HqAocl87NixTofpGw888IBeeeUV5zxw+ty7d+/eDlzj4HEmftAtusu1gF5GOPQtGDPbB4J3QO9J1W1ptQGMgO3+/fs7Zo/+x3s+99xzLhALHYShQMcY4dJX+U46c8rDMgCgAM42zVfIRASAkAcH/NHfsYWwlwx+6KewOfTLu+66yw0K+A27haOmzdAF2AZAG/oIwOezMa/oGnrC/RkcAfjsebQLoISBkcVQodsMGNBNQC1glnalHPYZnUSfsBsAVL9tG4qTaIJraHWXnJMphvbCIIBQMXCMXDCojIRwtDgwnBN0N5Qq1CVOlhHb+PHjHbXpxyzQgTBKGELKMCJGmUHFGFg6H89A0TGEoHEb5c2aNcsZQ+7B7zAbjLopi+O3TmYGG4XAUFJ3Rkxm3KdMmeJoVwMNOH+cCwf1YrTFKB80T91x8iB+v9PavTDQbEWLUabz07lvu+02926stwXRIwNYCt6b0SsAAqMAALCpFJw95ej8a9eudeDqgw8+cGCA0TAABoPPvXkGTgdnANOAI/HnmVtdz42pcNwUA+0Cg4BhBITB1OAsMdo4fOQDMLXpJtgu2gGDy8iKaQn0iCkzKHn0kTZAJy2lOQCYdrA5aJ4JQ8H1fOZ32oX2BKzALuHwYSMMIPTp08elH3/wwQddO9Ke6D99ifaDVsbIUwY2DfDM6JEyAAT0AT1Af9Fd9AX2AX0FJMIg4MDQbcpSD5w/rBb9BlvFaNWALtMugHADCIFBaFgRrd2xJTCQe/bscewgBwwT8gUgMMXEgAV94zu2A3266aabnN0EbNGGMKM4eNoAuzdo0CBne2AwAaYWj8T9GSCha8bEomOU5+BZsAsMHmAtVq1aVb/sHnYD5gL7STuPGDHCtX17PmyKocWCFNs6QDAnCzjAkfIdxQe50jEwtNZ5cJZQWhhgc6Y2L2YOFae+a9cuR5HZdVBjGHVGTpSDmqMTARAwsig687841EWLFjkDC4OA8cUxYOCJTmW05S/z4V4ABBgEwIV1DqYEuCeUHwcMAp3e5ucYAYLkqYMd5lzs/kb3EVMBI4DDBxQwWgO8cGAkqCPzkBhvHAQOgPfDaMCkYAxwVExDIDuMPQwCAAH0T935/eqrr3bOgN9wOBwYF8BUW57i4j3jphgog2EGpI4aNcoZTBw9sme0TDwJB/rAFAMjbww1B/pp57ge3aUdmaqw/U1oO6YkcL5mZLkPIzTay6YYAMSwRhwAE8AzVC/txYgRIABwgEEAbGC4aXsDd+gl7BzAknemLKNTppzmzZvn7slvOHymIwAkOCxGogAO6ke/YKoPBoKRJX0V9gpHBYACVPBM3htQCktmwbwBIDTuOpEbU1HoDvYIQMfAAbuBfLFLtD/6go0DBKB/gDfYQYAebY2eECdCW9geH+gCcQXoKnYBFtUGVhbvZLYHlgxd4ZlMZXHthAkTXPtj79BbDnSJgZPptwVTt2eA0OLLHNsiQPBHyigp9BaOnTkzo8pAuHzGqNqIHWeFgWUel8MCsXzFxHli5Gx0zrV8J94Aw8530C40HB2F/yg6cQQYfzoXKBnKHYcJkod2hdIzmt06AO/B85gXBJmbU+d9QNygcIwjRhRwYkwFAAFwgiO3Tko7Q9PasjUDPBho6D6cADKBVsRI8O6AAVA9nZk/RgEYZcAQI0SC5zASRgUzKsSxQZEDWnACsCJMrTAa5jzX8GyuQ9kJRrJ3a4vTC8UABGSNnGk/DCsAAEML7Uq74DBNpykLw4X++OAAx4o+0360BwABFsIAMkYepggnzUEZmCDKI3e+o58AAZwHDARAAIaB0T80MwABnYZ5Iw7BpsHMgDMlwVQTo0JAIQAH58C1OALoaqYoGBUCIq2fUCecC3EuOATAJc6Jd2dKjhgVnAlOi/vBlqGzyIp6U9ZfuRF1IGGKIQ8ksQXIj4EKbUp8AXqHLQPAYb8AC0w/0P4MXpA5bWfAjHaCzUQ3sIuMZNEH+jnAEPvAwIS2Nr3C9sA+mi0CpBozQAwVug6DUV1d7QACLBoH7CIDGH+FWFu1EcWCngAQipVUEeVs1GwjDjNothTPX8/L7Sjvr79lymHdunX1c78oJwbLKE2jOrnWX+IVXbLGaAjnisHkGTyfe4PmiSGg0wJO6IyGsilPcJA/8rfOYWvD7fnW+W2pl72Lje64B3Vg9G6djbJ33nmn+25ysA5s13F/6gmVyDkLomT0yXXcA4Xld+hKi3S3qHeMugEtmy/nPjASHLyjRTYbO9IWDUAcg4AMAJiMmGkLjCkjOwwvgbUW9AVQhHXBcGPQLWaFNuA7TtvaCgfNdBkHQAFaH7YA/eUZPBMQB6AzsIhjp735jlMGUKJbgFjANW1EG6O3sF4+QOE59BWCfykPI4B+MCUAcKF+gEPAMnUAOBPQCgsGKGc6BGAJgwUwhVUAVMMaWOCcxfnwHjgR7omDgh2hbg3RzwEg5G0b7UXbw5oyCGL6EFlD+QPu0DcYT/QAWaIf2CymRAHy6CFgD6DJ75RBb9Ev9I62BmwAQBi8oEdmq2gv0xdivpiKpU4AA0Aon9E9mDQGP+gZ7AXMoz9Aa4v2oQhXVl8kAIRSpNVI2Wiwn1+Uc77SGXBAmVFA39DgDFFW37nbSN+u82MUzNja1IQ9y0aAfqCgjbwoA6jwmQPuY+uI7XeutWh26yh+h7HP1hENbJhDsKWadj6606TV3X+Ov77cp5N9eZoc/Of772/Mh/1msjCwZBS3yaOZVOC8uU0cQEAeFsBlsonKLKrPUZmZAzC6P9o+3BddBtwaoDW99qe1CvUTv31NR6KG2mftzDEY2DZ9KrT3gt8XKeeDUwO6Viff4Rjo5xpjxRpq8AAQ8gDBRvS0C6DefjNd4z86gq2L9lFbMWK6ENUJsyn+IMt0EUbK3/Qoqrs2SLApW7PBdk+/LwSA0MI7KbbFKQYUyqc/zQhFGQNTTFNYUz7f4fv3iQIC38GbEfRHMv7o3zdyZviiTt7vfNF7+8bSOp7Vs9D7+e9kHc/v1HatH5MQHRGaQ/fr64MA31mYs4++W9TxRTt4VPbnjVdvxooUE6TogyMfVEYdchQE+sbWB4a+sfXL8BybOvMZJx8cWhuabvhtFtWRqJg4HwXgPvD17+2/c9Tx+M7Lf0ahd2lskySuDQDhzFgVa5/G7JDfZlE9sDamLfz+7Q+sTP9sQOQDV9/xN9TNDKD4m3f5trgZu2erulWLMgg0LtSPbZzR3tFZq9KUUNlWIQGMGrQrlH80z0CreIFWXElzKMyts6onpHtuxY3ZTFXPiaDenBJK8s8duYSUUFbK8ZdTJplSkvPuSCurjPueyJVLGdaNN1NlSriNgSoC64mnY9BR6lHyToo8FAbBgkJKBQhxiK4QUoyOgOwlC1GWhQTQ0PX+aKTQdXF1LVXYTrFOR5AX+w5x71iq/JtSZ/+aUtqn1Hds7N7tqX0YSbFihvndQgChmNHUN23n9nJ9Q/3LGAQi8RuKU2gvMgrvmZdAQkzpAgjKpUTKYYVEgjMggFQ9eFCCj1lX1p3OJaXEuVtqSSwZgZwE15d6NAkgECFNtLDRycUarDjnWKoDjXOehQBAMXUwIZ4NgBDXQHHvFHc+7v7f9Hyc/M72+aiOtDRAipN/3Pli5U9nZtWHBcfGgbRi7xvKxUuANoRBYGkd6/iLtW/xdw4lWqMEAAJZ4syUUxLGwBmhlLIJBxfcUU8QnGYYHDJwQKFOCbGdeT74uqUPBhusImGVGaxkqUfJAIEHYLyIHKUjWcKOxh4cnfM0I1pontLvjP4clO8YonOaUYagofN2j0JzotF5Sivr17U5DEWcAy21AVuifKE5a55bTPs01sYN6UFD7WPvaud9AFeo/Zoim/OhfRixsnqEjWZs1UEh/W/K+4VrGpcAeoTMWVpJZHx73sc/6Eq9xVEOBiBX5tiARAKnX+sAg2MTcmXKpghWh0lIKOHKlbNJtLLJtLLJOqWyLc8gWLwHm4exrB2AUCob1iSAQCSzRe/7hiuqUHFGu5jzTVXShujqxpx8Y1MRVo+4OpdS3+YY/X4T0BL3LsWcb6j9S303c/ahffIa5Mu+VFmWooOhbJBAkECMBJgWzqalVNnpSQOYBKBAxsUfKJFVNlGhrItTyIOEJJwC9AIsQoLfSzuam71mqrIpYLdJAIHKR0f6ZtSiozxfLIVGk6Wcjz6jkHMqhuKNq0dzvEsxdS2mTNz7xJ0v9IxinHpcPEBDjjyuPnHni5F9MWVKbeNiZNIUfSv1fUszI6F0kECQwFmXACCA/SCUUy6ZcgGLqWxGCaYbHACANSh3eIBwA+IPygALLkgBniFRMkBozncq5KuLvX+TAEJTDGVzOMOm3KMpdY0z6oVGdHEOtSHgVOqz4ijwptajKbKNq0tTZN9S9SgWOJ2r9im2A4dyQQJBAmdPAvXTmUQjOtagVkofUOLEPjaAkFKdpM7dpURHCRYheYEyCWISMvVsQk6p/AqIc3ScE4Bwjt41PDZIIEggSCBIIEigRSTg2PL8TIESmS+U3rVRh//3N0r/3x+UytapLnWRyjtfrrIb71HXfoOlssuVSZS5+ARWPeTcpzIlS5hjMIa+1HiBxljdQnFdxQiwyQxCMTcPZYIEggSCBIIEggRapwS+mkpP1B5Resvr2rv+JXXK7NapU7Uqu7CbTimtiuQpHc9dqm6D7lbHQROUKb9EZbmUcsk6pdNZZVIVKs9lCu7EG901F8ay0KZhvoNvKF6LuEDb7ddnPi2eieuSbsrDllrkY50aOwJAaJ2aG2odJBAkECQQJHBWJQBAIB9FnXTwE+148UfqVlajLzp312Ujx+jCi/vry0P7tf/Dt9V11zp9UXGJeoz7B5X3HqacOiiTrVXNsWN69h8X6KfznnWZbtlC2naZJMEY+SdIfkeuFFt18MYbb7i8JJZ3hldkRROZK8lHwfXkL7nqqqvqVyWQ6IocKeQj2bx5s0ueRRI19j84gz3I5lzist59+8SCA54bAMJZVbBw8yCBIIEggSCB1ikBtgDPSNkaHV37c9Wtf1HHO3xLfb7/M2W69lNGF6q8tla5mn3av/QRJWv2KPPtP1OPP5+tdKqLjn35pY4e2KdZ02do8ZJfaerUqS7pFVlSSbJG2vvevXu7jQdJwIdzJ3+FJZ6y7cDZMI3smGxOSBbSzz77zIGHnj17uu0G2N2YpGdVVVUuBTaJ7bg/2S9JiOeYA3KWpDNavmyZRt05SkOHDQsAoXUqZah1kECQQJBAkMC5l0CeQdDxPdr+i4nqfHizsteNU8/7FuhLdVR5tlYpwhFTdTr02rPKbliik10Hqu+Uf1ddRRct/rdlOrx/rz75aIuqbh2qd955x2XEfPfdd/Xpp586Z46jJ/MoexWQjhxwQEZbwAGZSdnq2zKYkpkUUEF6c/IrsBU4ibIoy7bsZMSEVSANwvz58/Xyyy/XZ90FRIwZM0a//JcXXGbUQYOrvraPTSF5Bwbh3GthqEGQQJBAkECQwHkngdMA4dhubV04XhcdqVblrVPU5S/mSrUndWRLtbr88a06larQsdULVPvaPNV2q1Kfqb9SulNHpZKV+u1//1bLl/+n/vlnC93OqGwyuGbNGjfVsHbtWrcj8e7du1VdXe026OL3m2++2YGGQ4cOuZTrAAayZT722GMunwLgApYABoFtlEmpze7GD0+erMu6d9eM6TNc+vfJkydr9pzZqqysdGnOZ86YoV+/8msNHz5cg4cOCQzCeadvoUJBAkECQQJBAq1EAvkkTbkTh3Vg2V8ru3mpjnWtUv/Zy7T7tRVK5sp0+egfKKu0Dv9yvDJb1qm2/3f1rR+8qOwFZTpxvFZ/97c/0YFDNfrTe/5E69ev19ixYzV06FAXJ7By5UrnuLdv3+5AwrZt27Rz507n+GEUCDrs3r27BgwY4GIVZs6c6RgHtk6+/vrrde+99zpgACvxzDPPaPJDk9zW4HPmzNGiRYscGJk+fboDGHzn9+XLl2v4iBGqGlxV1K6KgUFoJaoaqhkkECQQJBAkcPYl8NUuhnkGIZs+qfS21dr18+8pmcmp2033aveW/9HlQ/5SF4+fqa2rl6jTb2YoW95BnUYv0CXDJypbllD1h5u16YNN+t2Gd7Xs5RWaNGmSixMABJBh8dFHH9WNN96oTZs2adWqVW71QkVFhZs2gE3g7+DBgxo9erRjFQADOPyPPvpIe/fu1cSJE7V48WL16tXLTVsAEAAQTEPAIMA2jBw50jEFGzZs0NNPP30aIAxX1eDBgUE4+6oUnhAkECQQJBAk0DYlkAcI6WxGZSf2a9d/zNXJTS/pjyoyqstIFcOm6dLv/o22r1mi2teeVtmAUfr2hH9SpmN31Z06pR89MUs/+fFTmjn1cf3rS0vcqoKlS5fq1VdfdSsacOB33HGHc9RPPfWUYwRuueWW+m3WASrEFbBCASYBcDBt2jTHPgAwAAiwDACLJ598Ut9/+JEzAAK5F346f746V1ZqxowZ7m/FihUaMXKkBg8JAKFt6mx4qyCBIIEggSCBsyqBPIvAI3LKuJmGrFJHturI8mk6Uv2mEpkKXTT8h+ryvR+rLnlYJ/9rkTrf84BOXHyDUrmsLqhLqzaZ1MGjR/XDv3pEM2fN1ueff+5WKpBKfOHChVqwYIEGDhzoggcZ3RNg2K9fPxeHAGgg+JDpgxdeeEGkHScG4e6773aJxJg2eOihh+oDDWfPnq2HJ03+GoNA7AIggtUOPI/AxREjRmjIsKFOfmEfhLOqRuHmQQJBAkECQQJtWgIu91BCp5RReu8nSv5hrcpOHlCiey+VXzVIh/Yd1okOPdWzVy+XqyGXTCqhlLI5Oef84abf67rrBjinzl4G11xzjQs6JOkhAYfsh0BcAVMLtqmR/Ycd6NOnj4sXIFbB9jTo0qWLAxt8t+yjsAxkVwaI9O3b94yEiqxi4BxLJFkZQeAi18UdIQYhTkLhfJBAkECQQJBAu5ZAlrxMZGVMH9HJHRv1u5f+XpXpQzqS7KaB3wP0kqUAAAFeSURBVJmoy24dn0/IlEqezviYUDJB2mfABdfy8audGQtto3zGjofJfO4GHLv9jkP3szwCHjhnLIDd3/9uLIGfHbYY5sAaOwCEdq324eWDBIIEggSCBBqTgJthwMlnSOucVSJZp9zRHarZ+nt1uuI6lV16jVReriy7LkLbp3DuSTkKISc3+udclM73t1Uu9PwoAKCM/cZnHyz4uyVSxsCE/9meYRsnFdPqASAUI6VQJkggSCBIIEigXUog7/alZCbhPqWTGSlXq3IYggwnSO5MZud8HoUEo38Xw5BQLpN1zELu9DmfBWgsy2Ih59+Y8H3WwGcifLbAn7YwBiPEILRLlQ4vHSQQJBAkECTQHBLIKaOsskrlyh0joERaWZIqKSVm8cnaKJUXfpTlRSohm2Nz1Lm57hEYhOaSZLhPkECQQJBAkEAblAA0QVpSRR4gnD5yCTlowNkODb11KwcI/w8jHYJNAoqV4AAAAABJRU5ErkJggg==;" vertex="1" parent="1">
          <mxGeometry x="730" y="23" width="520" height="297" as="geometry" />
        </mxCell>
        <mxCell id="OTchDZz6keVQlQE7Lg18-30" value="跟踪类开发方法" style="rounded=1;whiteSpace=wrap;html=1;fontSize=12;" vertex="1" parent="1">
          <mxGeometry x="90" y="750" width="120" height="60" as="geometry" />
        </mxCell>
        <mxCell id="OTchDZz6keVQlQE7Lg18-31" value="bpftrace" style="rounded=1;whiteSpace=wrap;html=1;fontSize=12;" vertex="1" parent="1">
          <mxGeometry x="320" y="720" width="120" height="60" as="geometry" />
        </mxCell>
        <mxCell id="OTchDZz6keVQlQE7Lg18-32" value="BCC" style="rounded=1;whiteSpace=wrap;html=1;fontSize=12;" vertex="1" parent="1">
          <mxGeometry x="320" y="790" width="120" height="60" as="geometry" />
        </mxCell>
        <mxCell id="OTchDZz6keVQlQE7Lg18-33" value="" style="endArrow=classic;html=1;rounded=0;fontSize=12;exitX=1;exitY=0.5;exitDx=0;exitDy=0;entryX=0;entryY=0.5;entryDx=0;entryDy=0;" edge="1" parent="1" source="OTchDZz6keVQlQE7Lg18-30" target="OTchDZz6keVQlQE7Lg18-31">
          <mxGeometry width="50" height="50" relative="1" as="geometry">
            <mxPoint x="600" y="790" as="sourcePoint" />
            <mxPoint x="650" y="740" as="targetPoint" />
          </mxGeometry>
        </mxCell>
        <mxCell id="OTchDZz6keVQlQE7Lg18-34" value="" style="endArrow=classic;html=1;rounded=0;fontSize=12;entryX=0;entryY=0.5;entryDx=0;entryDy=0;" edge="1" parent="1" target="OTchDZz6keVQlQE7Lg18-32">
          <mxGeometry width="50" height="50" relative="1" as="geometry">
            <mxPoint x="210" y="780" as="sourcePoint" />
            <mxPoint x="260" y="730" as="targetPoint" />
          </mxGeometry>
        </mxCell>
        <mxCell id="OTchDZz6keVQlQE7Lg18-35" value="&lt;span style=&quot;color: rgb(51 , 51 , 51) ; font-family: &amp;#34;pingfang sc&amp;#34; , &amp;#34;avenir&amp;#34; , &amp;#34;tahoma&amp;#34; , &amp;#34;arial&amp;#34; , &amp;#34;lantinghei sc&amp;#34; , &amp;#34;microsoft yahei&amp;#34; , &amp;#34;hiragino sans gb&amp;#34; , &amp;#34;microsoft sans serif&amp;#34; , &amp;#34;wenquanyi micro hei&amp;#34; , &amp;#34;helvetica&amp;#34; , sans-serif ; font-size: 16px ; background-color: rgb(255 , 255 , 255)&quot;&gt;libbpf&lt;/span&gt;" style="rounded=1;whiteSpace=wrap;html=1;fontSize=12;" vertex="1" parent="1">
          <mxGeometry x="320" y="860" width="120" height="60" as="geometry" />
        </mxCell>
        <mxCell id="OTchDZz6keVQlQE7Lg18-36" value="" style="endArrow=classic;html=1;rounded=0;fontSize=12;entryX=0;entryY=0.5;entryDx=0;entryDy=0;" edge="1" parent="1" target="OTchDZz6keVQlQE7Lg18-35">
          <mxGeometry width="50" height="50" relative="1" as="geometry">
            <mxPoint x="210" y="780" as="sourcePoint" />
            <mxPoint x="650" y="740" as="targetPoint" />
          </mxGeometry>
        </mxCell>
        <mxCell id="OTchDZz6keVQlQE7Lg18-37" value="SKB" style="rounded=1;whiteSpace=wrap;html=1;fontSize=12;" vertex="1" parent="1">
          <mxGeometry x="210" y="980" width="120" height="60" as="geometry" />
        </mxCell>
        <mxCell id="OTchDZz6keVQlQE7Lg18-38" value="kfree_skb&lt;br&gt;consume_skb" style="rounded=1;whiteSpace=wrap;html=1;fontSize=12;" vertex="1" parent="1">
          <mxGeometry x="415" y="980" width="120" height="60" as="geometry" />
        </mxCell>
        <mxCell id="OTchDZz6keVQlQE7Lg18-40" value="" style="endArrow=classic;html=1;rounded=0;fontSize=12;exitX=1;exitY=0.5;exitDx=0;exitDy=0;entryX=0;entryY=0.5;entryDx=0;entryDy=0;" edge="1" parent="1" source="OTchDZz6keVQlQE7Lg18-37" target="OTchDZz6keVQlQE7Lg18-38">
          <mxGeometry width="50" height="50" relative="1" as="geometry">
            <mxPoint x="640" y="950" as="sourcePoint" />
            <mxPoint x="690" y="900" as="targetPoint" />
          </mxGeometry>
        </mxCell>
        <mxCell id="OTchDZz6keVQlQE7Lg18-41" value="bpftrace kstack ustack" style="rounded=1;whiteSpace=wrap;html=1;fontSize=12;" vertex="1" parent="1">
          <mxGeometry x="610" y="980" width="120" height="60" as="geometry" />
        </mxCell>
        <mxCell id="OTchDZz6keVQlQE7Lg18-42" value="" style="endArrow=classic;html=1;rounded=0;fontSize=12;exitX=1;exitY=0.5;exitDx=0;exitDy=0;entryX=0;entryY=0.5;entryDx=0;entryDy=0;" edge="1" parent="1" source="OTchDZz6keVQlQE7Lg18-38" target="OTchDZz6keVQlQE7Lg18-41">
          <mxGeometry width="50" height="50" relative="1" as="geometry">
            <mxPoint x="640" y="920" as="sourcePoint" />
            <mxPoint x="690" y="870" as="targetPoint" />
          </mxGeometry>
        </mxCell>
        <mxCell id="OTchDZz6keVQlQE7Lg18-43" value="内核函数" style="rounded=1;whiteSpace=wrap;html=1;fontSize=12;" vertex="1" parent="1">
          <mxGeometry x="790" y="980" width="120" height="60" as="geometry" />
        </mxCell>
        <mxCell id="OTchDZz6keVQlQE7Lg18-44" value="" style="endArrow=classic;html=1;rounded=0;fontSize=12;exitX=1;exitY=0.5;exitDx=0;exitDy=0;entryX=0;entryY=0.5;entryDx=0;entryDy=0;" edge="1" parent="1" source="OTchDZz6keVQlQE7Lg18-41" target="OTchDZz6keVQlQE7Lg18-43">
          <mxGeometry width="50" height="50" relative="1" as="geometry">
            <mxPoint x="750" y="920" as="sourcePoint" />
            <mxPoint x="800" y="870" as="targetPoint" />
          </mxGeometry>
        </mxCell>
        <mxCell id="OTchDZz6keVQlQE7Lg18-45" value="&lt;span style=&quot;color: rgb(51 , 51 , 51) ; font-family: &amp;#34;pingfang sc&amp;#34; , &amp;#34;avenir&amp;#34; , &amp;#34;tahoma&amp;#34; , &amp;#34;arial&amp;#34; , &amp;#34;lantinghei sc&amp;#34; , &amp;#34;microsoft yahei&amp;#34; , &amp;#34;hiragino sans gb&amp;#34; , &amp;#34;microsoft sans serif&amp;#34; , &amp;#34;wenquanyi micro hei&amp;#34; , &amp;#34;helvetica&amp;#34; , sans-serif ; background-color: rgb(255 , 255 , 255)&quot;&gt;&lt;font style=&quot;font-size: 12px&quot;&gt;https://elixir.bootlin.com/&lt;/font&gt;&lt;/span&gt;" style="rounded=1;whiteSpace=wrap;html=1;fontSize=12;" vertex="1" parent="1">
          <mxGeometry x="960" y="930" width="160" height="60" as="geometry" />
        </mxCell>
        <mxCell id="OTchDZz6keVQlQE7Lg18-46" value="&lt;span style=&quot;color: rgb(51 , 51 , 51) ; font-family: &amp;#34;pingfang sc&amp;#34; , &amp;#34;avenir&amp;#34; , &amp;#34;tahoma&amp;#34; , &amp;#34;arial&amp;#34; , &amp;#34;lantinghei sc&amp;#34; , &amp;#34;microsoft yahei&amp;#34; , &amp;#34;hiragino sans gb&amp;#34; , &amp;#34;microsoft sans serif&amp;#34; , &amp;#34;wenquanyi micro hei&amp;#34; , &amp;#34;helvetica&amp;#34; , sans-serif ; background-color: rgb(255 , 255 , 255)&quot;&gt;&lt;font style=&quot;font-size: 12px&quot;&gt;faddr2line&lt;/font&gt;&lt;/span&gt;" style="rounded=1;whiteSpace=wrap;html=1;fontSize=12;" vertex="1" parent="1">
          <mxGeometry x="960" y="1010" width="120" height="60" as="geometry" />
        </mxCell>
        <mxCell id="OTchDZz6keVQlQE7Lg18-47" value="" style="endArrow=classic;html=1;rounded=0;fontSize=12;exitX=1;exitY=0.5;exitDx=0;exitDy=0;entryX=0;entryY=0.5;entryDx=0;entryDy=0;" edge="1" parent="1" source="OTchDZz6keVQlQE7Lg18-43" target="OTchDZz6keVQlQE7Lg18-45">
          <mxGeometry width="50" height="50" relative="1" as="geometry">
            <mxPoint x="820" y="950" as="sourcePoint" />
            <mxPoint x="870" y="900" as="targetPoint" />
          </mxGeometry>
        </mxCell>
        <mxCell id="OTchDZz6keVQlQE7Lg18-48" value="" style="endArrow=classic;html=1;rounded=0;fontSize=12;exitX=1;exitY=0.5;exitDx=0;exitDy=0;entryX=-0.008;entryY=0.617;entryDx=0;entryDy=0;entryPerimeter=0;" edge="1" parent="1" source="OTchDZz6keVQlQE7Lg18-43" target="OTchDZz6keVQlQE7Lg18-46">
          <mxGeometry width="50" height="50" relative="1" as="geometry">
            <mxPoint x="910" y="1070" as="sourcePoint" />
            <mxPoint x="960" y="1020" as="targetPoint" />
          </mxGeometry>
        </mxCell>
        <mxCell id="OTchDZz6keVQlQE7Lg18-49" value="网络事件" style="rounded=1;whiteSpace=wrap;html=1;fontSize=12;" vertex="1" parent="1">
          <mxGeometry x="20" y="980" width="120" height="60" as="geometry" />
        </mxCell>
        <mxCell id="OTchDZz6keVQlQE7Lg18-50" value="" style="endArrow=classic;html=1;rounded=0;fontSize=12;entryX=0;entryY=0.5;entryDx=0;entryDy=0;" edge="1" parent="1" target="OTchDZz6keVQlQE7Lg18-37">
          <mxGeometry width="50" height="50" relative="1" as="geometry">
            <mxPoint x="140" y="1010" as="sourcePoint" />
            <mxPoint x="190" y="960" as="targetPoint" />
          </mxGeometry>
        </mxCell>
      </root>
    </mxGraphModel>
  </diagram>
</mxfile>
